<svg width="15" height="13" viewBox="0 0 15 13" fill="none" xmlns="http://www.w3.org/2000/svg">
<path d="M0.173077 7.07693C0.0576923 6.96154 0 6.78847 0 6.67308C0 6.5577 0.0576923 6.38462 0.173077 6.26924L0.980769 5.46154C1.21154 5.23077 1.55769 5.23077 1.78846 5.46154L1.84615 5.51924L5.01923 8.92308C5.13462 9.03847 5.30769 9.03847 5.42308 8.92308L13.1538 0.903851H13.2115C13.4423 0.673082 13.7885 0.673082 14.0192 0.903851L14.8269 1.71154C15.0577 1.94231 15.0577 2.28847 14.8269 2.51924L5.59615 12.0962C5.48077 12.2115 5.36538 12.2692 5.19231 12.2692C5.01923 12.2692 4.90385 12.2115 4.78846 12.0962L0.288462 7.25L0.173077 7.07693Z" fill="#E51010"/>
</svg>
