<svg width="15" height="17" viewBox="0 0 15 17" fill="none" xmlns="http://www.w3.org/2000/svg">
<path d="M14.7801 0.942513C14.4868 0.630084 14.0128 0.630084 13.7196 0.942513L7.5 7.56905L1.28041 0.942513C0.987164 0.630084 0.513175 0.630084 0.219932 0.942513C-0.0733107 1.25494 -0.0733107 1.75994 0.219932 2.07237L6.43953 8.69891L0.219932 15.3254C-0.0733107 15.6379 -0.0733107 16.1429 0.219932 16.4553C0.366178 16.6111 0.558174 16.6894 0.750169 16.6894C0.942164 16.6894 1.13416 16.6111 1.28041 16.4553L7.5 9.82877L13.7196 16.4553C13.8658 16.6111 14.0578 16.6894 14.2498 16.6894C14.4418 16.6894 14.6338 16.6111 14.7801 16.4553C15.0733 16.1429 15.0733 15.6379 14.7801 15.3254L8.56047 8.69891L14.7801 2.07237C15.0733 1.75994 15.0733 1.25494 14.7801 0.942513Z" fill="#E5E5E5"/>
</svg>
