<svg width="30" height="30" viewBox="0 0 30 30" fill="none" xmlns="http://www.w3.org/2000/svg">
<path d="M7.97173 20.1161C7.74287 19.8873 7.37185 19.8873 7.14304 20.1161L4.88987 22.3693L3.68923 21.1686C3.46042 20.9398 3.08946 20.9399 2.86059 21.1687C2.63173 21.3975 2.63178 21.7685 2.86059 21.9973L4.47556 23.6122C4.58999 23.7267 4.73993 23.7839 4.88987 23.7839C5.03982 23.7839 5.18982 23.7267 5.30425 23.6123L7.97173 20.9448C8.20054 20.716 8.20054 20.3449 7.97173 20.1161Z" fill="#E51010"/>
<path d="M22.8595 10.0429C22.8519 10.0054 22.8401 9.9685 22.8255 9.93335C22.8108 9.89819 22.7933 9.86362 22.7716 9.83198C22.7505 9.79975 22.7259 9.76987 22.6989 9.74292C22.672 9.71597 22.6421 9.69136 22.6099 9.67026C22.5782 9.64917 22.5442 9.63101 22.5091 9.61636C22.4733 9.60171 22.4364 9.59058 22.3989 9.58296C22.3233 9.56772 22.246 9.56772 22.1704 9.58296C22.1329 9.59058 22.096 9.60171 22.0608 9.61636C22.0251 9.63101 21.9911 9.64917 21.9595 9.67026C21.9272 9.69136 21.8974 9.71597 21.8704 9.74292C21.8435 9.76987 21.8188 9.79975 21.7978 9.83198C21.7767 9.86362 21.7585 9.89819 21.7438 9.93335C21.7292 9.9685 21.7181 10.0054 21.7104 10.0429C21.7028 10.081 21.6987 10.1191 21.6987 10.1572C21.6987 10.1958 21.7028 10.2339 21.7104 10.272C21.7181 10.3095 21.7292 10.3464 21.7438 10.3816C21.7585 10.4167 21.7767 10.4507 21.7978 10.4824C21.8188 10.5146 21.8435 10.5445 21.8704 10.5714C21.8974 10.599 21.9272 10.623 21.9595 10.6447C21.9911 10.6658 22.0251 10.6839 22.0608 10.6986C22.096 10.7132 22.1329 10.7244 22.1704 10.732C22.2079 10.7396 22.2466 10.7431 22.2847 10.7431C22.3228 10.7431 22.3614 10.7396 22.3989 10.732C22.4364 10.7244 22.4733 10.7132 22.5091 10.6986C22.5442 10.6839 22.5783 10.6658 22.6099 10.6447C22.6421 10.623 22.672 10.599 22.6989 10.5714C22.7259 10.5445 22.7505 10.5146 22.7716 10.4824C22.7933 10.4507 22.8108 10.4167 22.8255 10.3816C22.8401 10.3464 22.8519 10.3095 22.8595 10.272C22.8671 10.2339 22.8706 10.1958 22.8706 10.1572C22.8706 10.1191 22.8671 10.0811 22.8595 10.0429Z" fill="#E51010"/>
<path d="M29.4141 2.7197H6.94869C6.62508 2.7197 6.36275 2.98202 6.36275 3.30563V5.35753H3.99363C3.67002 5.35753 3.4077 5.61985 3.4077 5.94346V16.8341C1.4127 17.6335 0 19.587 0 21.8641C0 24.8506 2.42965 27.2803 5.41617 27.2803C8.20471 27.2803 10.5078 25.162 10.8008 22.4501H26.4591C26.7827 22.4501 27.045 22.1878 27.045 21.8641V19.8123H29.4141C29.7377 19.8123 30 19.55 30 19.2264V3.30563C30 2.98202 29.7377 2.7197 29.4141 2.7197ZM5.41617 26.1084C3.07588 26.1084 1.17188 24.2044 1.17188 21.8641C1.17188 19.5238 3.07588 17.6199 5.41617 17.6199C7.75646 17.6199 9.66047 19.5239 9.66047 21.8641C9.66047 24.2044 7.75641 26.1084 5.41617 26.1084ZM6.93896 16.6659V15.5187H12.5036V18.3638H9.54609C8.86963 17.567 7.96729 16.9676 6.93896 16.6659ZM25.8731 21.2782H10.8008C10.7341 20.6605 10.563 20.0737 10.3058 19.5356H13.0895C13.4131 19.5356 13.6754 19.2733 13.6754 18.9497V14.9327C13.6754 14.6091 13.4131 14.3468 13.0895 14.3468H6.35297C6.02936 14.3468 5.76703 14.6091 5.76703 14.9327V16.4592C5.65102 16.4518 5.534 16.448 5.41611 16.448C5.1317 16.448 4.85227 16.4701 4.57957 16.5125V12.7109H25.8731V21.2782ZM25.8731 11.5392H4.57957V10.7434H19.9015C20.2252 10.7434 20.4875 10.4811 20.4875 10.1575C20.4875 9.83385 20.2252 9.57153 19.9015 9.57153H4.57957V8.77577H25.8731V11.5392ZM25.8731 7.60389H4.57957V6.5294H25.8731V7.60389ZM28.8281 18.6404H27.0449V5.94346C27.0449 5.61985 26.7826 5.35753 26.459 5.35753H7.53463V3.89157H28.8281V18.6404Z" fill="#E51010"/>
<path d="M21.6227 13.6969C21.013 13.6969 20.442 13.866 19.9542 14.1597C19.4515 13.8558 18.8808 13.6969 18.2825 13.6969C16.4936 13.6969 15.0381 15.1523 15.0381 16.9413C15.0381 18.7302 16.4935 20.1857 18.2825 20.1857C18.8808 20.1857 19.4515 20.0267 19.9542 19.7228C20.442 20.0166 21.013 20.1857 21.6227 20.1857C23.4117 20.1857 24.8671 18.7302 24.8671 16.9413C24.8671 15.1523 23.4117 13.6969 21.6227 13.6969ZM19.0219 18.8786C18.7887 18.9677 18.5396 19.0136 18.2825 19.0136C17.1397 19.0137 16.21 18.084 16.21 16.9412C16.21 15.7985 17.1397 14.8687 18.2825 14.8687C18.5396 14.8687 18.7887 14.9146 19.0219 15.0037C18.6179 15.5447 18.3783 16.2155 18.3783 16.9411C18.3783 17.6668 18.6178 18.3377 19.0219 18.8786ZM21.6227 19.0137C20.48 19.0137 19.5502 18.084 19.5502 16.9411C19.5502 15.7984 20.4799 14.8686 21.6227 14.8686C22.7655 14.8686 23.6953 15.7983 23.6953 16.9411C23.6953 18.084 22.7655 19.0137 21.6227 19.0137Z" fill="#E51010"/>
</svg>
