<svg width="86" height="86" viewBox="0 0 86 86" fill="none" xmlns="http://www.w3.org/2000/svg">
<circle cx="43" cy="43" r="43" fill="#E51010"/>
<path d="M62.0531 52.4561C60.5871 52.4561 59.1943 53.0303 58.1436 54.0688C57.0929 55.1195 56.5064 56.4879 56.5064 57.9539C56.5064 59.42 57.0806 60.7884 58.1436 61.8391C59.2065 62.8776 60.5871 63.4518 62.0531 63.4518C65.0586 63.4518 67.5021 60.9839 67.5021 57.9539C67.5021 54.924 65.0586 52.4561 62.0531 52.4561ZM62.0531 61.0083C60.3671 61.0083 58.9499 59.6155 58.9499 57.9539C58.9499 56.2924 60.3671 54.8996 62.0531 54.8996C63.7147 54.8996 65.0586 56.2679 65.0586 57.9539C65.0586 59.64 63.7147 61.0083 62.0531 61.0083ZM63.4704 34.1421C63.2505 33.9344 62.9572 33.8245 62.6518 33.8245H56.3842C55.7123 33.8245 55.1625 34.3742 55.1625 35.0462V45.0645C55.1625 45.7365 55.7123 46.2863 56.3842 46.2863H66.3293C67.0012 46.2863 67.551 45.7365 67.551 45.0645V38.3571C67.551 38.015 67.4044 37.6852 67.1478 37.453L63.4704 34.1421ZM65.1075 43.8428H57.606V36.2557H62.1753L65.1075 38.8947V43.8428ZM32.2181 52.4561C30.752 52.4561 29.3592 53.0303 28.3085 54.0688C27.2578 55.1195 26.6714 56.4879 26.6714 57.9539C26.6714 59.42 27.2456 60.7884 28.3085 61.8391C29.3714 62.8776 30.752 63.4518 32.2181 63.4518C35.2236 63.4518 37.6671 60.9839 37.6671 57.9539C37.6671 54.924 35.2236 52.4561 32.2181 52.4561ZM32.2181 61.0083C30.5321 61.0083 29.1148 59.6155 29.1148 57.9539C29.1148 56.2924 30.5321 54.8996 32.2181 54.8996C33.8797 54.8996 35.2236 56.2679 35.2236 57.9539C35.2236 59.64 33.8797 61.0083 32.2181 61.0083ZM24.069 53.9588H21.6133V50.709C21.6133 50.037 21.0635 49.4872 20.3916 49.4872C19.7196 49.4872 19.1698 50.037 19.1698 50.709V55.1806C19.1698 55.8525 19.7196 56.4023 20.3916 56.4023H24.069C24.741 56.4023 25.2908 55.8525 25.2908 55.1806C25.2908 54.5086 24.741 53.9588 24.069 53.9588ZM30.2633 47.3003C30.2633 46.6284 29.7135 46.0786 29.0415 46.0786H14.2217C13.5498 46.0786 13 46.6284 13 47.3003C13 47.9723 13.5498 48.5221 14.2217 48.5221H29.0415C29.7135 48.5221 30.2633 47.9845 30.2633 47.3003ZM16.7019 42.8898L31.5217 42.9753C32.1936 42.9753 32.7434 42.4378 32.7556 41.7658C32.7679 41.0816 32.2181 40.5318 31.5461 40.5318L16.7263 40.4463C16.7141 40.4463 16.7141 40.4463 16.7141 40.4463C16.0422 40.4463 15.4924 40.9839 15.4924 41.6558C15.4801 42.34 16.0299 42.8898 16.7019 42.8898ZM19.1943 37.3431H34.014C34.686 37.3431 35.2358 36.7933 35.2358 36.1213C35.2358 35.4494 34.686 34.8996 34.014 34.8996H19.1943C18.5223 34.8996 17.9725 35.4494 17.9725 36.1213C17.9725 36.7933 18.5223 37.3431 19.1943 37.3431ZM72.548 35.6937L63.8002 28.4488C63.5803 28.2655 63.3115 28.1678 63.0183 28.1678H52.7312V23.7695C52.7312 23.0975 52.1814 22.5477 51.5095 22.5477H20.3916C19.7196 22.5477 19.1698 23.0975 19.1698 23.7695V32.7127C19.1698 33.3846 19.7196 33.9344 20.3916 33.9344C21.0635 33.9344 21.6133 33.3846 21.6133 32.7127V24.9912H50.2999V53.9588H40.2816C39.6097 53.9588 39.0599 54.5086 39.0599 55.1806C39.0599 55.8525 39.6097 56.4023 40.2816 56.4023H55.1991C55.8711 56.4023 56.4209 55.8525 56.4209 55.1806C56.4209 54.5086 55.8711 53.9588 55.1991 53.9588H52.7434V30.6113H62.5907L70.5565 37.2087L70.471 53.9344H69.2004C68.5284 53.9344 67.9786 54.4842 67.9786 55.1561C67.9786 55.8281 68.5284 56.3779 69.2004 56.3779H71.6805C72.3525 56.3779 72.9023 55.8403 72.9023 55.1684L73 36.6467C72.9878 36.2802 72.829 35.9259 72.548 35.6937Z" fill="white"/>
</svg>
