<svg width="30" height="30" viewBox="0 0 30 30" fill="none" xmlns="http://www.w3.org/2000/svg">
<path d="M24.5266 19.728C23.7935 19.728 23.0971 20.0152 22.5718 20.5344C22.0464 21.0598 21.7532 21.7439 21.7532 22.477C21.7532 23.21 22.0403 23.8942 22.5718 24.4196C23.1032 24.9388 23.7935 25.2259 24.5266 25.2259C26.0293 25.2259 27.2511 23.9919 27.2511 22.477C27.2511 20.962 26.0293 19.728 24.5266 19.728ZM24.5266 24.0042C23.6836 24.0042 22.975 23.3078 22.975 22.477C22.975 21.6462 23.6836 20.9498 24.5266 20.9498C25.3574 20.9498 26.0293 21.634 26.0293 22.477C26.0293 23.32 25.3574 24.0042 24.5266 24.0042ZM25.2352 10.5711C25.1252 10.4672 24.9786 10.4122 24.8259 10.4122H21.6921C21.3561 10.4122 21.0812 10.6871 21.0812 11.0231V16.0323C21.0812 16.3682 21.3561 16.6431 21.6921 16.6431H26.6646C27.0006 16.6431 27.2755 16.3682 27.2755 16.0323V12.6786C27.2755 12.5075 27.2022 12.3426 27.0739 12.2265L25.2352 10.5711ZM26.0538 15.4214H22.303V11.6279H24.5877L26.0538 12.9474V15.4214ZM9.60904 19.728C8.87599 19.728 8.1796 20.0152 7.65425 20.5344C7.12889 21.0598 6.83568 21.7439 6.83568 22.477C6.83568 23.21 7.12279 23.8942 7.65425 24.4196C8.18571 24.9388 8.87599 25.2259 9.60904 25.2259C11.1118 25.2259 12.3335 23.9919 12.3335 22.477C12.3335 20.962 11.1118 19.728 9.60904 19.728ZM9.60904 24.0042C8.76604 24.0042 8.05742 23.3078 8.05742 22.477C8.05742 21.6462 8.76604 20.9498 9.60904 20.9498C10.4398 20.9498 11.1118 21.634 11.1118 22.477C11.1118 23.32 10.4398 24.0042 9.60904 24.0042ZM5.53451 20.4794H4.30666V18.8545C4.30666 18.5185 4.03177 18.2436 3.69579 18.2436C3.3598 18.2436 3.08491 18.5185 3.08491 18.8545V21.0903C3.08491 21.4263 3.3598 21.7012 3.69579 21.7012H5.53451C5.87049 21.7012 6.14539 21.4263 6.14539 21.0903C6.14539 20.7543 5.87049 20.4794 5.53451 20.4794ZM8.63164 17.1502C8.63164 16.8142 8.35675 16.5393 8.02077 16.5393H0.610874C0.274893 16.5393 0 16.8142 0 17.1502C0 17.4861 0.274893 17.761 0.610874 17.761H8.02077C8.35675 17.761 8.63164 17.4922 8.63164 17.1502ZM1.85095 14.9449L9.26084 14.9877C9.59682 14.9877 9.87172 14.7189 9.87782 14.3829C9.88393 14.0408 9.60904 13.7659 9.27306 13.7659L1.86316 13.7232C1.85706 13.7232 1.85706 13.7232 1.85706 13.7232C1.52108 13.7232 1.24618 13.9919 1.24618 14.3279C1.24007 14.67 1.51497 14.9449 1.85095 14.9449ZM3.09713 12.1715H10.507C10.843 12.1715 11.1179 11.8966 11.1179 11.5607C11.1179 11.2247 10.843 10.9498 10.507 10.9498H3.09713C2.76115 10.9498 2.48626 11.2247 2.48626 11.5607C2.48626 11.8966 2.76115 12.1715 3.09713 12.1715ZM29.774 11.3469L25.4001 7.72438C25.2902 7.63275 25.1558 7.58388 25.0092 7.58388H19.8656V5.38474C19.8656 5.04876 19.5907 4.77386 19.2547 4.77386H3.69579C3.3598 4.77386 3.08491 5.04876 3.08491 5.38474V9.85633C3.08491 10.1923 3.3598 10.4672 3.69579 10.4672C4.03177 10.4672 4.30666 10.1923 4.30666 9.85633V5.99561H18.65V20.4794H13.6408C13.3048 20.4794 13.0299 20.7543 13.0299 21.0903C13.0299 21.4263 13.3048 21.7012 13.6408 21.7012H21.0996C21.4356 21.7012 21.7104 21.4263 21.7104 21.0903C21.7104 20.7543 21.4356 20.4794 21.0996 20.4794H19.8717V8.80563H24.7954L28.7783 12.1043L28.7355 20.4672H28.1002C27.7642 20.4672 27.4893 20.7421 27.4893 21.0781C27.4893 21.4141 27.7642 21.6889 28.1002 21.6889H29.3403C29.6762 21.6889 29.9511 21.4202 29.9511 21.0842L30 11.8233C29.9939 11.6401 29.9145 11.4629 29.774 11.3469Z" fill="#E51010"/>
</svg>
