<svg width="86" height="86" viewBox="0 0 86 86" fill="none" xmlns="http://www.w3.org/2000/svg">
<circle cx="43" cy="43" r="43" fill="#E51010"/>
<path d="M26.9444 56.2323C26.4867 55.7746 25.7447 55.7746 25.2871 56.2323L20.7807 60.7386L18.3794 58.3373C17.9218 57.8797 17.1799 57.8798 16.7222 58.3374C16.2644 58.795 16.2645 59.5371 16.7222 59.9947L19.9521 63.2245C20.181 63.4533 20.4808 63.5677 20.7807 63.5677C21.0806 63.5677 21.3806 63.4533 21.6095 63.2246L26.9444 57.8896C27.4021 57.4319 27.4021 56.6898 26.9444 56.2323Z" fill="white"/>
<path d="M56.7199 36.0858C56.7047 36.0108 56.6812 35.937 56.652 35.8667C56.6227 35.7964 56.5875 35.7272 56.5441 35.664C56.502 35.5995 56.4527 35.5397 56.3988 35.4858C56.3449 35.4319 56.2852 35.3827 56.2207 35.3405C56.1574 35.2983 56.0895 35.262 56.0191 35.2327C55.9477 35.2034 55.8738 35.1812 55.7988 35.1659C55.6477 35.1354 55.493 35.1354 55.3418 35.1659C55.2668 35.1812 55.193 35.2034 55.1227 35.2327C55.0512 35.262 54.9832 35.2983 54.9199 35.3405C54.8555 35.3827 54.7957 35.4319 54.7418 35.4858C54.6879 35.5397 54.6387 35.5995 54.5965 35.664C54.5543 35.7272 54.518 35.7964 54.4887 35.8667C54.4594 35.937 54.4371 36.0108 54.4219 36.0858C54.4066 36.162 54.3984 36.2382 54.3984 36.3143C54.3984 36.3917 54.4066 36.4679 54.4219 36.544C54.4371 36.619 54.4594 36.6929 54.4887 36.7632C54.518 36.8335 54.5543 36.9015 54.5965 36.9647C54.6387 37.0292 54.6879 37.089 54.7418 37.1429C54.7957 37.1979 54.8555 37.246 54.9199 37.2893C54.9832 37.3315 55.0512 37.3679 55.1227 37.3972C55.193 37.4265 55.2668 37.4487 55.3418 37.464C55.4168 37.4792 55.4941 37.4862 55.5703 37.4862C55.6465 37.4862 55.7238 37.4792 55.7988 37.464C55.8738 37.4487 55.9477 37.4265 56.0191 37.3972C56.0895 37.3679 56.1575 37.3315 56.2207 37.2893C56.2852 37.246 56.3449 37.1979 56.3988 37.1429C56.4527 37.089 56.502 37.0292 56.5441 36.9647C56.5875 36.9015 56.6227 36.8335 56.652 36.7632C56.6812 36.6929 56.7047 36.619 56.7199 36.544C56.7352 36.4679 56.7422 36.3917 56.7422 36.3143C56.7422 36.2383 56.7352 36.1621 56.7199 36.0858Z" fill="white"/>
<path d="M69.8281 21.4393H24.8974C24.2502 21.4393 23.7255 21.964 23.7255 22.6112V26.715H18.9873C18.34 26.715 17.8154 27.2396 17.8154 27.8869V49.6681C13.8254 51.2669 11 55.1738 11 59.7282C11 65.7011 15.8593 70.5606 21.8323 70.5606C27.4094 70.5606 32.0156 66.324 32.6016 60.9001H63.9181C64.5653 60.9001 65.09 60.3754 65.09 59.7282V55.6245H69.8281C70.4754 55.6245 71 55.0999 71 54.4527V22.6112C71 21.964 70.4754 21.4393 69.8281 21.4393ZM21.8323 68.2168C17.1518 68.2168 13.3438 64.4088 13.3438 59.7282C13.3438 55.0476 17.1518 51.2397 21.8323 51.2397C26.5129 51.2397 30.3209 55.0478 30.3209 59.7282C30.3209 64.4087 26.5128 68.2168 21.8323 68.2168ZM24.8779 49.3318V47.0374H36.0072V52.7276H30.0922C28.7393 51.1339 26.9346 49.9352 24.8779 49.3318ZM62.7461 58.5563H32.6016C32.4682 57.321 32.1261 56.1473 31.6115 55.0712H37.179C37.8262 55.0712 38.3509 54.5465 38.3509 53.8993V45.8654C38.3509 45.2182 37.8262 44.6935 37.179 44.6935H23.7059C23.0587 44.6935 22.5341 45.2182 22.5341 45.8654V48.9184C22.302 48.9035 22.068 48.8959 21.8322 48.8959C21.2634 48.8959 20.7045 48.9401 20.1591 49.0249V41.4218H62.7461V58.5563ZM62.7461 39.0783H20.1591V37.4867H50.8031C51.4503 37.4867 51.975 36.9621 51.975 36.3149C51.975 35.6676 51.4503 35.143 50.8031 35.143H20.1591V33.5515H62.7461V39.0783ZM62.7461 31.2077H20.1591V29.0587H62.7461V31.2077ZM68.6562 53.2808H65.0899V27.8869C65.0899 27.2396 64.5652 26.715 63.918 26.715H26.0693V23.7831H68.6562V53.2808Z" fill="white"/>
<path d="M54.2435 43.3938C53.0241 43.3938 51.8821 43.732 50.9064 44.3195C49.9011 43.7117 48.7596 43.3938 47.563 43.3938C43.9852 43.3938 41.0742 46.3046 41.0742 49.8826C41.0742 53.4604 43.985 56.3714 47.563 56.3714C48.7596 56.3714 49.9011 56.0534 50.9064 55.4457C51.8821 56.0332 53.0241 56.3714 54.2435 56.3714C57.8214 56.3714 60.7323 53.4606 60.7323 49.8826C60.7323 46.3046 57.8214 43.3938 54.2435 43.3938ZM49.0419 53.7573C48.5755 53.9355 48.0772 54.0273 47.563 54.0273C45.2774 54.0274 43.418 52.168 43.418 49.8825C43.418 47.597 45.2774 45.7374 47.563 45.7374C48.0773 45.7374 48.5755 45.8293 49.0419 46.0074C48.2338 47.0894 47.7547 48.4311 47.7547 49.8824C47.7547 51.3336 48.2337 52.6754 49.0419 53.7573ZM54.2435 54.0274C51.958 54.0274 50.0985 52.168 50.0985 49.8824C50.0985 47.5968 51.9579 45.7373 54.2435 45.7373C56.5291 45.7373 58.3885 47.5967 58.3885 49.8824C58.3885 52.168 56.529 54.0274 54.2435 54.0274Z" fill="white"/>
</svg>
