<svg width="60" height="60" viewBox="0 0 60 60" fill="none" xmlns="http://www.w3.org/2000/svg">
<path d="M7.81125 33.75H0.2325H0V52.5L5.55375 47.3962C10.995 55.0238 19.9163 60 30 60C45.3 60 57.9225 48.5475 59.7675 33.75H52.1888C50.4038 44.3925 41.1488 52.5 30 52.5C22.1025 52.5 15.15 48.4275 11.1375 42.2662L20.4038 33.75H7.81125Z" fill="#E0DEDE"/>
<path d="M29.9999 0C14.6999 0 2.07742 11.4525 0.232422 26.25H7.81117C9.59617 15.6075 18.8512 7.5 29.9999 7.5C38.1337 7.5 45.2624 11.8162 49.2149 18.285L41.2499 26.25H48.7499H52.1887H59.7674H59.9999V7.5L54.6299 12.87C49.2112 5.08875 40.1999 0 29.9999 0Z" fill="#E0DEDE"/>
</svg>
