<svg width="86" height="86" viewBox="0 0 86 86" fill="none" xmlns="http://www.w3.org/2000/svg">
<circle cx="43" cy="43" r="43" fill="#E51010"/>
<path d="M48.9159 33.1635H45.8657V30.6782C45.8657 27.0184 42.8881 24.0409 39.2284 24.0409C38.2358 24.0409 37.2934 24.2599 36.4469 24.6522C35.6004 24.2599 34.658 24.0409 33.6654 24.0409C30.0057 24.0409 27.0282 27.0184 27.0282 30.6782V33.1635H23.3594C22.7661 33.1635 22.2852 33.6444 22.2852 34.2377V60.2083C22.2852 60.8015 22.7661 61.2826 23.3594 61.2826H48.9159C49.5091 61.2826 49.9901 60.8015 49.9901 60.2083V34.2377C49.9901 33.6444 49.5092 33.1635 48.9159 33.1635ZM34.7396 30.6782C34.7396 29.2527 35.4076 27.9803 36.4469 27.1574C37.4862 27.9803 38.1542 29.2527 38.1542 30.6782V33.1635H34.7396V30.6782ZM29.1766 30.6782C29.1766 28.2031 31.1903 26.1893 33.6654 26.1893C33.8817 26.1893 34.0943 26.2048 34.3024 26.2344C33.2394 27.4118 32.5912 28.9707 32.5912 30.6782V33.1635H29.1766V30.6782ZM24.4336 46.2852H29.185V46.8223C29.185 47.4155 29.666 47.8965 30.2592 47.8965C30.8524 47.8965 31.3334 47.4156 31.3334 46.8223V43.9123L37.595 48.0039L31.3334 52.0955V50.7969C31.3334 50.2037 30.8524 49.7227 30.2592 49.7227H24.4336V46.2852ZM43.7172 59.134H24.4336V51.8711H29.185V54.0806C29.185 54.475 29.4011 54.8377 29.748 55.0253C29.9078 55.1119 30.0837 55.1548 30.2591 55.1548C30.4643 55.1548 30.6688 55.0961 30.8468 54.9798L40.1464 48.9031C40.4501 48.7047 40.633 48.3666 40.633 48.0039C40.633 47.6413 40.4501 47.3031 40.1464 47.1047L30.8468 41.0279C30.5168 40.8121 30.0948 40.7945 29.748 40.9824C29.4011 41.1701 29.185 41.5327 29.185 41.9272V44.1366H24.4336V35.3118H27.0282V38.6982C27.0282 39.2914 27.5092 39.7724 28.1024 39.7724C28.6956 39.7724 29.1766 39.2914 29.1766 38.6982V35.3118H38.1542V38.6982C38.1542 39.2914 38.6352 39.7724 39.2284 39.7724C39.8216 39.7724 40.3026 39.2914 40.3026 38.6982V35.3118H43.7172V59.134ZM43.7173 33.1635H40.3027V30.6782C40.3027 28.9707 39.6546 27.4118 38.5915 26.2344C38.7995 26.2048 39.0122 26.1893 39.2285 26.1893C41.7036 26.1893 43.7173 28.2031 43.7173 30.6782V33.1635ZM47.8417 59.134H45.8657V35.3119H47.8417V59.134Z" fill="white"/>
<path fill-rule="evenodd" clip-rule="evenodd" d="M60.0094 28.4491H63.0596C63.6529 28.4491 64.1338 28.9301 64.1338 29.5233V55.494C64.1338 56.0872 63.6528 56.5682 63.0596 56.5682H49.2957V54.4197H57.8609V30.5975H54.4463V33.9838C54.4463 34.577 53.9653 35.058 53.3721 35.058C52.7789 35.058 52.2979 34.577 52.2979 33.9838V30.5975H45.7545L45.0725 30.1428L44.508 28.4491H46.7349V25.9638C46.7349 24.2563 47.3831 22.6974 48.4462 21.5201C48.238 21.4904 48.0254 21.475 47.8092 21.475C45.334 21.475 43.3203 23.4887 43.3203 25.9638V27.3024L41.1719 26.2282V25.9638C41.1719 22.3041 44.1494 19.3265 47.8092 19.3265C48.8017 19.3265 49.7441 19.5456 50.5906 19.9379C51.4371 19.5456 52.3795 19.3265 53.3721 19.3265C57.0319 19.3265 60.0094 22.3041 60.0094 25.9638V28.4491ZM50.5906 22.4431C49.5513 23.2659 48.8834 24.5383 48.8834 25.9638V28.4491H52.2979V25.9638C52.2979 24.5383 51.6299 23.2659 50.5906 22.4431ZM54.4464 28.4491H57.861V25.9638C57.861 23.4887 55.8473 21.475 53.3722 21.475C53.156 21.475 52.9433 21.4904 52.7352 21.5201C53.7983 22.6974 54.4464 24.2563 54.4464 25.9638V28.4491ZM60.0094 54.4197H61.9854V30.5976H60.0094V54.4197Z" fill="white"/>
</svg>
