<svg width="30" height="30" viewBox="0 0 30 30" fill="none" xmlns="http://www.w3.org/2000/svg">
<path d="M17.9546 9.36188H16.2908V8.00626C16.2908 6.01003 14.6667 4.38593 12.6705 4.38593C12.1291 4.38593 11.615 4.5054 11.1533 4.71938C10.6916 4.5054 10.1775 4.38593 9.63613 4.38593C7.6399 4.38593 6.0158 6.01003 6.0158 8.00626V9.36188H4.01465C3.69104 9.36188 3.42871 9.62421 3.42871 9.94782V24.1136C3.42871 24.4372 3.69104 24.6996 4.01465 24.6996H17.9546C18.2781 24.6996 18.5405 24.4372 18.5405 24.1136V9.94782C18.5405 9.62421 18.2782 9.36188 17.9546 9.36188ZM10.2221 8.00626C10.2221 7.22872 10.5864 6.53468 11.1533 6.08585C11.7202 6.53468 12.0845 7.22872 12.0845 8.00626V9.36188H10.2221V8.00626ZM7.18768 8.00626C7.18768 6.6562 8.28607 5.5578 9.63613 5.5578C9.75408 5.5578 9.87004 5.56624 9.98359 5.58241C9.40375 6.2246 9.0502 7.07491 9.0502 8.00626V9.36188H7.18768V8.00626ZM4.60059 16.5192H7.19225V16.8121C7.19225 17.1357 7.45463 17.3981 7.77818 17.3981C8.10174 17.3981 8.36412 17.1357 8.36412 16.8121V15.2249L11.7795 17.4567L8.36412 19.6884V18.9801C8.36412 18.6566 8.10174 18.3942 7.77818 18.3942H4.60059V16.5192ZM15.1189 23.5276H4.60059V19.566H7.19225V20.7712C7.19225 20.9864 7.31014 21.1842 7.49934 21.2865C7.58652 21.3338 7.68244 21.3571 7.77812 21.3571C7.89004 21.3571 8.0016 21.3251 8.09869 21.2617L13.1712 17.9472C13.3369 17.8389 13.4366 17.6545 13.4366 17.4567C13.4366 17.2589 13.3369 17.0744 13.1712 16.9662L8.09869 13.6516C7.91869 13.5339 7.68853 13.5243 7.49934 13.6267C7.31014 13.7291 7.19225 13.9269 7.19225 14.1421V15.3472H4.60059V10.5337H6.0158V12.3808C6.0158 12.7044 6.27818 12.9667 6.60174 12.9667C6.92529 12.9667 7.18768 12.7044 7.18768 12.3808V10.5337H12.0845V12.3808C12.0845 12.7044 12.3469 12.9667 12.6705 12.9667C12.994 12.9667 13.2564 12.7044 13.2564 12.3808V10.5337H15.1189V23.5276ZM15.119 9.36188H13.2565V8.00626C13.2565 7.07491 12.903 6.2246 12.3231 5.58241C12.4366 5.56624 12.5526 5.5578 12.6705 5.5578C14.0206 5.5578 15.119 6.6562 15.119 8.00626V9.36188ZM17.3686 23.5276H16.2908V10.5338H17.3686V23.5276Z" fill="#E51010"/>
<path fill-rule="evenodd" clip-rule="evenodd" d="M24.005 6.79044H25.6688C25.9924 6.79044 26.2547 7.05276 26.2547 7.37638V21.5422C26.2547 21.8657 25.9923 22.1281 25.6688 22.1281H18.1607V20.9562H22.8331V7.96226H20.9706V9.80937C20.9706 10.1329 20.7082 10.3953 20.3846 10.3953C20.0611 10.3953 19.7987 10.1329 19.7987 9.80937V7.96226H16.2292L15.8572 7.71427L15.5492 6.79044H16.7644V5.43482C16.7644 4.50347 17.1179 3.65316 17.6978 3.01097C17.5842 2.9948 17.4683 2.98636 17.3503 2.98636C16.0003 2.98636 14.9019 4.08476 14.9019 5.43482V6.16518L13.73 5.57925V5.43482C13.73 3.43859 15.3541 1.81448 17.3503 1.81448C17.8917 1.81448 18.4058 1.93396 18.8675 2.14794C19.3292 1.93396 19.8432 1.81448 20.3846 1.81448C22.3809 1.81448 24.005 3.43859 24.005 5.43482V6.79044ZM18.8675 3.51441C18.3006 3.96323 17.9363 4.65728 17.9363 5.43482V6.79044H19.7987V5.43482C19.7987 4.65728 19.4344 3.96323 18.8675 3.51441ZM20.9706 6.79044H22.8332V5.43482C22.8332 4.08476 21.7348 2.98636 20.3847 2.98636C20.2668 2.98636 20.1507 2.9948 20.0372 3.01097C20.6171 3.65316 20.9706 4.50347 20.9706 5.43482V6.79044ZM24.005 20.9562H25.0828V7.96232H24.005V20.9562Z" fill="#E51010"/>
</svg>
