<svg width="120" height="120" viewBox="0 0 120 120" fill="none" xmlns="http://www.w3.org/2000/svg">
<path d="M60 0C26.9166 0 0 26.9166 0 60C0 93.0834 26.9166 120 60 120C93.0834 120 120 93.0834 120 60C120 26.9166 93.0834 0 60 0ZM60 115C29.6728 115 4.99992 90.3272 4.99992 60C4.99992 29.6728 29.6728 4.99992 60 4.99992C90.3272 4.99992 115 29.6728 115 60C115 90.3272 90.3272 115 60 115Z" fill="black"/>
<path d="M40.0004 49.9998C42.7618 49.9998 45.0003 47.7613 45.0003 44.9999C45.0003 42.2385 42.7618 40 40.0004 40C37.239 40 35.0005 42.2385 35.0005 44.9999C35.0005 47.7613 37.239 49.9998 40.0004 49.9998Z" fill="black"/>
<path d="M79.9999 49.9998C82.7613 49.9998 84.9998 47.7613 84.9998 44.9999C84.9998 42.2385 82.7613 40 79.9999 40C77.2385 40 75 42.2385 75 44.9999C75 47.7613 77.2385 49.9998 79.9999 49.9998Z" fill="black"/>
<path d="M60.0003 75H59.993C38.9895 75 30.8377 85.5518 30.5009 86.0011C29.6757 87.0998 29.8979 88.65 30.9917 89.4825C32.0855 90.3127 33.6528 90.1001 34.4902 89.0137C34.7733 88.6451 41.663 80.0002 59.9932 80.0002H60.0003C78.3352 80.0025 85.2272 88.6477 85.5007 89.0016C85.9915 89.6559 86.7411 90 87.5028 90C88.0252 90 88.5502 89.8364 89.0018 89.4996C90.1053 88.672 90.33 87.1045 89.4999 85.9985C89.1629 85.5518 81.0085 75.0023 60.0003 75Z" fill="black"/>
</svg>
