<svg width="90" height="40" viewBox="0 0 90 40" fill="none" xmlns="http://www.w3.org/2000/svg">
<path d="M49.4133 27.1373C49.4091 27.1266 49.4048 27.1159 49.4003 27.1054C48.4116 24.7919 46.0928 23.9368 43.3486 24.874L35.8647 26.9436C35.432 25.6333 34.3528 24.5183 32.8267 23.9519C32.8173 23.9485 32.8078 23.945 32.7983 23.9418L24.5718 21.1497C23.8871 20.2647 21.7423 18 17.7265 18C14.9201 18 12.4375 19.9252 11.0172 22.0237H1.07422C0.480928 22.0237 0 22.5046 0 23.0979V36.6413C0 37.2346 0.480928 37.7156 1.07422 37.7156H7.4612C8.05449 37.7156 8.53542 37.2346 8.53542 36.6413V35.7139H11.5307C12.124 35.7139 12.6049 35.2329 12.6049 34.6396V34.3305C14.3509 34.4828 14.9252 34.814 16.5288 35.7387C17.762 36.4498 19.6259 37.5246 22.9824 39.0337C22.9979 39.0407 23.0137 39.0474 23.0295 39.0536C23.6737 39.307 24.933 39.7051 26.4856 39.7051C27.5663 39.7051 28.7893 39.5121 30.0446 38.9431L46.5866 33.0203C46.616 33.0097 46.6451 32.9979 46.6734 32.9848C48.2543 32.2575 50.6102 30.2075 49.4133 27.1373ZM6.38698 35.567H2.14844V24.172H6.38698V35.567ZM10.4564 33.5653H8.53542V24.172H10.4564V33.5653ZM45.815 31.0144L29.2804 36.9345C29.2659 36.9397 29.2462 36.9474 29.232 36.9532C29.2175 36.9591 29.203 36.9653 29.1887 36.9719C26.8859 38.0302 24.6969 37.3966 23.8391 37.0631C20.5969 35.6042 18.8664 34.6063 17.602 33.8773C15.8442 32.8636 14.9972 32.3751 12.6049 32.1775V23.5256C13.6231 21.8567 15.5978 20.1483 17.7267 20.1483C21.3775 20.1483 22.9245 22.5229 22.9853 22.6187C23.1164 22.8321 23.3181 22.9929 23.5551 23.0733L32.0925 25.9709C33.456 26.4827 34.1766 27.6504 33.8454 28.8148C33.6926 29.3526 33.3393 29.7986 32.851 30.0707C32.3669 30.3404 31.8072 30.4071 31.2737 30.2595L21.6495 27.2096C21.0836 27.0303 20.4801 27.3436 20.3009 27.9091C20.1216 28.4747 20.4349 29.0784 21.0004 29.2577L30.6414 32.3129C30.6516 32.3161 30.6619 32.3192 30.6722 32.3221C31.0571 32.4316 31.4489 32.4857 31.8384 32.4857C32.5515 32.4857 33.2567 32.3041 33.8968 31.9474C34.8864 31.396 35.6021 30.4922 35.9119 29.4024C35.9366 29.3154 35.9585 29.2284 35.9775 29.1414L44.0431 26.907C45.208 26.5091 46.7371 26.3657 47.4179 27.9337C48.1226 29.7746 46.2911 30.7873 45.815 31.0144Z" fill="black"/>
<path d="M73.5709 14.1306C73.5569 14.0618 73.5365 13.9941 73.5086 13.9286C73.4817 13.8642 73.4495 13.8019 73.4098 13.7438C73.3711 13.6848 73.326 13.63 73.2766 13.5806C73.2271 13.5312 73.1724 13.486 73.1133 13.4474C73.0553 13.4087 72.993 13.3754 72.9285 13.3485C72.863 13.3217 72.7953 13.3002 72.7276 13.2873C72.5891 13.2594 72.4462 13.2594 72.3076 13.2873C72.2389 13.3002 72.1712 13.3217 72.1067 13.3485C72.0412 13.3754 71.9789 13.4087 71.9209 13.4474C71.8618 13.486 71.807 13.5312 71.7576 13.5806C71.7082 13.63 71.6631 13.6848 71.6244 13.7438C71.5857 13.8019 71.5524 13.8642 71.5256 13.9286C71.4987 13.9941 71.4772 14.0618 71.4644 14.1306C71.4504 14.1993 71.4429 14.2702 71.4429 14.34C71.4429 14.4099 71.4504 14.4808 71.4644 14.5495C71.4772 14.6183 71.4987 14.6859 71.5256 14.7504C71.5524 14.8159 71.5857 14.8782 71.6244 14.9362C71.6631 14.9953 71.7082 15.0501 71.7576 15.0995C71.807 15.1489 71.8618 15.194 71.9209 15.2327C71.9789 15.2714 72.0412 15.3047 72.1067 15.3315C72.1712 15.3584 72.2389 15.3788 72.3076 15.3928C72.3764 15.4067 72.4473 15.4143 72.5171 15.4143C72.5869 15.4143 72.6578 15.4067 72.7276 15.3928C72.7953 15.3788 72.863 15.3584 72.9285 15.3315C72.993 15.3047 73.0553 15.2714 73.1133 15.2327C73.1724 15.194 73.2271 15.1489 73.2766 15.0995C73.326 15.0501 73.3711 14.9953 73.4098 14.9362C73.4495 14.8782 73.4817 14.8159 73.5086 14.7504C73.5365 14.6859 73.5569 14.6183 73.5709 14.5495C73.5849 14.4808 73.5913 14.4099 73.5913 14.34C73.5913 14.2702 73.5849 14.1993 73.5709 14.1306Z" fill="#5AB206"/>
<path d="M88.9258 3.64058H82.5388C81.9455 3.64058 81.4646 4.12151 81.4646 4.7148V5.64228H78.4694C77.8761 5.64228 77.3951 6.12321 77.3951 6.7165V7.02566C75.6491 6.87323 75.0748 6.54215 73.4713 5.61746C72.2381 4.90633 70.3743 3.83157 67.0176 2.3224C67.0021 2.31532 66.9864 2.30876 66.9704 2.30253C65.8778 1.87263 63.0142 1.02679 59.9558 2.41285L55.6332 3.96059L51.9895 0.317053C51.5701 -0.102429 50.8899 -0.102429 50.4704 0.317053L38.5081 12.2792C38.1212 12.6663 38.0469 13.3373 38.5081 13.7985L58.9491 34.2395C59.2762 34.5667 60.0421 34.6656 60.4683 34.2395L71.3894 23.3185C71.6733 23.343 71.968 23.3563 72.2734 23.3563C75.0799 23.3563 77.5624 21.431 78.9826 19.3327H88.9258C89.5191 19.3327 90 18.8517 90 18.2584V4.7148C90 4.12151 89.5191 3.64058 88.9258 3.64058ZM51.2299 2.59579L53.6782 5.04415C52.9504 5.49425 52.109 5.73509 51.2299 5.73509C50.3506 5.73509 49.5093 5.49436 48.7815 5.04415L51.2299 2.59579ZM43.2353 15.4873L40.7869 13.0388L43.2353 10.5905C43.6854 11.3182 43.9262 12.1597 43.9262 13.0388C43.9262 13.918 43.6855 14.7594 43.2353 15.4873ZM59.7088 31.9606L57.2608 29.5127C58.7554 28.5904 60.6619 28.5904 62.1566 29.5127L59.7088 31.9606ZM63.7043 27.9652C61.3305 26.2432 58.087 26.2432 55.7132 27.9652L44.7829 17.0348C45.6218 15.8811 46.0747 14.4952 46.0747 13.0388C46.0747 11.5823 45.6219 10.1965 44.7829 9.04283L47.234 6.59189C48.3877 7.43075 49.7734 7.88364 51.23 7.88364C52.6865 7.88364 54.0722 7.43075 55.2259 6.59189L57.5494 8.91532C57.048 8.98933 56.5592 9.15454 56.1033 9.4086C55.3333 9.83764 54.7291 10.4801 54.3529 11.2574C53.1412 11.4818 52.0194 12.0685 51.1394 12.9484C48.752 15.3359 48.752 19.2206 51.1395 21.6082C52.3332 22.8018 53.9012 23.3988 55.4694 23.3988C57.0374 23.3988 58.6055 22.802 59.7993 21.6082C60.576 20.8315 61.1201 19.877 61.3926 18.8367L65.0196 20.0676C64.6113 21.9591 65.0295 23.949 66.1575 25.512L63.7043 27.9652ZM57.1733 17.4042C57.1827 17.4077 57.1922 17.4111 57.2018 17.4143L59.3498 18.1434C59.1876 18.8755 58.8205 19.5486 58.2802 20.089C56.7303 21.6387 54.2084 21.6389 52.6588 20.089C51.1089 18.5392 51.1089 16.0175 52.6588 14.4676C53.0326 14.0936 53.4738 13.8013 53.9545 13.6031C54.1528 15.2533 55.341 16.7242 57.1733 17.4042ZM67.7054 23.964C67.2907 23.2884 67.0561 22.5172 67.019 21.7301C67.5336 22.1021 68.1624 22.4666 68.9135 22.7559L67.7054 23.964ZM77.395 17.8302C76.3769 19.4993 74.4023 21.2076 72.2734 21.2076C71.875 21.2076 71.5018 21.1792 71.1527 21.1288C71.1513 21.1285 71.1499 21.1283 71.1486 21.1281C68.8287 20.7911 67.5807 19.4726 67.1694 18.9506C67.1475 18.9183 67.0542 18.7962 67.0403 18.7759C66.9152 18.5522 66.71 18.3724 66.4483 18.2836L57.9074 15.3848C56.5444 14.8733 55.824 13.7061 56.1542 12.5421C56.1544 12.5413 56.1546 12.5406 56.1548 12.5398C56.1551 12.539 56.1554 12.538 56.1556 12.5372C56.3091 12.0011 56.6616 11.5565 57.1489 11.285C57.6329 11.0153 58.1925 10.9484 58.7262 11.0963L68.3504 14.1461C68.9161 14.3256 69.5198 14.0122 69.699 13.4466C69.8782 12.881 69.565 12.2773 68.9995 12.098L61.3451 9.67243L61.2783 9.60561C61.2777 9.60496 61.277 9.60421 61.2763 9.60357L57.3135 5.64077L60.7196 4.42111C60.7311 4.41692 60.7453 4.41165 60.7567 4.40703C60.7596 4.40585 60.7652 4.4037 60.7679 4.40252C60.7826 4.39661 60.797 4.39038 60.8112 4.38383C63.1139 3.32551 65.3028 3.95898 66.1607 4.29263C69.4031 5.75153 71.1336 6.74937 72.398 7.47844C74.1558 8.49218 75.0028 8.98063 77.395 9.17818V17.8302ZM81.4646 17.184H79.5436V7.79072H81.4646V17.184ZM87.8516 17.184H83.613V5.78902H87.8516V17.184Z" fill="#5AB206"/>
</svg>
