<svg width="18" height="18" viewBox="0 0 18 18" fill="none" xmlns="http://www.w3.org/2000/svg">
<path d="M17.3808 8.04368C17.7933 8.51613 17.9996 9.07483 17.9996 9.7199C17.9996 10.3049 17.7856 10.8111 17.359 11.2388C16.9315 11.6665 16.4253 11.8802 15.8403 11.8802H12.7242C12.7542 11.9852 12.7842 12.0752 12.8141 12.1501C12.8438 12.2251 12.8855 12.3077 12.9378 12.3977C12.9901 12.4878 13.0277 12.5553 13.0502 12.6002C13.1851 12.8551 13.2884 13.0652 13.3598 13.2301C13.431 13.3952 13.5018 13.6202 13.5733 13.9052C13.6447 14.19 13.6801 14.4751 13.6801 14.7601C13.6801 14.9401 13.678 15.0864 13.6744 15.1989C13.6709 15.3114 13.6518 15.4802 13.6184 15.7052C13.5844 15.9301 13.5393 16.1176 13.4832 16.2676C13.4269 16.4175 13.3368 16.5864 13.2133 16.7738C13.0895 16.9615 12.9395 17.1132 12.7631 17.2295C12.5867 17.3457 12.3618 17.4432 12.0881 17.5219C11.8141 17.6007 11.5049 17.64 11.1597 17.64C10.9647 17.64 10.7961 17.5687 10.6535 17.4262C10.5035 17.2762 10.3758 17.0888 10.2709 16.8638C10.1658 16.6388 10.0927 16.4438 10.0514 16.2787C10.0101 16.1138 9.96319 15.885 9.9109 15.5925C9.84317 15.2774 9.79277 15.0507 9.7588 14.9119C9.72511 14.7732 9.65931 14.5913 9.56191 14.3664C9.4643 14.1413 9.34818 13.9614 9.21315 13.8263C8.96569 13.5789 8.58699 13.1288 8.07687 12.4764C7.70928 11.9965 7.33057 11.5427 6.9406 11.1152C6.55054 10.6876 6.26558 10.4664 6.08562 10.4514C5.89826 10.4364 5.73698 10.3595 5.60195 10.2207C5.46691 10.082 5.39941 9.91881 5.39941 9.73137V2.52016C5.39941 2.32516 5.47062 2.15836 5.61314 2.01962C5.75558 1.88072 5.92435 1.80763 6.11935 1.80011C6.38182 1.79258 6.97433 1.62775 7.89688 1.30496C8.47429 1.11027 8.92609 0.961918 9.25235 0.860809C9.57853 0.759701 10.0345 0.650867 10.619 0.53447C11.2041 0.41827 11.744 0.359991 12.2389 0.359991H12.4302H13.2852H13.6902C14.6879 0.374966 15.4263 0.667574 15.9065 1.23742C16.3413 1.75499 16.525 2.43375 16.4577 3.27375C16.7502 3.55123 16.9528 3.90357 17.0652 4.33118C17.1925 4.78842 17.1925 5.22721 17.0652 5.64713C17.4101 6.10465 17.5714 6.61839 17.5487 7.1884C17.5497 7.42864 17.4936 7.71356 17.3808 8.04368Z" fill="#C4C4C4"/>
<path d="M3.96003 10.4399H0.720135C0.52501 10.4399 0.356245 10.3687 0.213763 10.2261C0.0712806 10.0837 0 9.91493 0 9.71992V2.51967C0 2.32493 0.0712806 2.15609 0.213802 2.01345C0.356403 1.87116 0.525167 1.79984 0.720174 1.79984H3.96003C4.155 1.79984 4.32369 1.87116 4.46625 2.01345C4.60873 2.15609 4.67997 2.32489 4.67997 2.51967V9.71992C4.67997 9.91493 4.60869 10.0837 4.46625 10.2261C4.32373 10.3687 4.15504 10.4399 3.96003 10.4399ZM2.66622 3.44805C2.52374 3.30931 2.35502 3.23996 2.16001 3.23996C1.95748 3.23996 1.78682 3.30931 1.64816 3.44805C1.50942 3.58679 1.44007 3.75736 1.44007 3.9599C1.44007 4.15487 1.50938 4.32367 1.64816 4.46611C1.78686 4.60863 1.95748 4.68 2.16001 4.68C2.35502 4.68 2.52374 4.60863 2.66622 4.46611C2.80875 4.32371 2.88003 4.15491 2.88003 3.9599C2.88003 3.75736 2.8089 3.58683 2.66622 3.44805Z" fill="#C4C4C4"/>
</svg>
