<svg width="18" height="18" viewBox="0 0 18 18" fill="none" xmlns="http://www.w3.org/2000/svg">
<path d="M14.421 12.7238C13.7348 12.7238 13.1205 12.993 12.6525 13.4175L6.20775 9.66899C6.25426 9.46125 6.29025 9.252 6.29025 9.03599C6.29025 8.81998 6.25351 8.61148 6.20775 8.40298L12.5798 4.68972C13.0658 5.13972 13.7085 5.42096 14.421 5.42096C15.9233 5.42096 17.1338 4.2127 17.1338 2.71046C17.1338 1.21124 15.9225 0 14.421 0C12.9218 0 11.7105 1.21124 11.7105 2.70974C11.7105 2.92873 11.7473 3.13425 11.793 3.34275L5.42098 7.059C4.93423 6.60676 4.29225 6.32625 3.57897 6.32625C2.07673 6.32625 0.866211 7.53677 0.866211 9.03599C0.866211 10.5352 2.07673 11.7465 3.57897 11.7465C4.29146 11.7465 4.93423 11.4652 5.42023 11.0152L11.8537 14.772C11.8095 14.9633 11.7817 15.1628 11.7817 15.3615C11.7817 16.8165 12.9675 18 14.4202 18C15.8745 18 17.061 16.8173 17.061 15.3615C17.061 13.9058 15.8753 12.7238 14.421 12.7238Z" fill="#C4C4C4"/>
</svg>
