<svg width="20" height="20" viewBox="0 0 20 20" fill="none" xmlns="http://www.w3.org/2000/svg">
<g clip-path="url(#clip0)">
<path d="M20.0002 8.20831C20.0002 4.3757 16.2821 1.25769 11.7121 1.25769C7.14193 1.25769 3.42383 4.37573 3.42383 8.20831C3.42383 12.0409 7.14193 15.1589 11.7121 15.1589C12.0963 15.1589 12.4819 15.1367 12.861 15.0928C14.6212 16.211 15.9207 16.8231 16.7261 16.9125C16.7541 16.9156 16.7823 16.9171 16.8099 16.9171C17.0686 16.9171 17.308 16.7882 17.4506 16.572C17.61 16.3302 17.6204 16.0234 17.4784 15.7729C17.4718 15.761 16.8503 14.627 17.0296 13.5438C18.9205 12.2205 20.0002 10.2867 20.0002 8.20831ZM9.46115 9.25805C8.78301 9.25805 8.23344 8.70834 8.23344 8.03031C8.23344 7.35223 8.78301 6.80256 9.46115 6.80256C10.1392 6.80256 10.689 7.35227 10.689 8.03031C10.689 8.70834 10.1392 9.25805 9.46115 9.25805ZM13.9631 9.25805C13.2849 9.25805 12.7352 8.70834 12.7352 8.03031C12.7352 7.35223 13.2849 6.80256 13.9631 6.80256C14.6411 6.80256 15.1909 7.35227 15.1909 8.03031C15.1909 8.70834 14.6411 9.25805 13.9631 9.25805Z" fill="#C4C4C4"/>
<path d="M5.17461 13.7693C4.35222 13.0883 3.70395 12.2912 3.24807 11.4003C2.76739 10.4609 2.52369 9.4616 2.52369 8.43022C2.52369 7.39881 2.76742 6.39956 3.24807 5.46018C3.28487 5.38828 3.3234 5.31727 3.36265 5.24658C1.33268 6.40959 0 8.35064 0 10.5449C0 12.5162 1.06193 14.344 2.91712 15.5735C3.25977 16.9205 2.46464 18.3456 2.45624 18.3602C2.40886 18.4438 2.41235 18.5469 2.46523 18.6271C2.51288 18.6994 2.59333 18.7422 2.67873 18.7422C2.68817 18.7422 2.69758 18.7416 2.70712 18.7406C3.63529 18.6375 5.26977 17.6941 6.50801 16.8987C6.92503 16.9553 7.35134 16.9839 7.77667 16.9839C9.40333 16.9839 10.9146 16.568 12.1644 15.8582C11.8852 15.8805 11.604 15.8924 11.3236 15.8924C9.01196 15.8924 6.82824 15.1384 5.17461 13.7693Z" fill="#C4C4C4"/>
</g>
<defs>
<clipPath id="clip0">
<rect width="20" height="20" fill="white"/>
</clipPath>
</defs>
</svg>
