<svg width="18" height="18" viewBox="0 0 18 18" fill="none" xmlns="http://www.w3.org/2000/svg">
<path d="M17.3808 9.95632C17.7933 9.48387 17.9996 8.92517 17.9996 8.2801C17.9996 7.69511 17.7856 7.18894 17.359 6.76122C16.9315 6.33353 16.4253 6.11981 15.8403 6.11981H12.7242C12.7542 6.01484 12.7842 5.92484 12.8141 5.84986C12.8438 5.77487 12.8855 5.69228 12.9378 5.60228C12.9901 5.51225 13.0277 5.44471 13.0502 5.39979C13.1851 5.14493 13.2884 4.93479 13.3598 4.76993C13.431 4.60475 13.5018 4.37984 13.5733 4.09483C13.6447 3.80998 13.6801 3.52486 13.6801 3.23986C13.6801 3.05994 13.678 2.91356 13.6744 2.80114C13.6709 2.68864 13.6518 2.51984 13.6184 2.29481C13.5844 2.06989 13.5393 1.88237 13.4832 1.73244C13.4269 1.58247 13.3368 1.41359 13.2133 1.22623C13.0895 1.03851 12.9395 0.886847 12.7631 0.770529C12.5867 0.654289 12.3618 0.556805 12.0881 0.478117C11.8141 0.399349 11.5049 0.359985 11.1597 0.359985C10.9647 0.359985 10.7961 0.431266 10.6535 0.573788C10.5035 0.723757 10.3758 0.911238 10.2709 1.13615C10.1658 1.36118 10.0927 1.55619 10.0514 1.72125C10.0101 1.88623 9.96319 2.11505 9.9109 2.40746C9.84317 2.72261 9.79277 2.94934 9.7588 3.08808C9.72511 3.22682 9.65931 3.40866 9.56191 3.63362C9.4643 3.85873 9.34818 4.0386 9.21315 4.17368C8.96569 4.42113 8.58699 4.87116 8.07687 5.5236C7.70928 6.00353 7.33057 6.45726 6.9406 6.88479C6.55054 7.31239 6.26558 7.5336 6.08562 7.54861C5.89826 7.56359 5.73698 7.64046 5.60195 7.77928C5.46691 7.91802 5.39941 8.08119 5.39941 8.26863V15.4798C5.39941 15.6748 5.47062 15.8416 5.61314 15.9804C5.75558 16.1193 5.92435 16.1924 6.11935 16.1999C6.38182 16.2074 6.97433 16.3722 7.89688 16.695C8.47429 16.8897 8.92609 17.0381 9.25235 17.1392C9.57853 17.2403 10.0345 17.3491 10.619 17.4655C11.2041 17.5817 11.744 17.64 12.2389 17.64H12.4302H13.2852H13.6902C14.6879 17.625 15.4263 17.3324 15.9065 16.7626C16.3413 16.245 16.525 15.5662 16.4577 14.7262C16.7502 14.4488 16.9528 14.0964 17.0652 13.6688C17.1925 13.2116 17.1925 12.7728 17.0652 12.3529C17.4101 11.8954 17.5714 11.3816 17.5487 10.8116C17.5497 10.5714 17.4936 10.2864 17.3808 9.95632Z" fill="#C4C4C4"/>
<path d="M3.96003 7.56006H0.720135C0.52501 7.56006 0.356245 7.63134 0.213763 7.77386C0.0712806 7.9163 0 8.08507 0 8.28008V15.4803C0 15.6751 0.0712806 15.8439 0.213802 15.9866C0.356403 16.1288 0.525167 16.2002 0.720174 16.2002H3.96003C4.155 16.2002 4.32369 16.1288 4.46625 15.9866C4.60873 15.8439 4.67997 15.6751 4.67997 15.4803V8.28008C4.67997 8.08507 4.60869 7.91634 4.46625 7.77386C4.32373 7.6313 4.15504 7.56006 3.96003 7.56006ZM2.66622 14.552C2.52374 14.6907 2.35502 14.76 2.16001 14.76C1.95748 14.76 1.78682 14.6907 1.64816 14.552C1.50942 14.4132 1.44007 14.2426 1.44007 14.0401C1.44007 13.8451 1.50938 13.6763 1.64816 13.5339C1.78686 13.3914 1.95748 13.32 2.16001 13.32C2.35502 13.32 2.52374 13.3914 2.66622 13.5339C2.80875 13.6763 2.88003 13.8451 2.88003 14.0401C2.88003 14.2426 2.8089 14.4132 2.66622 14.552Z" fill="#C4C4C4"/>
</svg>
