<svg width="377" height="203" viewBox="0 0 377 203" fill="none" xmlns="http://www.w3.org/2000/svg">
<g clip-path="url(#clip0)">
<g opacity="0.4">
<path opacity="0.4" d="M173.394 171.08C162.478 171.105 151.541 171.311 140.646 172.254C136.532 172.624 132.509 173.393 128.382 173.709C120.149 174.339 112.063 175.517 103.822 176.06C97.1631 176.48 90.4834 176.753 83.85 177.321C77.4214 177.859 70.9538 177.704 64.5583 176.859C59.9862 176.224 55.4016 175.862 50.9051 174.84C45.867 173.696 40.4091 172.876 35.1611 172.905C27.6921 172.947 20.4247 172.952 13.2748 174.97C10.7557 175.681 7.6951 176.829 5.79322 178.335C1.43947 181.72 0.839102 190.207 5.19705 193.752C12.5275 199.699 28.1833 202.029 38.461 202.138C49.7295 202.256 60.6664 201.608 71.9475 201.225C82.4435 200.855 92.8891 200.363 103.385 200.384C124.831 200.422 146.28 200.384 167.68 199.27C187.79 198.223 207.955 198.584 228.137 198.584C248.805 198.584 269.331 198.71 289.853 200.851C298.796 201.785 307.906 202.113 316.891 202.76C324.939 203.345 332.673 202.76 340.683 202.205C347.352 201.785 353.927 200.408 360.206 198.117C365.051 196.313 373.678 190.72 375.156 186.418C379.321 174.36 316.517 174.642 306.869 174.676C296.079 174.705 285.21 174.983 274.428 174.676C269.894 174.541 265.427 173.835 260.993 173.095C256.56 172.354 252.143 172.535 247.672 172.216C229.031 170.895 210.352 171.101 191.623 171.101C185.569 171.11 179.481 171.063 173.394 171.08Z" fill="#D8D8D8"/>
</g>
<path d="M372.276 156.083C373.489 108.599 371.063 48.0017 372.276 0.504662C284.143 -1.56024 196.01 3.49899 107.898 1.43408C105.627 56.2823 108.138 102.459 108.138 155.516C196.065 157.24 284.412 161.382 372.276 156.083Z" fill="#EDEFEF"/>
<path d="M109.997 5.9466C109.103 5.27371 108.054 5.9466 107.059 5.9466C107.13 54.9114 107.336 103.88 107.407 152.845C108.641 153.329 109.305 152.71 110.304 152.706C110.22 103.842 110.186 54.7642 109.997 5.9466Z" fill="#CCCCCC"/>
<path d="M101.391 160.651C101.54 159.384 101.547 158.104 101.412 156.836C104.101 156.46 106.784 156.04 109.46 155.574C109.558 157.488 109.52 159.407 109.347 161.315L101.391 160.651Z" fill="#131313"/>
<path d="M11.6839 89.4596C10.332 91.868 9.03048 94.3044 7.77936 96.7688C6.67518 98.9473 5.96145 101.172 4.93704 103.384C4.05537 105.289 2.83784 107.489 2.98478 109.65C3.86225 125.131 2.20388 142.209 3.08554 157.69C36.6014 159.052 69.8402 158.998 103.36 157.69C101.022 126.624 104.733 92.2899 101.614 61.2911L33.8179 64.5378C31.8698 64.6303 29.842 64.7438 28.129 65.6691C25.5512 67.0569 23.9516 70.2699 22.3268 72.5787C20.3172 75.4441 18.3775 78.3613 16.5078 81.3304C14.8341 84.0023 13.2261 86.712 11.6839 89.4596Z" fill="#E51010"/>
<path d="M371.872 163.447C373.085 159.83 371.872 155.574 371.872 151.604C283.739 151.449 195.61 151.832 107.477 151.676C106.604 156.664 107.716 159.368 107.716 163.405C195.681 163.535 284.007 163.851 371.872 163.447Z" fill="#303030"/>
<path d="M371.902 3.36441C371.008 2.68732 369.958 3.36441 368.963 3.36441C369.034 52.6782 369.24 101.988 369.311 151.302C370.546 151.785 371.209 151.163 372.208 151.163C372.145 101.946 372.112 52.5226 371.902 3.36441Z" fill="#CCCCCC"/>
<path d="M-0.000732388 150.28C4.06998 149.45 8.2413 149.232 12.3762 149.632L12.7624 152.239L103.28 153.274C104.12 157.139 103.603 160.133 103.242 163.552L8.77813 164.814C6.38084 164.848 3.62669 164.747 2.14045 163.224C1.33856 162.383 1.08665 161.315 0.880933 160.28C0.271733 156.982 -0.0234799 153.634 -0.000732388 150.28Z" fill="#303030"/>
<path d="M55.556 163.527C55.8639 165.981 56.3523 168.408 57.017 170.79C57.5418 172.678 58.2135 174.575 59.536 176.051C61.3833 178.124 64.2215 178.995 66.9504 179.479C68.9281 179.838 70.9288 180.058 72.9373 180.135C74.5705 180.198 76.2583 180.156 77.7697 179.525C79.2811 178.894 80.5071 177.708 81.6742 176.539C84.5166 173.7 87.468 170.386 87.552 166.37C87.5982 164.12 86.7123 161.954 85.6123 159.986C83.1311 155.532 79.2308 151.575 74.2766 150.423C73.122 150.141 71.9275 150.062 70.7458 150.187C69.5235 150.375 68.3254 150.697 67.1729 151.146L62.0089 152.95C60.128 153.61 58.1464 154.334 56.8826 155.894C55.1865 157.942 55.2243 160.886 55.556 163.527Z" fill="#E6E6E6"/>
<path d="M90.1099 156.058C89.6935 154.607 89.0486 153.231 88.1997 151.983C86.26 149.258 83.2917 147.933 80.378 147.151C74.7229 145.629 68.7519 145.753 63.1646 147.508C59.2139 148.745 55.2548 150.965 52.9247 154.99C50.3175 159.498 50.2461 165.685 52.064 170.723C52.9327 173.175 54.256 175.441 55.9643 177.401C57.7227 179.358 59.8445 180.954 62.2115 182.099C69.0969 185.505 77.4727 184.963 83.5226 179.748C89.5725 174.533 92.6836 164.435 90.1099 156.058ZM81.986 169.141C81.3942 170.306 80.5655 171.334 79.5531 172.158C78.5408 172.982 77.3673 173.585 76.1083 173.927C73.7487 174.621 71.2885 174.546 68.8576 174.466C67.4889 174.419 66.0867 174.369 64.8145 173.759C62.2283 172.523 60.7127 169.255 59.9612 166.034C59.3104 163.237 59.2013 159.851 60.9394 157.833C61.9974 156.605 63.5172 156.151 64.9783 155.932C69.882 155.154 74.8445 156.188 79.7189 157.223C80.9028 157.475 82.2379 157.845 82.8383 159.094C83.1489 159.897 83.2752 160.76 83.2078 161.618C83.2078 164.196 83.0734 166.9 81.986 169.141Z" fill="#303030"/>
<path d="M75.8389 161.374C74.3988 160.188 72.5599 159.944 70.8008 159.957C69.2048 159.967 67.6149 160.156 66.0608 160.52C65.6883 160.586 65.3336 160.729 65.0196 160.941C64.0707 161.651 63.991 163.3 64.3143 164.587C64.5961 165.779 65.1553 166.888 65.9462 167.823C66.7371 168.757 67.7373 169.492 68.8653 169.966C69.9263 170.342 71.0598 170.467 72.1771 170.331C73.2943 170.195 74.3651 169.803 75.3057 169.184C76.2407 168.654 76.9777 167.833 77.4049 166.845C78.1606 164.94 77.2789 162.564 75.8389 161.374Z" fill="#303030"/>
<path d="M289.319 163.195C289.627 165.648 290.115 168.076 290.78 170.458C291.305 172.346 291.976 174.243 293.299 175.719C295.146 177.792 297.984 178.663 300.713 179.146C302.691 179.506 304.692 179.725 306.7 179.802C308.333 179.865 310.021 179.823 311.533 179.193C313.044 178.562 314.27 177.376 315.437 176.207C318.279 173.368 321.231 170.054 321.315 166.038C321.361 163.788 320.475 161.622 319.375 159.654C316.894 155.2 312.989 151.243 308.04 150.09C306.885 149.809 305.69 149.729 304.509 149.855C303.294 150.045 302.103 150.366 300.957 150.814L295.793 152.618C293.912 153.278 291.93 154.002 290.667 155.562C288.949 157.61 288.983 160.554 289.319 163.195Z" fill="#E6E6E6"/>
<path d="M323.872 155.726C323.455 154.274 322.81 152.899 321.961 151.651C320.022 148.926 317.053 147.601 314.14 146.819C308.485 145.297 302.514 145.421 296.926 147.176C292.976 148.412 289.016 150.633 286.686 154.658C284.079 159.166 284.008 165.352 285.826 170.39C286.699 172.837 288.025 175.097 289.734 177.052C291.492 179.016 293.616 180.617 295.986 181.766C302.871 185.173 311.247 184.63 317.297 179.415C323.347 174.201 326.445 164.12 323.872 155.726ZM315.748 168.809C315.156 169.974 314.327 171.001 313.315 171.826C312.302 172.65 311.129 173.253 309.87 173.595C307.51 174.289 305.05 174.213 302.619 174.133C301.251 174.087 299.848 174.037 298.576 173.427C295.99 172.19 294.474 168.923 293.723 165.701C293.072 162.905 292.963 159.519 294.701 157.501C295.759 156.273 297.279 155.818 298.74 155.6C303.644 154.822 308.606 155.856 313.481 156.891C314.665 157.143 316 157.513 316.6 158.762C316.911 159.565 317.037 160.427 316.969 161.286C316.978 163.864 316.835 166.568 315.748 168.809Z" fill="#303030"/>
<path d="M309.599 161.042C308.159 159.856 306.324 159.612 304.561 159.624C302.965 159.635 301.375 159.824 299.821 160.188C299.448 160.254 299.093 160.397 298.779 160.608C297.831 161.319 297.751 162.968 298.074 164.255C298.356 165.447 298.915 166.556 299.706 167.49C300.497 168.425 301.497 169.159 302.625 169.633C303.686 170.009 304.82 170.134 305.937 169.999C307.054 169.863 308.125 169.47 309.066 168.851C310.001 168.321 310.738 167.5 311.165 166.513C311.941 164.608 311.043 162.232 309.599 161.042Z" fill="#303030"/>
<path d="M153.333 150.94C153.244 150.928 153.154 150.939 153.071 150.972C152.988 151.005 152.915 151.06 152.858 151.129C152.781 151.29 152.749 151.469 152.766 151.647V163.14C153.906 163.075 155.03 162.838 156.1 162.438C156.167 158.594 156.142 154.752 156.024 150.911L153.333 150.94Z" fill="#131313"/>
<path d="M148.471 151.058C148.383 151.046 148.293 151.057 148.209 151.09C148.126 151.123 148.053 151.177 147.997 151.247C147.92 151.408 147.888 151.587 147.905 151.764V163.258C149.045 163.193 150.168 162.956 151.238 162.556C151.305 158.712 151.28 154.869 151.163 151.028L148.471 151.058Z" fill="#131313"/>
<path d="M142.938 150.94C142.85 150.928 142.759 150.939 142.676 150.972C142.593 151.005 142.52 151.06 142.464 151.129C142.387 151.29 142.355 151.469 142.371 151.647V163.14C143.511 163.075 144.635 162.838 145.705 162.438C145.772 158.594 145.747 154.752 145.629 150.911L142.938 150.94Z" fill="#131313"/>
<path d="M343.497 151.466C343.408 151.454 343.318 151.465 343.235 151.498C343.152 151.531 343.079 151.585 343.022 151.655C342.945 151.816 342.913 151.995 342.93 152.172V163.662C344.07 163.596 345.194 163.359 346.264 162.959C346.331 159.116 346.306 155.273 346.188 151.432L343.497 151.466Z" fill="#131313"/>
<path d="M338.634 151.583C338.545 151.572 338.455 151.583 338.372 151.616C338.289 151.649 338.215 151.703 338.159 151.773C338.082 151.934 338.05 152.112 338.067 152.29V163.784C339.207 163.718 340.331 163.481 341.4 163.081C341.467 159.237 341.442 155.395 341.325 151.554L338.634 151.583Z" fill="#131313"/>
<path d="M333.1 151.466C333.012 151.454 332.922 151.465 332.838 151.498C332.755 151.531 332.682 151.585 332.626 151.655C332.549 151.816 332.517 151.995 332.534 152.172V163.662C333.674 163.596 334.797 163.359 335.867 162.959C335.934 159.116 335.909 155.273 335.792 151.432L333.1 151.466Z" fill="#131313"/>
<path d="M51.4518 52.9894C46.8335 55.0922 42.1439 57.2622 38.3359 61.0682L100.649 58.2715C100.593 49.8465 100.236 41.4355 99.5781 33.0385C94.7919 33.2235 90.2072 35.2968 85.7233 37.3449L51.4518 52.9894Z" fill="#E51010"/>
<path d="M376.596 165.52C376.957 165.23 376.982 164.679 376.978 164.234L376.844 151.617L367.905 152.87L367.443 165.697L375.613 165.739C375.956 165.777 376.302 165.7 376.596 165.52Z" fill="#8A0003"/>
<path d="M371.872 6.0265C373.085 4.19289 371.872 2.03547 371.872 0.0210281C283.739 -0.0588766 195.61 0.134577 107.477 0.0546722C106.604 2.57798 107.716 3.95318 107.716 6.00126C195.681 6.06855 284.007 6.22836 371.872 6.0265Z" fill="#303030"/>
<path opacity="0.3" d="M368.803 123.087C369.987 121.825 368.803 120.353 368.803 118.974C282.753 118.918 196.692 118.932 110.622 119.016C109.783 120.749 110.853 121.686 110.853 123.091C196.753 123.116 283.005 123.221 368.803 123.087Z" fill="#CCCCCC"/>
<path opacity="0.3" d="M102.44 122.729C102.465 121.825 102.662 120.265 102.482 118.999C69.3705 118.999 36.2591 118.999 3.14765 118.999C2.30797 120.732 3.37856 121.67 3.37856 123.074L102.423 123.137C102.44 122.999 102.44 122.864 102.44 122.729Z" fill="#CCCCCC"/>
<path opacity="0.3" d="M80.1892 119.083C80.2396 100.688 80.2885 82.2864 80.3361 63.8775H80.1934C79.7679 63.7774 79.3266 63.7645 78.8961 63.8397C78.8541 82.1981 78.8093 100.562 78.7617 118.932C79.2333 119.017 79.7103 119.067 80.1892 119.083Z" fill="#CCCCCC"/>
<path d="M69.1262 108.162C68.5038 108.297 67.9154 108.557 67.3964 108.927C67.1387 109.114 66.9284 109.359 66.7825 109.643C66.6367 109.926 66.5593 110.24 66.5568 110.559C66.5543 110.683 66.5927 110.804 66.6659 110.904C66.8002 111.021 66.9749 111.081 67.1529 111.072C68.9666 111.209 70.7859 111.306 72.6108 111.362C72.9683 111.403 73.3303 111.35 73.6604 111.206C74.3742 110.819 74.3784 109.814 74.286 109.007C74.2908 108.79 74.2495 108.574 74.1649 108.374C74.0802 108.174 73.954 107.994 73.7948 107.846C73.5511 107.713 73.274 107.653 72.9971 107.674C71.6907 107.66 70.3885 107.824 69.1262 108.162Z" fill="#303030"/>
<path d="M56.6768 71.6913C48.2212 71.8343 39.7614 72.1413 31.3184 72.7469C29.6013 72.8689 27.8169 73.0245 26.3517 73.853C24.5968 74.8581 23.5934 76.6412 22.6697 78.3487C19.5069 84.3513 16.5904 90.4549 13.9202 96.6595C13.2793 98.1482 12.6523 99.6412 12.0393 101.138C11.5817 102.257 10.0955 104.528 10.3222 105.722C10.763 108.031 16.9599 106.984 19.1179 106.984C34.2685 106.962 49.4107 106.552 64.5446 105.756C67.2568 105.613 70.7204 106.463 71.2075 103.489C71.7659 100.104 71.0941 96.1548 71.0395 92.7231C70.943 86.6882 70.9388 80.6449 70.7498 74.6142C70.6617 71.7754 69.7254 71.6072 66.8033 71.5862C63.4488 71.5694 60.0649 71.6367 56.6768 71.6913Z" fill="#EDEFEF"/>
<path d="M20.3488 96.5669C19.0893 92.5717 18.9507 88.4755 19.5385 84.371C17.5792 88.3662 15.7123 92.4007 13.9378 96.4744C13.2969 97.9632 12.6699 99.4561 12.0569 100.953C11.5993 102.072 10.1131 104.343 10.3398 105.537C10.7806 107.846 16.9775 106.799 19.1354 106.799C21.5425 106.799 23.9496 106.785 26.3567 106.757C23.9594 103.607 21.5705 100.39 20.3488 96.5669Z" fill="#D3D6D6"/>
<path d="M22.721 86.9742C22.4804 87.0874 22.2701 87.2563 22.1073 87.4668C21.9445 87.6774 21.834 87.9237 21.7848 88.1854C21.6879 88.7184 21.6751 89.2633 21.747 89.8003L22.4943 98.859C22.5011 99.5434 22.6438 100.22 22.9142 100.848C23.0489 101.153 23.2748 101.408 23.5607 101.578C23.8465 101.748 24.1781 101.825 24.5096 101.799C24.7766 101.724 25.0203 101.582 25.2179 101.387C25.4154 101.192 25.5603 100.95 25.6389 100.684C25.7994 100.139 25.8689 99.5702 25.8447 99.0019L25.916 93.6399C25.9454 91.575 25.916 89.304 24.6103 87.7522C24.1527 87.176 23.4054 86.7218 22.721 86.9742Z" fill="#303030"/>
<path d="M23.5606 87.3022C23.3227 87.4047 23.1133 87.5635 22.9502 87.7649C22.7871 87.9663 22.6753 88.2044 22.6243 88.4587C22.5278 88.9663 22.5151 89.4862 22.5865 89.9979L23.3339 98.6529C23.3411 99.3088 23.4841 99.956 23.7537 100.554C23.8963 100.849 24.1253 101.095 24.4102 101.257C24.6951 101.419 25.0226 101.491 25.3491 101.462C25.6118 101.395 25.8531 101.262 26.0506 101.076C26.2482 100.89 26.3953 100.657 26.4785 100.398C26.6381 99.8798 26.7076 99.3378 26.6842 98.7959L26.7555 93.6693C26.7849 91.697 26.7555 89.5269 25.4498 88.0382C24.9922 87.4746 24.2449 87.0541 23.5606 87.3022Z" fill="#F1F1F1"/>
<path d="M21.9434 94.1277C16.5191 94.9688 15.9984 100.911 16.3301 105.348C16.3679 105.832 17.111 105.844 17.0942 105.348C16.9347 101.016 17.0145 95.9782 22.1029 94.7123C22.4892 94.624 22.317 94.0689 21.9434 94.1277Z" fill="#131313"/>
<g opacity="0.36">
<path opacity="0.36" d="M30.2855 84.7915C30.0449 84.9047 29.8345 85.0736 29.6718 85.2842C29.509 85.4947 29.3985 85.741 29.3493 86.0027C29.2523 86.5357 29.2396 87.0806 29.3115 87.6176L30.0588 96.6763C30.0655 97.3607 30.2083 98.0369 30.4786 98.6655C30.6134 98.9701 30.8393 99.2251 31.1251 99.3954C31.4109 99.5657 31.7425 99.6428 32.074 99.6159C32.3411 99.5412 32.5848 99.3997 32.7823 99.2048C32.9799 99.0098 33.1248 98.7678 33.2034 98.5015C33.3638 97.9559 33.4333 97.3875 33.4091 96.8193L33.4805 91.4572C33.5099 89.3923 33.4805 87.1214 32.1748 85.5695C31.7214 84.9892 30.9698 84.5308 30.2855 84.7915Z" fill="#303030"/>
<path opacity="0.36" d="M31.1254 85.1153C30.8875 85.2178 30.6781 85.3766 30.515 85.578C30.3519 85.7795 30.2401 86.0176 30.1891 86.2719C30.0922 86.7808 30.0794 87.3022 30.1513 87.8153L30.8986 96.4702C30.9059 97.1261 31.0488 97.7734 31.3185 98.3711C31.4268 98.6557 31.6227 98.8983 31.8779 99.0639C32.133 99.2294 32.4342 99.3093 32.7377 99.292C33.0412 99.2747 33.3314 99.161 33.5661 98.9674C33.8008 98.7739 33.9679 98.5105 34.0432 98.2155C34.2029 97.6971 34.2725 97.1552 34.249 96.6132L34.3203 91.4867C34.3497 89.5143 34.3203 87.3443 33.0146 85.8555C32.5612 85.3088 31.8097 84.8756 31.1254 85.1153Z" fill="#F1F1F1"/>
<path opacity="0.36" d="M29.5129 91.9409C28.5356 92.0735 27.605 92.4415 26.8008 93.0133C26.8286 93.0551 26.8472 93.1024 26.8554 93.1521C26.8931 93.4002 26.9309 93.6399 26.9645 93.8838C27.743 93.2156 28.6726 92.7479 29.6725 92.5212C30.0587 92.4287 29.8866 91.8862 29.5129 91.9409Z" fill="#131313"/>
</g>
<path opacity="0.37" d="M54.1916 105.596C53.8683 102.72 53.5534 99.7631 54.305 96.9707C55.0565 94.1782 57.1263 91.5413 59.9644 91.0072C60.4905 90.9561 61.0073 90.8345 61.501 90.6456C63.0796 89.8718 62.9117 87.6344 62.8739 85.8765C62.8411 84.2295 63.1366 82.5925 63.743 81.0612C63.9022 80.6075 64.1317 80.1818 64.4231 79.7996C65.6071 78.3613 67.7818 78.4496 69.6459 78.6641C70.5864 80.5019 70.4856 82.6761 70.3807 84.741L69.4402 102.042C69.4659 102.709 69.2998 103.369 68.9616 103.943C68.4704 104.616 67.5761 104.839 66.7574 104.995C62.6163 105.772 58.3879 105.975 54.1916 105.596Z" fill="#999999"/>
<path d="M11.452 111.572C11.3802 111.509 11.2963 111.46 11.2054 111.43C11.1145 111.4 11.0185 111.388 10.923 111.396C8.57372 111.284 6.2219 111.553 3.95783 112.19C3.68993 112.244 3.44085 112.367 3.2357 112.548C3.01645 112.834 2.9023 113.188 2.91242 113.549C2.82577 114.564 2.79773 115.583 2.82846 116.602C5.83449 116.694 8.84268 116.516 11.8172 116.072C11.8721 114.683 11.792 113.291 11.5779 111.917C11.567 111.793 11.5236 111.674 11.452 111.572Z" fill="#8A0003"/>
<path opacity="0.3" d="M369.067 42.3537H110.105V47.0428H369.067V42.3537Z" fill="#CCCCCC"/>
<path d="M177.975 52.1147C178.582 52.5415 179.165 53.002 179.721 53.4941C183.281 56.9903 186.825 60.5047 190.351 64.0373C190.637 64.4111 190.871 64.8212 191.048 65.2569C190.632 65.4115 190.2 65.5201 189.759 65.5807C188.395 65.6228 187.031 65.5807 185.666 65.6018C184.234 65.6228 183.726 66.1569 183.722 67.591C183.722 70.2783 183.722 72.9614 183.722 75.6487C183.722 77.0492 183.206 77.5706 181.808 77.5791C179.009 77.5791 176.21 77.5791 173.411 77.5791C172.202 77.5791 171.664 77.0197 171.66 75.7917C171.66 73.0371 171.66 70.2783 171.66 67.5237C171.66 66.1905 171.131 65.6354 169.783 65.6102C168.184 65.5849 166.584 65.6102 164.985 65.5849C164.64 65.5221 164.308 65.4073 163.998 65.2443C164.09 64.8974 164.24 64.5688 164.443 64.2728C168.308 60.4122 172.188 56.5683 176.081 52.7413C176.365 52.5076 176.67 52.3006 176.992 52.1231L177.975 52.1147Z" fill="#E51010"/>
<path d="M177.13 116.72C176.617 116.299 176.067 115.879 175.593 115.408C171.912 111.732 168.24 108.047 164.576 104.351C164.439 104.155 164.334 103.938 164.266 103.708C164.471 103.575 164.698 103.479 164.937 103.426C166.487 103.397 168.04 103.405 169.593 103.397C171.147 103.388 171.642 102.842 171.646 101.353C171.646 98.4552 171.646 95.5618 171.646 92.6642C171.646 91.2217 172.154 90.7171 173.607 90.7171C176.311 90.7171 179.015 90.7171 181.718 90.7171C183.192 90.7171 183.713 91.2512 183.713 92.7231C183.713 95.5955 183.713 98.4678 183.713 101.34C183.713 102.842 184.258 103.388 185.745 103.397C187.084 103.397 188.423 103.397 189.763 103.397C190.111 103.46 190.447 103.575 190.762 103.737C190.618 104.015 190.446 104.277 190.25 104.52C186.611 108.195 182.958 111.862 179.292 115.521C178.825 115.94 178.334 116.332 177.822 116.695L177.13 116.72Z" fill="#E51010"/>
<path d="M144.811 83.921C145.197 83.4584 145.554 82.9621 145.978 82.5374C149.65 78.8926 153.332 75.2478 157.024 71.603C157.345 71.363 157.697 71.1664 158.069 71.0185C158.252 71.399 158.378 71.8042 158.443 72.2212C158.465 80.2762 158.465 88.3311 158.443 96.3861C158.453 96.55 158.453 96.7143 158.443 96.8781C158.355 97.5931 157.977 97.7697 157.385 97.3576C157.218 97.2316 157.062 97.0908 156.919 96.937C153.099 93.1016 149.281 89.2648 145.466 85.4265C145.232 85.1677 145.012 84.8967 144.807 84.6149C144.809 84.3878 144.811 84.1565 144.811 83.921Z" fill="#E51010"/>
<path d="M284.995 103.144V102.278C284.995 98.3921 284.995 94.5062 284.995 90.6203C284.995 90.3848 284.995 90.1493 284.995 89.9138C285.075 88.3788 285.662 87.811 287.191 87.7774C288.362 87.7774 289.538 87.7774 290.763 87.7774V91.2596C290.446 91.2945 290.126 91.3085 289.806 91.3016C289.214 91.2512 289.034 91.5035 289.042 92.0796C289.063 95.0235 289.042 97.9674 289.042 100.911C289.042 102.278 289.042 103.645 289.021 105.007C288.983 106.298 288.383 106.921 287.086 106.925C280.855 106.942 274.625 106.942 268.394 106.925C266.929 106.925 266.329 106.252 266.325 104.755C266.325 100.55 266.325 96.3693 266.325 92.1764C266.325 91.4909 266.119 91.1965 265.447 91.31C264.687 91.4404 264.532 91.0745 264.57 90.3974C264.62 89.5563 264.57 88.7152 264.57 87.8741C266.056 87.8741 267.467 87.7942 268.856 87.8994C269.881 87.9751 270.334 88.6648 270.351 89.8675C270.372 91.5498 270.351 93.232 270.351 94.8847C270.351 97.38 270.351 99.8767 270.351 102.375V103.178H275.62C275.62 100.608 275.62 98.0725 275.62 95.5366C275.62 93.0007 275.62 90.4521 275.62 87.8573H279.671V103.174L284.995 103.144Z" fill="#E51010"/>
<path d="M263.99 72.482C263.961 77.6463 260.149 82.5752 253.763 82.5752C248.124 82.5205 244.01 77.8019 244.01 72.6039C243.996 70.0193 245.004 67.5343 246.813 65.6913C248.623 63.8484 251.086 62.7972 253.666 62.7673C260.09 62.7462 263.935 67.4438 263.99 72.482ZM259.733 72.0362C259.708 71.0421 259.405 70.075 258.857 69.2452C258.31 68.4154 257.542 67.7562 256.639 67.3428C254.737 66.4176 252.751 66.3125 250.887 67.6078C248.406 69.3321 247.684 72.9067 249.237 75.7707C251.336 79.6103 256.152 79.4169 258.415 76.452C259.284 75.3081 259.725 74.017 259.733 72.0362Z" fill="#E51010"/>
<path d="M263.629 97.1473C263.705 102.131 259.989 107.241 253.385 107.241C248.162 107.241 243.838 102.724 243.813 97.202C243.807 94.6572 244.798 92.2119 246.575 90.3925C248.351 88.5732 250.769 87.5253 253.309 87.4746C259.909 87.3947 263.692 92.2857 263.629 97.1473ZM248.04 97.1473C248.082 97.6838 248.155 98.2174 248.259 98.7454C248.842 101.067 250.182 102.816 252.596 103.233C254.846 103.62 256.941 102.98 258.234 100.924C258.827 99.9977 259.204 98.9499 259.338 97.858C259.716 93.9763 257.168 91.1755 253.141 91.3731C250.198 91.5287 248.095 94.0689 248.036 97.1473H248.04Z" fill="#E51010"/>
<path d="M277.891 72.1245C280.809 74.324 281.279 77.7557 279.02 80.2117C278.447 80.8246 277.755 81.3149 276.988 81.6531C276.22 81.9914 275.392 82.1705 274.553 82.1799C272.534 82.264 270.51 82.2219 268.486 82.2009C267.424 82.2009 266.895 81.6962 266.736 80.6449C266.681 80.2731 266.654 79.8978 266.656 79.522C266.656 75.5408 266.656 71.5596 266.656 67.5783V66.6615H264.977V63.1626C265.245 63.1626 265.493 63.1205 265.745 63.1205C268.402 63.1205 271.06 63.1205 273.722 63.1457C274.401 63.1495 275.078 63.2342 275.737 63.3981C279.436 64.3527 280.775 68.4825 278.42 71.4895C278.252 71.6955 278.084 71.889 277.891 72.1245ZM270.724 74.017C270.724 75.4216 270.724 76.7758 270.724 78.13C270.747 78.2197 270.793 78.302 270.857 78.369C270.921 78.436 271.001 78.4854 271.089 78.5127C272.21 78.5579 273.332 78.5298 274.448 78.4286C275.569 78.2856 276.199 77.3562 276.17 76.1996C276.14 75.0431 275.468 74.1389 274.352 74.038C273.235 73.9371 272.001 74.017 270.724 74.017ZM270.724 66.6573C270.724 67.8938 270.724 69.0839 270.724 70.2741C270.724 70.396 270.976 70.6105 271.115 70.6147C272.004 70.663 272.895 70.663 273.785 70.6147C274.792 70.539 275.439 69.7147 275.464 68.6129C275.494 67.5826 274.952 66.7667 273.999 66.6868C272.966 66.6069 271.887 66.6784 270.728 66.6784L270.724 66.6573Z" fill="#E51010"/>
<path d="M229.743 106.883H225.671V106.042C225.671 101.416 225.671 96.7898 225.671 92.1932C225.671 91.5413 225.536 91.2554 224.831 91.2974C223.924 91.3521 223.92 91.2974 223.92 90.3722C223.92 89.6909 223.92 89.0054 223.92 88.3241C223.92 87.9414 224.046 87.7858 224.453 87.7858C229.298 87.7858 234.143 87.7858 238.984 87.8111C240.491 87.8111 241.15 88.5849 241.154 90.1661C241.154 94.195 241.154 98.2239 241.154 102.249C241.154 102.53 241.154 102.808 241.154 103.182H242.666V106.82C241.188 106.82 239.727 106.875 238.253 106.799C237.489 106.761 237.065 106.177 236.973 105.415C236.915 104.948 236.885 104.477 236.885 104.006C236.885 100.049 236.885 96.0917 236.885 92.1343C236.885 91.4825 236.691 91.2932 236.045 91.2932C234.189 91.3311 232.329 91.2932 230.474 91.2932C230.247 91.2932 230.016 91.3185 229.722 91.3395L229.743 106.883Z" fill="#E51010"/>
<path d="M237.263 70.7661C237.263 68.9367 237.263 67.1956 237.263 65.4546C237.263 63.7135 237.796 63.171 239.53 63.1331C240.656 63.1079 241.785 63.1331 242.973 63.1331V66.5943C242.904 66.619 242.832 66.6373 242.759 66.6489C241.323 66.733 241.323 66.733 241.323 68.2176C241.323 72.5745 241.323 76.9314 241.323 81.2883V82.1757H237.276V74.6058H229.756V82.1757H225.671V81.3346C225.671 76.8122 225.671 72.2899 225.671 67.7676C225.671 66.4302 225.671 66.6657 224.58 66.6489C224.395 66.6489 224.215 66.6279 223.938 66.6069C223.938 65.5471 223.937 64.5041 223.958 63.4948C223.958 63.3686 224.257 63.1457 224.42 63.1457C225.68 63.1457 226.914 63.1205 228.157 63.1752C228.516 63.173 228.863 63.3042 229.132 63.5434C229.4 63.7826 229.57 64.1129 229.61 64.4705C229.694 64.9325 229.734 65.4013 229.731 65.8709C229.731 67.49 229.731 69.1092 229.731 70.7703L237.263 70.7661Z" fill="#E51010"/>
<path d="M196.905 84.2658C196.905 80.3799 196.905 76.494 196.905 72.6082C196.881 72.4211 196.881 72.2317 196.905 72.0446C196.991 71.7937 197.095 71.5492 197.216 71.3129C197.446 71.3969 197.664 71.513 197.862 71.6577C201.271 74.9689 204.675 78.287 208.073 81.6122C208.577 82.1042 209.097 82.5836 209.584 83.0967C210.344 83.9 210.323 84.6527 209.538 85.4308C205.76 89.1737 201.981 92.9138 198.202 96.6511C197.909 96.8936 197.594 97.1089 197.262 97.2945C197.094 96.9022 196.978 96.4893 196.918 96.0665C196.888 92.7441 196.918 89.426 196.918 86.1036C196.909 85.4924 196.905 84.8798 196.905 84.2658Z" fill="#E51010"/>
<path d="M325.406 103.149V106.971C324.28 106.908 323.16 106.908 322.047 106.761C321.337 106.669 320.989 106.059 320.741 105.407C320.384 104.465 319.977 103.535 319.624 102.589C319.583 102.432 319.485 102.296 319.349 102.207C319.214 102.118 319.05 102.082 318.89 102.106C317.387 102.106 315.884 102.127 314.381 102.106C314.214 102.085 314.046 102.126 313.907 102.219C313.767 102.312 313.666 102.453 313.621 102.614C313.276 103.54 312.857 104.435 312.538 105.369C312.421 105.805 312.164 106.191 311.807 106.466C311.449 106.742 311.011 106.891 310.56 106.891C309.649 106.934 308.734 106.891 307.76 106.891V103.275C307.76 103.275 307.814 103.199 307.844 103.203C308.851 103.376 309.175 102.783 309.473 101.942C311.068 97.4248 312.731 92.9292 314.351 88.4167C314.528 87.9288 314.746 87.7101 315.296 87.7396C316.186 87.7963 317.08 87.7963 317.97 87.7396C318.562 87.6975 318.772 87.9456 318.957 88.4587C320.586 92.9922 322.248 97.509 323.873 102.042C324.117 102.795 324.343 103.456 325.406 103.149ZM316.635 93.2488L314.905 98.5603H318.357L316.635 93.2488Z" fill="#E51010"/>
<path d="M299.261 78.5295V82.1715C298.212 82.1715 297.162 82.2388 296.163 82.1504C295.369 82.0832 294.903 81.4944 294.634 80.7542C294.278 79.808 293.875 78.8828 293.518 77.9365C293.477 77.7673 293.375 77.6191 293.231 77.5205C293.088 77.4219 292.913 77.3799 292.741 77.4024C291.259 77.4277 289.777 77.4319 288.299 77.4024C288.115 77.3818 287.93 77.4307 287.78 77.5396C287.63 77.6485 287.526 77.8096 287.489 77.9912C287.149 78.9164 286.758 79.8248 286.422 80.7542C286.297 81.1889 286.029 81.5686 285.662 81.8325C285.295 82.0964 284.85 82.2291 284.399 82.2093C283.488 82.2093 282.577 82.2093 281.615 82.2093V78.643C281.674 78.6094 281.716 78.5589 281.75 78.5631C282.698 78.7145 283.009 78.1426 283.295 77.3562C284.907 72.8142 286.578 68.2933 288.203 63.7597C288.243 63.5458 288.366 63.3561 288.543 63.2306C288.721 63.1051 288.941 63.0536 289.156 63.0869C290.048 63.1353 290.942 63.1353 291.834 63.0869C292.414 63.0532 292.649 63.2761 292.838 63.8018C294.454 68.3185 296.108 72.8184 297.725 77.3309C297.985 78.0963 298.186 78.8281 299.261 78.5295ZM288.765 73.874H292.208L290.503 68.5498L288.765 73.874Z" fill="#E51010"/>
<path d="M305.433 92.9796C305.433 92.5591 305.408 92.2479 305.433 91.9283C305.483 91.4152 305.248 91.2596 304.778 91.289C304.332 91.3213 303.884 91.3213 303.438 91.289C302.868 91.2386 302.721 91.4783 302.725 92.0208C302.725 96.6847 302.725 101.349 302.725 106.013C302.725 106.29 302.725 106.568 302.725 106.883H298.673V91.3227C297.859 91.3227 297.111 91.3227 296.373 91.3227C296.238 91.3227 296.045 91.5582 296.012 91.718C295.949 91.9871 296.045 92.2984 295.965 92.5591C295.911 92.7441 295.68 92.9796 295.516 93.0007C294.601 93.0427 293.681 93.0007 292.766 93.0259C292.393 93.0259 292.279 92.8535 292.288 92.5044C292.288 91.4699 292.288 90.4311 292.317 89.3966C292.351 88.4461 292.791 87.9793 293.715 87.8279C294.018 87.7884 294.324 87.7729 294.63 87.7816H306.621C306.856 87.7816 307.091 87.7816 307.326 87.7816C308.586 87.8784 309.06 88.3115 309.144 89.5732C309.194 90.5608 309.194 91.5504 309.144 92.5381C309.117 92.6423 309.065 92.738 308.991 92.8166C308.918 92.8953 308.826 92.9542 308.724 92.9881C307.885 93.0343 307.045 93.0133 306.205 93.0133C305.966 93.0175 305.756 92.9965 305.433 92.9796Z" fill="#E51010"/>
</g>
<defs>
<clipPath id="clip0">
<rect width="377" height="203" fill="white"/>
</clipPath>
</defs>
</svg>
