<svg width="200" height="186" viewBox="0 0 200 186" fill="none" xmlns="http://www.w3.org/2000/svg">
<g clip-path="url(#clip0)">
<g opacity="0.4">
<path opacity="0.4" d="M91.7598 154.858C85.9024 154.883 80.045 155.083 74.2058 156.004C72.0006 156.366 69.8535 157.117 67.6339 157.425C63.2236 158.041 58.8895 159.191 54.4684 159.72C50.8995 160.148 47.3198 160.398 43.7655 160.942C40.3224 161.467 36.8098 161.314 33.4253 160.492C30.9663 159.872 28.5072 159.535 26.1135 158.524C23.4115 157.407 20.4919 156.609 17.6738 156.638C13.6842 156.678 9.77447 156.685 5.9445 158.654C4.5953 159.347 2.95233 160.467 1.93318 161.917C-0.402519 165.239 -0.721684 173.52 1.61402 176.979C5.54192 182.78 13.9454 185.054 19.4437 185.162C25.4824 185.278 31.3471 184.644 37.3931 184.271C43.0111 183.908 48.6182 183.429 54.2435 183.447C65.737 183.484 77.2342 183.447 88.6987 182.36C99.4778 181.337 110.286 181.689 121.105 181.689C132.185 181.689 143.185 181.812 154.185 183.901C158.98 184.811 163.858 185.13 168.693 185.764C173.005 186.334 177.151 185.764 181.445 185.224C185.2 184.745 188.787 183.378 191.909 181.236C194.505 179.477 199.13 174.017 199.924 169.822C202.154 158.06 168.493 158.342 163.322 158.368C157.54 158.397 151.716 158.669 145.934 158.368C143.504 158.237 141.111 157.563 138.739 156.823C136.367 156.084 133.995 156.276 131.601 155.967C121.609 154.68 111.599 154.88 101.56 154.88C98.2882 154.887 95.024 154.843 91.7598 154.858Z" fill="#D8D8D8"/>
</g>
<path d="M169.955 107.799C171.478 111.182 172.109 115.467 171.163 118.966C171.232 120.717 170.477 121.504 171.743 121.867C172.469 122.07 174.209 118.796 174.068 115.772C173.934 112.817 173.742 109.931 173.742 109.931C173.705 108.393 172.809 107.07 170.557 107.694L169.955 107.799Z" fill="#3C698C"/>
<path d="M66.4009 84.5501C67.7102 84.6878 69.2334 85.2426 69.7593 85.2426C69.9008 85.2426 71.8448 85.0867 73.2085 84.9743C73.8142 84.9235 76.1861 83.5639 76.9913 83.0164C77.9778 82.3456 77.9887 81.7256 78.0794 81.0693C78.2244 80.1773 77.1763 79.1984 76.5198 79.0533L73.6727 81.7038C72.7769 81.5044 72.0551 80.9243 71.3116 80.3804C69.8029 79.2926 67.4563 79.8256 65.7154 79.7785C64.6273 79.7495 60.3694 81.537 60.7865 82.0265C61.2035 82.516 62.9626 81.9105 64.1631 81.7183C65.1677 81.5588 66.905 82.1317 67.7899 82.719C67.9096 82.7988 68.1962 83.0345 68.1526 83.2049C67.9967 83.7089 66.8578 83.4152 66.234 83.4696C65.3599 83.5421 64.8703 83.9663 64.8377 84.3216C64.805 84.677 65.4687 84.4522 66.4009 84.5501Z" fill="#FFBFA4"/>
<path d="M97.564 165.855C96.6573 166.392 95.5656 166.743 94.2454 167.258C91.4745 168.346 88.7507 168.709 85.8238 168.875C85.7098 169.034 85.6398 169.221 85.6207 169.416C85.5373 170.075 88.7253 170.754 91.3367 170.253C93.8755 169.764 96.3635 169.234 96.3635 169.234C96.672 169.181 96.9638 169.056 97.2154 168.87C97.467 168.684 97.6715 168.441 97.8125 168.162C97.9535 167.882 98.0271 167.574 98.0274 167.261C98.0277 166.948 97.9547 166.639 97.8143 166.359L97.564 165.855Z" fill="#3C698C"/>
<path d="M95.7962 153.092L96.605 163.009C96.6469 163.261 96.7264 163.505 96.8407 163.734L97.791 165.63C97.9314 165.91 98.0044 166.219 98.0041 166.532C98.0038 166.845 97.9302 167.153 97.7892 167.433C97.6482 167.712 97.4437 167.955 97.1921 168.141C96.9405 168.327 96.6487 168.452 96.3402 168.505C96.3402 168.505 93.8594 169.035 91.3134 169.524C88.7057 170.025 85.5104 169.347 85.5974 168.687C85.786 167.236 87.1352 168.147 89.6233 166.91C90.4574 166.497 91.3206 166.062 92.0968 165.598C94.2729 164.303 92.4595 156.914 91.5383 154.553C91.2046 153.705 91.9227 151.783 92.8294 151.707L93.417 151.66C94.2765 151.588 95.6547 152.24 95.7962 153.092Z" fill="#FFBFA4"/>
<path d="M97.7922 165.634L96.8384 163.734C96.7237 163.505 96.6442 163.261 96.6026 163.009L96.1347 157.291C95.0894 157.97 93.83 158.238 92.5986 158.045H92.5369C93.2079 161.058 93.5633 164.731 92.0908 165.608C91.311 166.073 90.4514 166.508 89.6173 166.921C87.1292 168.157 85.78 167.233 85.5914 168.698C85.508 169.358 88.696 170.036 91.3074 169.535C93.8462 169.046 96.3342 168.516 96.3342 168.516C96.6444 168.464 96.9379 168.34 97.1912 168.154C97.4445 167.968 97.6505 167.724 97.7924 167.444C97.9343 167.163 98.0082 166.853 98.0082 166.539C98.0081 166.224 97.9342 165.914 97.7922 165.634Z" fill="#242449"/>
<path d="M158.208 108.749L166.753 108.469C167.053 108.463 167.35 108.412 167.635 108.317L169.996 107.534C170.345 107.418 170.716 107.386 171.079 107.44C171.443 107.493 171.789 107.631 172.089 107.843C172.39 108.054 172.637 108.334 172.81 108.658C172.983 108.982 173.077 109.342 173.086 109.709C173.086 109.709 173.282 112.672 173.423 115.71C173.565 118.818 171.787 122.182 171.033 121.972C169.365 121.508 171.124 120.319 170.105 117.226C169.764 116.189 169.405 115.116 168.995 114.137C167.859 111.403 161.103 112.255 158.208 112.929C157.966 112.984 157.714 112.982 157.472 112.923C157.23 112.864 157.006 112.749 156.817 112.588C156.627 112.426 156.478 112.223 156.381 111.994C156.284 111.765 156.241 111.517 156.257 111.269L156.319 110.587C156.346 110.099 156.555 109.64 156.905 109.3C157.255 108.959 157.72 108.762 158.208 108.749Z" fill="#FFBFA4"/>
<path d="M173.427 115.703C173.289 112.668 173.089 109.702 173.089 109.702C173.081 109.335 172.986 108.975 172.813 108.65C172.64 108.326 172.393 108.047 172.093 107.836C171.792 107.624 171.446 107.486 171.083 107.432C170.719 107.379 170.348 107.411 169.999 107.527L167.638 108.31C167.354 108.405 167.057 108.456 166.757 108.462L162.263 108.611C162.584 109.841 162.511 111.141 162.053 112.327C164.994 112.077 168.244 112.306 169.002 114.14C169.408 115.119 169.771 116.192 170.112 117.229C171.131 120.322 169.386 121.512 171.04 121.976C171.787 122.19 173.568 118.81 173.427 115.703Z" fill="#242449"/>
<path d="M158.048 108.049C156.412 108.071 152.847 108.1 146.594 108.067C140.203 108.034 133.113 108.089 127.248 107.541C131.042 97.3419 135.615 85.1556 136.392 78.6835C136.504 77.7589 136.08 76.8996 135.304 76.1092H101.084C95.8214 88.7995 88.2232 107.472 85.9745 114.905C83.4176 123.433 91.1319 154.822 91.1319 154.822C92.0386 155.366 93.8122 154.989 95.2375 154.691C95.6115 154.615 95.947 154.41 96.1866 154.113C96.4262 153.816 96.5549 153.445 96.5504 153.063C96.4852 147.603 96.3836 127.556 98.3639 121.482C100.036 116.334 106.51 107.759 111.058 101.903C110.598 106.923 110.646 111.976 111.203 116.986C111.424 118.774 112.328 120.407 113.725 121.545C115.121 122.682 116.904 123.237 118.7 123.092C121.053 122.912 123.386 122.531 125.674 121.954C141.52 117.965 155.143 114.655 158.896 113.749C159.232 113.668 159.529 113.472 159.737 113.197C159.944 112.921 160.05 112.582 160.035 112.237C159.973 111.185 159.801 110.142 159.52 109.126C159.429 108.809 159.234 108.531 158.968 108.336C158.701 108.141 158.378 108.04 158.048 108.049Z" fill="#242449"/>
<path d="M52.6192 172.402C53.214 169.05 50.9782 165.851 47.6253 165.256C44.2725 164.662 41.0722 166.897 40.4774 170.249C39.8826 173.601 42.1184 176.8 45.4713 177.394C48.8241 177.989 52.0244 175.754 52.6192 172.402Z" fill="#BABCBE"/>
<path d="M137.984 65.1629C136.776 56.2833 132.242 44.659 128.372 35.9172C128.546 33.5196 128.573 31.1137 128.456 28.7127C128.238 24.8948 124.873 22.3277 122.138 23.3937L102.64 27.5561C101.087 27.741 99.4336 29.0064 98.5451 31.3124C96.9057 35.5474 95.085 59.2819 93.4421 63.5204C91.7991 67.759 74.9668 79.6081 74.9668 79.6081C75.334 80.1378 75.7598 80.6243 76.2362 81.0584C76.8419 81.5624 77.9989 82.3057 77.9989 82.3057C77.9989 82.3057 92.2343 76.7655 97.8052 70.0976C98.6747 69.0341 99.4524 67.8988 100.13 66.7039L99.7855 72.0664C96.6482 74.6915 94.1565 76.6422 94.1565 76.6422C94.5237 77.1719 94.9496 77.6584 95.426 78.0925C96.0316 78.5965 97.1886 79.3398 97.1886 79.3398C97.1886 79.3398 98.1497 78.9192 99.673 78.1868C99.8747 78.6036 100.225 78.9297 100.656 79.1005C102.582 79.8257 106.771 80.9134 114.017 80.3115C123.723 79.5102 134.266 77.7408 136.867 76.0911C137.701 75.6161 138.981 72.4689 137.984 65.1629Z" fill="#4FCA30"/>
<path d="M100.065 9.84405C100.551 15.8121 107.032 21.8092 112.19 21.4466C122.283 20.7215 121.075 11.2944 119.944 4.80781C119.233 0.725162 114.391 -0.340824 109.237 0.0870205C105.179 0.42422 101.599 3.88323 100.264 7.03043C99.9054 7.87887 99.9925 8.97023 100.065 9.84405Z" fill="#534741"/>
<path d="M109.304 3.78172C113.613 3.41914 115.47 6.35966 116.028 12.0268C116.235 14.1479 115.451 16.3342 114.795 17.7411C114.55 18.2566 114.412 18.8163 114.39 19.3865C114.368 19.9567 114.461 20.5255 114.664 21.0587L115.876 24.1841C116.764 27.0847 115.488 28.8469 113.453 29.6228C112.931 29.7994 112.379 29.8679 111.829 29.8243C111.28 29.7807 110.745 29.6258 110.258 29.369C109.13 28.7635 108.919 27.2842 109.014 26.0079L109.184 25.0761C109.244 24.7766 109.243 24.4683 109.181 24.1693C109.119 23.8703 108.998 23.5868 108.824 23.3356C108.65 23.0843 108.428 22.8705 108.171 22.7067C107.913 22.5429 107.625 22.4325 107.324 22.3821C103.943 21.9325 103.182 18.5133 101.851 13.2124C100.436 7.67945 104.992 4.14067 109.304 3.78172Z" fill="#FFBFA4"/>
<path d="M99.9207 2.45104L101.593 2.66496C102.523 2.86525 103.492 2.79093 104.382 2.45104L109.202 0.616383C112.19 0.369828 117.268 1.64974 117 6.01158L116.702 9.10801C116.643 9.70928 116.387 10.2742 115.973 10.7153C115.56 11.1564 115.014 11.4491 114.417 11.5482C114.373 11.7779 114.247 11.9839 114.063 12.1284C113.879 12.2729 113.649 12.3461 113.415 12.3346C113.182 12.3232 112.96 12.2278 112.791 12.066C112.622 11.9042 112.517 11.6869 112.495 11.4539C112.438 10.7879 112.155 10.1613 111.693 9.67751C111.232 9.19372 110.619 8.88159 109.956 8.79257C108.196 8.51581 106.395 8.67772 104.712 9.26392C101.357 10.4677 98.4264 8.97386 97.7917 5.46771C97.7506 5.24532 97.7204 5.01931 97.7011 4.78968C97.5632 3.36474 98.6731 2.21536 99.9207 2.45104Z" fill="#534741"/>
<path d="M113.66 12.3277C113.769 13.6439 114.345 14.67 115.615 14.5648C116.884 14.4597 117.544 12.5815 117.428 11.269C117.312 9.95645 116.478 9.69539 115.212 9.81867C113.946 9.94195 113.551 11.0152 113.66 12.3277Z" fill="#FFBFA4"/>
<path d="M69.9031 83.1952L31.2673 76.3429C30.5415 76.2142 29.8487 76.6981 29.72 77.4236L22.8657 116.048C22.737 116.774 23.221 117.466 23.9467 117.595L62.5826 124.447C63.3083 124.576 64.0011 124.092 64.1299 123.366L70.9841 84.742C71.1129 84.0165 70.6289 83.3239 69.9031 83.1952Z" fill="#D6861D"/>
<path d="M63.2733 123.904L19.2058 116.089C18.555 115.973 17.9337 116.407 17.8183 117.058L10.8006 156.603C10.6851 157.254 11.1191 157.875 11.77 157.99L55.8374 165.806C56.4883 165.921 57.1095 165.488 57.2249 164.837L64.2427 125.291C64.3581 124.641 63.9241 124.02 63.2733 123.904Z" fill="#FDB037"/>
<path d="M57.7064 169.564C57.5982 169.564 57.4902 169.554 57.3836 169.535L15.4933 162.11C15.0124 162.024 14.5849 161.752 14.305 161.352C14.0251 160.952 13.9157 160.457 14.0009 159.976C14.086 159.495 14.3587 159.068 14.759 158.788C15.1592 158.508 15.6543 158.399 16.1353 158.484L56.2158 165.59L71.2673 80.7466C71.3508 80.2715 71.6177 79.8482 72.0106 79.568C72.4034 79.2879 72.8907 79.1734 73.3672 79.2491L88.0053 81.5552C88.2542 81.5803 88.4953 81.6559 88.714 81.7774C88.9326 81.8989 89.1242 82.0637 89.2769 82.2618C89.4296 82.4599 89.5403 82.687 89.6022 82.9293C89.6641 83.1716 89.6759 83.424 89.6369 83.671C89.5978 83.9181 89.5088 84.1545 89.3752 84.3659C89.2416 84.5774 89.0662 84.7593 88.8598 84.9007C88.6535 85.042 88.4204 85.1398 88.1749 85.188C87.9295 85.2362 87.6768 85.2338 87.4322 85.181L74.575 83.1541L59.5199 168.045C59.444 168.47 59.2206 168.856 58.889 169.133C58.5574 169.41 58.1387 169.561 57.7064 169.561V169.564Z" fill="#BABCBE"/>
<path d="M94.6 81.2723C95.297 80.5906 96.0333 79.9501 96.8051 79.3543C97.0556 79.1547 97.2215 78.868 97.2699 78.5515C97.3183 78.235 97.2456 77.9118 97.0662 77.6465C96.5585 76.8996 95.8259 76.0693 95.2528 76.4138L92.714 78.5675C91.927 79.0388 90.9985 79.1114 90.0881 79.2238C88.2348 79.4558 86.824 81.3992 85.6053 82.6248C80.8142 87.3637 88.6011 85.471 89.6529 85.2825C89.7871 85.2535 93.686 82.3057 94.6 81.2723Z" fill="#FFBFA4"/>
</g>
<defs>
<clipPath id="clip0">
<rect width="200" height="186" fill="white"/>
</clipPath>
</defs>
</svg>
