<svg width="70" height="70" viewBox="0 0 70 70" fill="none" xmlns="http://www.w3.org/2000/svg">
<g clip-path="url(#clip0)">
<path d="M24.2843 15.1564L23.4129 15.585C22.3272 16.1135 21.0558 16.185 19.9273 15.785L18.4701 15.2707C18.3844 15.2136 18.2987 15.1707 18.213 15.1421L9.24176 12.0708C8.57034 11.8422 7.8275 12.1993 7.59894 12.8708L0.070518 34.7989C-0.0437654 35.1275 -0.0151946 35.4846 0.12766 35.7846C0.270514 36.0846 0.541937 36.3274 0.870502 36.4417L9.82746 39.5131C9.97032 39.5559 10.1132 39.5845 10.2417 39.5845C10.7846 39.5845 11.2846 39.2417 11.4703 38.7131L18.5701 18.0564L19.0558 18.2278C20.8415 18.8564 22.8415 18.7421 24.5557 17.9135L25.4271 17.485C26.4986 16.9564 27.7557 16.885 28.8842 17.2707L45.3553 22.942C45.1839 23.6277 44.841 24.442 44.2125 24.8848C43.5125 25.3705 42.4697 25.3705 41.0983 24.8991L33.7556 22.3849C33.4127 22.2706 33.0413 22.2991 32.727 22.4706C32.4127 22.642 32.1842 22.942 32.0842 23.2848C32.0699 23.3277 31.0556 27.1276 27.8128 28.8704C25.77 29.9704 23.2272 30.0133 20.2415 28.999C19.5701 28.7704 18.8273 29.1276 18.5987 29.799C18.3701 30.4704 18.7273 31.2132 19.3987 31.4418C21.1129 32.0275 22.7272 32.3275 24.2272 32.3275C25.97 32.3275 27.57 31.9418 29.0271 31.1561C31.927 29.599 33.427 26.8705 34.1127 25.2419L40.2411 27.3419C42.4268 28.099 44.2553 27.9847 45.6696 26.999C47.941 25.4276 48.0553 22.242 48.0695 22.0991C48.0838 21.5277 47.7267 21.0277 47.1981 20.842L29.7128 14.8136C27.9557 14.2136 25.97 14.3422 24.2843 15.1564ZM9.45604 36.6417L2.94189 34.4132L9.61318 14.9421L16.1273 17.1707L9.45604 36.6417Z" fill="#E51010"/>
<path d="M58.5968 38.1131L55.5255 40.9416C52.7398 43.4987 49.597 45.6558 46.1971 47.3129L29.8974 55.2841C29.1832 55.6413 28.3117 55.3413 27.9546 54.6127C27.5975 53.8984 27.8975 53.027 28.626 52.6699L28.826 52.5699L37.7401 48.2128C38.383 47.8986 38.6544 47.1272 38.3401 46.4843C38.0258 45.8415 37.2544 45.57 36.6116 45.8843L27.6975 50.2414L23.2118 52.4413C22.4976 52.7985 21.6262 52.4985 21.269 51.7699C21.0976 51.4271 21.069 51.0271 21.1976 50.6699C21.3262 50.2985 21.5833 50.0128 21.9262 49.8414L25.3118 48.1843L34.9973 43.4415C35.6402 43.1272 35.9116 42.3558 35.5973 41.713C35.283 41.0701 34.5116 40.7987 33.8688 41.113L24.169 45.87L23.7976 46.0558L19.1691 48.3271C18.8262 48.4986 18.4262 48.5271 18.0691 48.3986C17.6977 48.27 17.412 48.0129 17.2405 47.67C16.8834 46.9557 17.1834 46.0843 17.912 45.7272L19.5119 44.9415L22.7833 43.3415L23.6976 42.8987L31.2117 39.213C31.8545 38.8988 32.126 38.1273 31.8117 37.4845C31.4974 36.8417 30.726 36.5702 30.0831 36.8845L21.9404 40.8701L18.3834 42.613C17.6691 42.9558 16.7977 42.6701 16.4406 41.9415C16.2691 41.5987 16.2406 41.1987 16.3691 40.8416C16.4977 40.4701 16.7548 40.1844 17.0977 40.013L23.3118 36.9702C23.9547 36.6559 24.2261 35.8845 23.9118 35.2417C23.5976 34.5988 22.8261 34.3274 22.1833 34.6417L15.9691 37.6845C14.9977 38.1559 14.2692 38.9845 13.9263 39.9987C13.5835 41.013 13.6406 42.113 14.112 43.0844C14.412 43.6844 14.8406 44.1844 15.3549 44.5558C14.4549 45.7415 14.2263 47.37 14.9263 48.7985C15.3977 49.77 16.2263 50.4985 17.2405 50.8414C17.6691 50.9842 18.0977 51.0556 18.5262 51.0556C18.5119 51.6985 18.6405 52.3413 18.9405 52.927C19.6405 54.3556 21.0833 55.1841 22.569 55.1841C23.169 55.1841 23.769 55.0556 24.3404 54.7699L25.2547 54.327C25.2975 54.8127 25.4261 55.2841 25.6404 55.7413C26.3404 57.1698 27.7832 57.9984 29.2689 57.9984C29.8689 57.9984 30.4688 57.8698 31.0403 57.5841L47.3399 49.6128C50.9684 47.8414 54.3112 45.5558 57.2826 42.8272L60.9254 39.4702L69.2681 35.3845C69.9109 35.0703 70.1823 34.2988 69.868 33.656L59.6682 12.8707C59.5111 12.5564 59.254 12.3279 58.9254 12.2136C58.5968 12.0993 58.2397 12.1279 57.9397 12.2707L49.4256 16.4278C48.7828 16.7421 48.5113 17.5135 48.8256 18.1563L58.5968 38.1131ZM57.9111 15.1707L66.9538 33.6703L60.7682 36.6988L51.7256 18.1992L57.9111 15.1707Z" fill="#0A0A0A"/>
</g>
<defs>
<clipPath id="clip0">
<rect width="70" height="70" fill="white"/>
</clipPath>
</defs>
</svg>
