<svg width="70" height="70" viewBox="0 0 70 70" fill="none" xmlns="http://www.w3.org/2000/svg">
<path d="M32.2443 28.4926H56.4701C57.186 28.4926 57.7731 27.9055 57.7731 27.1896C57.7731 26.4737 57.186 25.8867 56.4701 25.8867H32.2443C31.5284 25.8867 30.9414 26.4737 30.9414 27.1896C30.9414 27.9055 31.5284 28.4926 32.2443 28.4926Z" fill="#0A0A0A"/>
<path d="M32.2443 35.4081H49.841C50.5569 35.4081 51.1439 34.8211 51.1439 34.1052C51.1439 33.3893 50.5569 32.8022 49.841 32.8022H32.2443C31.5284 32.8022 30.9414 33.3893 30.9414 34.1052C30.9414 34.8354 31.5284 35.4081 32.2443 35.4081Z" fill="#0A0A0A"/>
<path d="M32.2443 41.7509H56.4701C57.186 41.7509 57.7731 41.1638 57.7731 40.4479C57.7731 39.7321 57.186 39.145 56.4701 39.145H32.2443C31.5284 39.145 30.9414 39.7321 30.9414 40.4479C30.9414 41.1782 31.5284 41.7509 32.2443 41.7509Z" fill="#E51010"/>
<path d="M34.5495 46.3757H32.2443C31.5284 46.3757 30.9414 46.9628 30.9414 47.6787C30.9414 48.3946 31.5284 48.9816 32.2443 48.9816H34.5495C35.2654 48.9816 35.8524 48.3946 35.8524 47.6787C35.8524 46.9628 35.2654 46.3757 34.5495 46.3757Z" fill="#E51010"/>
<path d="M34.5495 52.7185H32.2443C31.5284 52.7185 30.9414 53.3055 30.9414 54.0214C30.9414 54.7373 31.5284 55.3244 32.2443 55.3244H34.5495C35.2654 55.3244 35.8524 54.7373 35.8524 54.0214C35.8381 53.2912 35.2654 52.7185 34.5495 52.7185Z" fill="#E51010"/>
<path d="M56.4702 46.3757H39.7326C39.0167 46.3757 38.4297 46.9628 38.4297 47.6787C38.4297 48.3946 39.0167 48.9816 39.7326 48.9816H56.4702C57.1861 48.9816 57.7731 48.3946 57.7731 47.6787C57.7731 46.9628 57.1861 46.3757 56.4702 46.3757Z" fill="#E51010"/>
<path d="M51.1296 54.0068C51.1296 53.2909 50.5426 52.7039 49.8267 52.7039H39.7326C39.0167 52.7039 38.4297 53.2909 38.4297 54.0068C38.4297 54.7227 39.0167 55.3097 39.7326 55.3097H49.8267C50.5426 55.3097 51.1296 54.7227 51.1296 54.0068Z" fill="#E51010"/>
<path d="M48.6385 69.6134C49.1396 70.1145 49.9701 70.1145 50.4712 69.6134L54.8811 65.2035L59.291 69.6134C59.5487 69.8711 59.878 70 60.2073 70C60.5367 70 60.866 69.8711 61.1237 69.6134L63.7868 66.9503C64.0302 66.7069 64.1734 66.3776 64.1734 66.034V21.8061C64.1734 18.5416 61.5246 15.8928 58.2601 15.8928H48.3092V1.30292C48.3092 0.587032 47.7222 0 47.0063 0H7.13105C6.41516 0 5.82812 0.587032 5.82812 1.30292V45.5165C5.82812 48.7809 8.47693 51.4297 11.7414 51.4297H19.244C19.9599 51.4297 20.5469 50.8427 20.5469 50.1268C20.5469 49.4109 19.9599 48.8239 19.244 48.8239H16.6381C17.2824 47.8789 17.669 46.7335 17.669 45.5021V21.8061C17.669 19.9734 19.1581 18.4844 20.9907 18.4844C22.8234 18.4844 24.3125 19.9734 24.3125 21.8061V66.0196C24.3125 66.1055 24.3268 66.1915 24.3411 66.2774C24.3554 66.3346 24.3698 66.3776 24.3841 66.4349C24.3984 66.4635 24.3984 66.4921 24.4127 66.5208C24.4413 66.578 24.47 66.6353 24.4986 66.6783C24.5129 66.6926 24.5129 66.7212 24.5272 66.7355C24.5702 66.8071 24.6275 66.8787 24.6847 66.936L27.3479 69.5991C27.849 70.1002 28.6794 70.1002 29.1806 69.5991L33.5905 65.1892L38.0004 69.5991C38.5015 70.1002 39.3319 70.1002 39.833 69.5991L44.2429 65.1892L48.6385 69.6134ZM15.0775 21.8061V45.5165C15.0775 47.3492 13.5884 48.8382 11.7557 48.8382C9.92303 48.8382 8.43398 47.3492 8.43398 45.5165V2.59153H45.7177V15.8928H20.9907C17.7263 15.8928 15.0775 18.5416 15.0775 21.8061ZM38.9167 66.8501L34.5068 62.4402C34.2491 62.1825 33.9198 62.0536 33.5905 62.0536C33.2611 62.0536 32.9318 62.1825 32.6741 62.4402L28.2642 66.8501L26.904 65.4899V21.8061C26.904 21.62 26.8897 21.4338 26.8754 21.262C26.8754 21.2047 26.8611 21.1618 26.8611 21.1045C26.8467 20.9757 26.8324 20.8468 26.8038 20.7179C26.7895 20.6607 26.7895 20.6177 26.7752 20.5604C26.7465 20.4029 26.7036 20.2311 26.6463 20.0736C26.6463 20.0593 26.6463 20.0593 26.632 20.045C26.5747 19.8732 26.5174 19.7157 26.4458 19.5582C26.4315 19.5152 26.4029 19.4723 26.3886 19.415C26.3313 19.3005 26.2883 19.1859 26.2168 19.0714C26.1881 19.0284 26.1738 18.9855 26.1452 18.9282C26.0736 18.7993 25.9877 18.6562 25.9018 18.5273C25.8874 18.513 25.8874 18.4987 25.8731 18.4844C25.8731 18.4844 25.8731 18.4844 25.8731 18.47H58.2172C60.0499 18.47 61.5389 19.9591 61.5389 21.7918V65.4899L60.1787 66.8501L55.7688 62.4402C55.2677 61.939 54.4373 61.939 53.9361 62.4402L49.5262 66.8501L45.1593 62.4545C44.6582 61.9534 43.8277 61.9534 43.3266 62.4545L38.9167 66.8501Z" fill="#0A0A0A"/>
</svg>
