<svg width="70" height="70" viewBox="0 0 70 70" fill="none" xmlns="http://www.w3.org/2000/svg">
<g clip-path="url(#clip0)">
<path d="M64.1227 35.4018C63.9935 35.1435 63.9935 34.8422 64.1227 34.5982L68.0833 26.8491C68.5138 26.0168 68.5856 25.0697 68.2986 24.18C68.0116 23.2903 67.3945 22.5728 66.5622 22.1423L58.7988 18.2103C58.5405 18.0812 58.3683 17.8372 58.3252 17.5502L56.9763 8.95449C56.7037 7.24682 55.2543 6.01271 53.5323 6.01271C53.3457 6.01271 53.1592 6.02706 52.987 6.05576L44.3912 7.41902C44.1186 7.46208 43.8172 7.36162 43.6163 7.17507L37.4745 1.01886C36.8144 0.358754 35.939 0 35.0062 0C34.0735 0 33.1981 0.358754 32.538 1.01886L26.3818 7.17507C26.2096 7.34727 25.9943 7.43337 25.7504 7.43337C25.7073 7.43337 25.6499 7.43337 25.6069 7.41902L17.0112 6.05576C16.8246 6.02706 16.638 6.01271 16.4658 6.01271C14.7438 6.01271 13.2945 7.24682 13.0218 8.95449L11.6729 17.5502C11.6298 17.8372 11.4576 18.0812 11.1993 18.2103L3.43591 22.1566C2.6036 22.5728 1.98655 23.3046 1.69955 24.1943C1.41254 25.0841 1.48429 26.0312 1.9148 26.8635L5.87544 34.6125C6.00459 34.8708 6.00459 35.1722 5.87544 35.4162L1.9148 43.1652C1.48429 43.9975 1.41254 44.9447 1.69955 45.8344C1.98655 46.7241 2.6036 47.4416 3.43591 47.8721L11.185 51.7897C11.4433 51.9188 11.6155 52.1628 11.6585 52.4498L13.0075 61.0455C13.2801 62.7532 14.7295 63.9873 16.4515 63.9873C16.638 63.9873 16.8246 63.9729 16.9968 63.9442L25.5925 62.581C25.8652 62.5379 26.1665 62.6384 26.3674 62.8249L32.5093 68.9811C33.1694 69.6413 34.0448 70 34.9775 70C35.9103 70 36.7857 69.6413 37.4458 68.9811L43.5876 62.8249C43.7885 62.624 44.0755 62.5236 44.3625 62.581L52.9583 63.9442C53.1448 63.9729 53.3314 63.9873 53.5179 63.9873C55.2399 63.9873 56.6893 62.7532 56.962 61.0455L58.3109 52.4498C58.3539 52.1628 58.5261 51.9188 58.7844 51.7897L66.5479 47.8434C67.3802 47.4272 67.9972 46.6954 68.2842 45.8057C68.5712 44.916 68.4995 43.9688 68.069 43.1365L64.1227 35.4018ZM65.816 45.0164C65.7442 45.246 65.5864 45.4326 65.3711 45.533L57.6077 49.4793C56.6176 49.9816 55.9144 50.943 55.7422 52.048L54.3933 60.6437C54.3215 61.1173 53.8623 61.4617 53.3744 61.3756L44.7787 60.0123C44.5921 59.9836 44.4199 59.9693 44.2334 59.9693C43.3006 59.9693 42.4253 60.328 41.7652 60.9881L35.6233 67.1443C35.2932 67.4744 34.7049 67.4744 34.3605 67.1443L28.2186 60.9881C27.5729 60.3424 26.6688 59.9693 25.7504 59.9693C25.5638 59.9693 25.3773 59.9836 25.2051 60.0123L16.6093 61.3756C16.1214 61.4473 15.6622 61.1173 15.5905 60.6294L14.2416 52.0336C14.0694 50.9287 13.3662 49.9672 12.3761 49.465L4.61263 45.5187C4.39737 45.4182 4.23952 45.2317 4.16777 45.0021C4.09602 44.7725 4.11037 44.5285 4.22517 44.3276L8.18581 36.5785C8.68807 35.5884 8.68807 34.3973 8.18581 33.4071L4.22517 25.6581C4.11037 25.4428 4.09602 25.1989 4.16777 24.9836C4.23952 24.754 4.39737 24.5674 4.61263 24.467L12.3761 20.5207C13.3662 20.0185 14.0694 19.057 14.2416 17.952L15.5905 9.35629C15.6622 8.88274 16.1214 8.53834 16.6093 8.62444L25.2051 9.9877C25.3916 10.0164 25.5782 10.0308 25.7504 10.0308C26.6688 10.0308 27.5729 9.65765 28.2186 9.01189L34.3605 2.85568C34.6905 2.52563 35.2789 2.52563 35.6233 2.85568L41.7652 9.01189C42.5401 9.7868 43.6881 10.1599 44.7787 9.9877L53.3744 8.62444C53.8623 8.55269 54.3215 8.88274 54.3933 9.35629L55.7422 17.952C55.9144 19.057 56.6176 20.0185 57.6077 20.5207L65.3711 24.467C65.5864 24.5674 65.7442 24.754 65.816 24.9836C65.8877 25.2132 65.8734 25.4572 65.7586 25.6581L61.798 33.4071C61.2957 34.3973 61.2957 35.5884 61.798 36.5785L65.7586 44.3276C65.8734 44.5428 65.8877 44.7868 65.816 45.0164Z" fill="#0A0A0A"/>
<path d="M46.2282 26.5334H39.7706V22.0131C39.7706 19.7314 39.0818 18.0668 37.7329 17.0767C35.6378 15.5412 32.8969 16.3304 32.5812 16.4309C32.0359 16.6031 31.6771 17.1054 31.6771 17.665V23.2903C31.6771 27.2079 27.1999 28.6572 26.712 28.8007C26.2671 28.3272 25.6357 28.0258 24.9469 28.0258H20.3549C19.0203 28.0258 17.9297 29.1164 17.9297 30.451V45.0164C17.9297 46.351 19.0203 47.4416 20.3549 47.4416H24.9469C25.4922 47.4416 25.9801 47.255 26.3963 46.968C27.286 47.786 28.4627 48.2882 29.7686 48.2882H43.5447C46.8165 48.2882 48.9978 46.4945 49.3709 43.4809L51.222 31.7138C51.2364 31.6421 51.2364 31.5847 51.2364 31.5129C51.222 28.772 48.9834 26.5334 46.2282 26.5334ZM24.7604 44.8585H20.5127V30.6375H24.7604V44.8585ZM46.7878 43.1078C46.7878 43.1222 46.7878 43.1365 46.7878 43.1509C46.7161 43.7823 46.4721 45.6908 43.5447 45.6908H29.7686C28.4483 45.6908 27.3864 44.6146 27.3864 43.3087V31.3263C27.3864 31.3263 27.3864 31.3263 27.4008 31.3263C27.6878 31.2546 34.3032 29.3317 34.3032 23.2903V18.7556C34.8916 18.7126 35.6521 18.7556 36.2261 19.1718C36.8719 19.6453 37.2019 20.6068 37.2019 22.0131V27.8393C37.2019 28.5568 37.7903 29.1451 38.5078 29.1451H46.2712C47.5628 29.1451 48.6103 30.164 48.6534 31.4412L46.7878 43.1078Z" fill="#E51010"/>
</g>
<defs>
<clipPath id="clip0">
<rect width="70" height="70" fill="white"/>
</clipPath>
</defs>
</svg>
