<svg width="70" height="70" viewBox="0 0 70 70" fill="none" xmlns="http://www.w3.org/2000/svg">
<path d="M61.9366 47.4831V41.281C61.9366 39.1754 60.2321 37.4709 58.1265 37.4709H57.1954C55.892 34.0618 53.6718 30.9679 50.6925 28.4612C50.6925 28.4469 50.6925 28.4469 50.6782 28.4326C50.2341 26.8713 50.5636 25.1954 51.6522 23.4623C52.2394 22.5312 52.2251 21.3853 51.6379 20.4686C51.0506 19.5519 50.0193 19.0649 48.9307 19.1938C44.7911 19.7094 42.3274 21.6002 40.8951 23.3477C39.52 22.9609 38.0876 22.6745 36.6552 22.5026C35.9391 22.4166 35.2945 22.9323 35.2085 23.6341C35.1226 24.3503 35.6383 24.9949 36.3401 25.0808C37.93 25.267 39.4913 25.6108 40.9953 26.0835C41.5396 26.2554 42.1412 26.0549 42.4707 25.5678C43.459 24.0925 45.45 22.2304 49.2458 21.7721C49.2744 21.7721 49.3747 21.7577 49.4463 21.858C49.5179 21.9726 49.4606 22.0442 49.4463 22.0729C47.971 24.422 47.5413 26.8713 48.1858 29.1344C48.1858 29.1488 48.2002 29.1631 48.2002 29.1917C48.2145 29.5642 48.3864 29.9223 48.6872 30.1658C51.7238 32.6151 53.9296 35.7377 55.0469 39.1754C55.2188 39.7053 55.7201 40.0634 56.2787 40.0634C56.2931 40.0634 56.2931 40.0634 56.3074 40.0634H58.1265C58.7997 40.0634 59.344 40.6077 59.344 41.281V47.4831C59.344 48.1563 58.7997 48.7006 58.1265 48.7006H56.3933C55.8204 48.7006 55.319 49.0731 55.1472 49.6174C54.3307 52.2672 50.7928 56.7219 49.4177 58.3262L49.1026 58.5983C46.1948 61.2339 45.894 64.3421 45.8654 65.2302C45.8654 65.2445 45.8654 65.2445 45.8654 65.2589V67.3071C45.8654 67.3358 45.8367 67.3644 45.8081 67.3644H37.5147C37.486 67.3644 37.4574 67.3358 37.4574 67.3071V65.3448C37.4574 64.9724 37.2998 64.6286 37.0277 64.3851C36.7555 64.1416 36.3831 64.027 36.025 64.0557C33.9337 64.2705 31.8138 64.2419 29.7655 63.9697C29.3931 63.9267 29.0207 64.027 28.7342 64.2848C28.4477 64.5283 28.2902 64.8864 28.2902 65.2589V67.3071C28.2902 67.3358 28.2615 67.3644 28.2329 67.3644H19.9395C19.9108 67.3644 19.8822 67.3358 19.8822 67.3071V66.6769C19.8822 66.6626 19.8822 66.6339 19.8822 66.6196C19.8105 65.1299 19.3379 61.3485 16.4015 58.3262C14.9835 56.8652 13.7086 54.9458 12.6344 52.611C12.62 52.5967 12.62 52.5824 12.6057 52.568C11.9611 51.3219 11.4741 50.0041 11.1447 48.672C11.1447 48.6577 11.1447 48.6433 11.1304 48.6433L11.116 48.6004C11.116 48.5861 11.1017 48.5717 11.1017 48.5574C10.5861 46.8242 10.6434 44.647 10.6434 44.6184C10.6434 44.6041 10.6434 44.5897 10.6434 44.5754C10.6434 43.6157 10.7293 42.656 10.8869 41.725C11.0015 41.0231 10.5288 40.3499 9.82691 40.2353C9.12505 40.1207 8.45184 40.5934 8.33725 41.2953C8.15104 42.3696 8.0651 43.4582 8.0651 44.5611C8.0651 44.8332 8.02213 47.2253 8.63805 49.2879L8.65237 49.3166C9.02479 50.8492 9.58341 52.3389 10.3139 53.7569C11.5171 56.3495 12.9495 58.5124 14.5681 60.1739C16.8742 62.5517 17.2609 65.5453 17.3182 66.7485V67.3358C17.3182 67.3788 17.3182 67.4361 17.3182 67.479C17.3182 67.4933 17.3182 67.5077 17.3182 67.522C17.4185 68.9114 18.5787 70 19.9681 70H28.2615C29.7226 70 30.9257 68.8111 30.9257 67.3358V66.7342C32.2435 66.8488 33.5756 66.8631 34.9077 66.7915V67.3358C34.9077 68.7968 36.0966 70 37.572 70H45.8654C47.3264 70 48.5296 68.8111 48.5296 67.3358V65.3018C48.5439 64.8148 48.7301 62.523 50.893 60.5607L51.2654 60.2456C51.3084 60.2026 51.3514 60.1596 51.3943 60.1166C51.5949 59.8875 55.8061 55.0317 57.3673 51.3219H58.1981C60.2321 51.2932 61.9366 49.5744 61.9366 47.4831Z" fill="#0A0A0A"/>
<path d="M8.13672 27.2869C8.13672 33.6609 13.3219 38.8318 19.6816 38.8318C26.0414 38.8318 31.2265 33.6466 31.2265 27.2869C31.2265 20.9271 26.0414 15.7419 19.6816 15.7419C13.3219 15.7419 8.13672 20.9271 8.13672 27.2869ZM28.634 27.2869C28.634 32.2285 24.6233 36.2392 19.6816 36.2392C14.7399 36.2392 10.7293 32.2285 10.7293 27.2869C10.7293 22.3452 14.7399 18.3345 19.6816 18.3345C24.6233 18.3345 28.634 22.3595 28.634 27.2869Z" fill="#E51010"/>
<path d="M24.9961 8.02128C24.9961 12.4473 28.5913 16.0426 33.0174 16.0426C37.4434 16.0426 41.0387 12.4473 41.0387 8.02128C41.0387 3.59525 37.4434 0 33.0174 0C28.5913 0 24.9961 3.59525 24.9961 8.02128ZM38.4318 8.02128C38.4318 11.0149 35.9967 13.45 33.0031 13.45C30.0094 13.45 27.5744 11.0149 27.5744 8.02128C27.5744 5.02762 30.0094 2.59259 33.0031 2.59259C35.9967 2.59259 38.4318 5.02762 38.4318 8.02128Z" fill="#E51010"/>
</svg>
