<svg width="70" height="70" viewBox="0 0 70 70" fill="none" xmlns="http://www.w3.org/2000/svg">
<path d="M27.7539 51.4062C27.7539 52.1614 27.1419 52.7734 26.3867 52.7734C25.6316 52.7734 25.0195 52.1614 25.0195 51.4062C25.0195 50.6511 25.6316 50.0391 26.3867 50.0391C27.1419 50.0391 27.7539 50.6511 27.7539 51.4062Z" fill="#0A0A0A"/>
<path d="M61.7969 52.2266H54.9609V45.3906C54.9609 44.6355 54.3489 44.0234 53.5938 44.0234C52.8386 44.0234 52.2266 44.6355 52.2266 45.3906V53.5938C52.2266 54.3489 52.8386 54.9609 53.5938 54.9609H61.7969C62.552 54.9609 63.1641 54.3489 63.1641 53.5938C63.1641 52.8386 62.552 52.2266 61.7969 52.2266Z" fill="#E51010"/>
<path d="M9.57031 28.1641H18.1836C18.9388 28.1641 19.5508 27.552 19.5508 26.7969C19.5508 26.0417 18.9388 25.4297 18.1836 25.4297H9.57031C8.81515 25.4297 8.20312 26.0417 8.20312 26.7969C8.20312 27.552 8.81515 28.1641 9.57031 28.1641Z" fill="#0A0A0A"/>
<path d="M35 25.4297H26.3867C25.6316 25.4297 25.0195 26.0417 25.0195 26.7969C25.0195 27.552 25.6316 28.1641 26.3867 28.1641H35C35.7552 28.1641 36.3672 27.552 36.3672 26.7969C36.3672 26.0417 35.7552 25.4297 35 25.4297Z" fill="#0A0A0A"/>
<path d="M9.57031 36.3672H18.1836C18.9388 36.3672 19.5508 35.7552 19.5508 35C19.5508 34.2448 18.9388 33.6328 18.1836 33.6328H9.57031C8.81515 33.6328 8.20312 34.2448 8.20312 35C8.20312 35.7552 8.81515 36.3672 9.57031 36.3672Z" fill="#0A0A0A"/>
<path d="M20.918 50.0391H9.57031C8.81515 50.0391 8.20312 50.6511 8.20312 51.4062C8.20312 52.1614 8.81515 52.7734 9.57031 52.7734H20.918C21.6731 52.7734 22.2852 52.1614 22.2852 51.4062C22.2852 50.6511 21.6731 50.0391 20.918 50.0391Z" fill="#0A0A0A"/>
<path d="M35 33.6328H26.3867C25.6316 33.6328 25.0195 34.2448 25.0195 35C25.0195 35.7552 25.6316 36.3672 26.3867 36.3672H35C35.7552 36.3672 36.3672 35.7552 36.3672 35C36.3672 34.2448 35.7552 33.6328 35 33.6328Z" fill="#0A0A0A"/>
<path d="M9.57031 44.5703H18.1836C18.9388 44.5703 19.5508 43.9583 19.5508 43.2031C19.5508 42.448 18.9388 41.8359 18.1836 41.8359H9.57031C8.81515 41.8359 8.20312 42.448 8.20312 43.2031C8.20312 43.9583 8.81515 44.5703 9.57031 44.5703Z" fill="#0A0A0A"/>
<path d="M35 41.8359H26.3867C25.6316 41.8359 25.0195 42.448 25.0195 43.2031C25.0195 43.9583 25.6316 44.5703 26.3867 44.5703H35C35.7552 44.5703 36.3672 43.9583 36.3672 43.2031C36.3672 42.448 35.7552 41.8359 35 41.8359Z" fill="#0A0A0A"/>
<path d="M43.2031 28.1641H51.4062C52.1614 28.1641 52.7734 27.552 52.7734 26.7969C52.7734 26.0417 52.1614 25.4297 51.4062 25.4297H43.2031C42.448 25.4297 41.8359 26.0417 41.8359 26.7969C41.8359 27.552 42.448 28.1641 43.2031 28.1641Z" fill="#0A0A0A"/>
<path d="M60.9766 38.9424V9.57031C60.9766 7.30858 59.1367 5.46875 56.875 5.46875H52.7734V4.10156C52.7734 1.83556 50.9379 0 48.6719 0C46.4101 0 44.5703 1.83983 44.5703 4.10156V5.46875H33.2227V4.10156C33.2227 1.83556 31.3871 0 29.1211 0C26.8594 0 25.0195 1.83983 25.0195 4.10156V5.46875H13.6719V4.10156C13.6719 1.83556 11.8363 0 9.57031 0C7.30858 0 5.46875 1.83983 5.46875 4.10156V5.46875H4.10156C1.83983 5.46875 0 7.30858 0 9.57031V54.1406C0 56.4024 1.83983 58.2422 4.10156 58.2422H37.8604C39.9235 65.2132 46.3242 70 53.5938 70C62.6402 70 70 62.6402 70 53.5938C70 47.373 66.4859 41.7195 60.9766 38.9424ZM47.3047 4.10156C47.3047 3.34747 47.9178 2.73438 48.6719 2.73438C49.4265 2.73438 50.0391 3.34641 50.0391 4.10156V9.57031C50.0391 10.3244 49.426 10.9375 48.6719 10.9375C47.9178 10.9375 47.3047 10.3244 47.3047 9.57031V4.10156ZM27.7539 4.10156C27.7539 3.34747 28.367 2.73438 29.1211 2.73438C29.8757 2.73438 30.4883 3.34641 30.4883 4.10156V9.57031C30.4883 10.3244 29.8752 10.9375 29.1211 10.9375C28.367 10.9375 27.7539 10.3244 27.7539 9.57031V4.10156ZM8.20312 4.10156C8.20312 3.34747 8.81622 2.73438 9.57031 2.73438C10.3249 2.73438 10.9375 3.34641 10.9375 4.10156V9.57031C10.9375 10.3244 10.3244 10.9375 9.57031 10.9375C8.81622 10.9375 8.20312 10.3244 8.20312 9.57031V4.10156ZM4.10156 8.20312H5.46875V9.57031C5.46875 11.832 7.30858 13.6719 9.57031 13.6719C11.832 13.6719 13.6719 11.832 13.6719 9.57031V8.20312H25.0195V9.57031C25.0195 11.832 26.8594 13.6719 29.1211 13.6719C31.3828 13.6719 33.2227 11.832 33.2227 9.57031V8.20312H44.5703V9.57031C44.5703 11.832 46.4101 13.6719 48.6719 13.6719C50.9336 13.6719 52.7734 11.832 52.7734 9.57031V8.20312H56.875C57.6291 8.20312 58.2422 8.81622 58.2422 9.57031V16.8164H2.73438V9.57031C2.73438 8.81622 3.34747 8.20312 4.10156 8.20312ZM2.73438 54.1406V19.5508H58.2422V37.8561C56.742 37.4123 55.1858 37.1875 53.5938 37.1875C44.5473 37.1875 37.1875 44.5473 37.1875 53.5938C37.1875 54.2336 37.226 54.8734 37.2997 55.5078H4.10156C3.34747 55.5078 2.73438 54.8947 2.73438 54.1406ZM53.5938 67.2656C46.2654 67.2656 39.9219 61.2943 39.9219 53.5938C39.9219 46.055 46.055 39.9219 53.5938 39.9219C61.1597 39.9219 67.2656 46.0603 67.2656 53.5938C67.2656 61.1325 61.1325 67.2656 53.5938 67.2656Z" fill="#0A0A0A"/>
</svg>
