<svg width="70" height="70" viewBox="0 0 70 70" fill="none" xmlns="http://www.w3.org/2000/svg">
<g clip-path="url(#clip0)">
<path d="M8.99673 66.7675H28.7924C29.5076 66.7675 30.094 66.1811 30.094 65.4659C30.094 64.7508 29.5076 64.1643 28.7924 64.1643H8.99673C5.46383 64.1643 2.60319 61.2894 2.60319 57.7708V16.7491H11.4426V22.2273C11.4426 22.9424 12.029 23.5288 12.7442 23.5288C13.4593 23.5288 14.0458 22.9424 14.0458 22.2273V16.7491H31.3813V22.2273C31.3813 22.9424 31.9677 23.5288 32.6829 23.5288C33.398 23.5288 33.9845 22.9424 33.9845 22.2273V16.7491H42.8239V19.667C42.8239 20.3821 43.4103 20.9686 44.1255 20.9686C44.8406 20.9686 45.4271 20.3821 45.4271 19.667V15.4475C45.4271 14.7324 44.8406 14.1459 44.1255 14.1459H33.9845C33.8128 8.08136 28.8353 3.21826 22.7278 3.21826C16.6203 3.21826 11.6428 8.09566 11.4712 14.1459H1.30159C0.586432 14.1459 0 14.7324 0 15.4475V57.7708C0.0143032 62.734 4.04781 66.7675 8.99673 66.7675ZM22.6992 5.82145C27.3621 5.82145 31.181 9.52599 31.367 14.1602H14.0458C14.2174 9.52599 18.0364 5.82145 22.6992 5.82145Z" fill="#0A0A0A"/>
<path d="M42.3805 31.6672V33.4122H34.4422C33.7271 33.4122 33.1406 33.9986 33.1406 34.7138V60.7027C33.1406 64.0497 35.8582 66.7816 39.2195 66.7816H63.9212C67.2681 66.7816 70 64.064 70 60.7027V34.6995C70 33.9843 69.4136 33.3979 68.6985 33.3979H60.7602V31.6529C60.7602 26.5895 56.6408 22.4702 51.5775 22.4702C46.5141 22.4702 42.3805 26.6038 42.3805 31.6672ZM67.3969 36.0011V60.7027C67.3969 62.6194 65.8378 64.1784 63.9212 64.1784H39.2195C37.3029 64.1784 35.7438 62.6194 35.7438 60.7027V36.0011H42.3805V39.6484C42.3805 40.3636 42.9669 40.95 43.6821 40.95C44.3973 40.95 44.9837 40.3636 44.9837 39.6484V36.0011H58.1713V39.6484C58.1713 40.3636 58.7577 40.95 59.4729 40.95C60.188 40.95 60.7745 40.3636 60.7745 39.6484V36.0011H67.3969ZM51.5632 25.0734C55.1962 25.0734 58.157 28.0342 58.157 31.6672V33.4122H44.9694V31.6672C44.9837 28.0199 47.9302 25.0734 51.5632 25.0734Z" fill="#E51010"/>
</g>
<defs>
<clipPath id="clip0">
<rect width="70" height="70" fill="white"/>
</clipPath>
</defs>
</svg>
