<svg width="30" height="30" viewBox="0 0 30 30" fill="none" xmlns="http://www.w3.org/2000/svg">
<g clip-path="url(#clip0)">
<path d="M14.9995 0.00291702C6.89357 -0.156911 0.186056 6.27114 0.000976562 14.3765C0.0221268 18.5025 1.84908 22.4123 5.00047 25.0754V29.3751C5.00047 29.7202 5.28029 30 5.62543 30C5.74254 30 5.85732 29.9671 5.95663 29.905L9.44004 27.729C11.2148 28.4078 13.0994 28.754 14.9995 28.7502C23.1055 28.91 29.813 22.4819 29.998 14.3766C29.813 6.27114 23.1055 -0.156911 14.9995 0.00291702Z" fill="#3B5998"/>
<path d="M24.8742 10.2519C24.6882 10.0027 24.3473 9.92808 24.0743 10.0769L17.5749 13.6203L13.5316 10.1531C13.2836 9.94056 12.9138 9.95468 12.6829 10.1856L5.18367 17.6849C4.94035 17.9297 4.94152 18.3254 5.18636 18.5687C5.3821 18.7633 5.68225 18.8064 5.92486 18.6748L12.4242 15.1314L16.4713 18.5998C16.7192 18.8124 17.089 18.7982 17.3199 18.5673L24.8192 11.068C25.0377 10.8474 25.0612 10.4998 24.8742 10.2519Z" fill="#FAFAFA"/>
</g>
<defs>
<clipPath id="clip0">
<rect width="30" height="30" fill="white"/>
</clipPath>
</defs>
</svg>
