<svg width="120" height="120" viewBox="0 0 120 120" fill="none" xmlns="http://www.w3.org/2000/svg">
<path d="M60 0C26.9166 0 0 26.9166 0 60C0 93.0834 26.9166 120 60 120C93.0834 120 120 93.0834 120 60C120 26.9166 93.0834 0 60 0ZM60 115C29.6728 115 4.99992 90.3272 4.99992 60C4.99992 29.6728 29.6728 4.99992 60 4.99992C90.3272 4.99992 115 29.6728 115 60C115 90.3272 90.3272 115 60 115Z" fill="#E51010"/>
<path d="M92.1995 70.1051C90.8446 69.7805 89.5065 70.6153 89.1892 71.958C85.9665 85.5248 73.9647 95.0002 59.9997 95.0002C46.0178 95.0002 34.011 85.5103 30.8029 71.9264C30.4829 70.5788 29.128 69.7608 27.7951 70.0659C26.4498 70.3833 25.6173 71.7309 25.9347 73.0737C29.6797 88.9282 43.6886 99.9998 59.9997 99.9998C76.2911 99.9998 90.295 88.9451 94.0525 73.1152C94.3724 71.7701 93.5425 70.4224 92.1995 70.1051Z" fill="#E51010"/>
<path d="M39.9999 49.9999C42.7613 49.9999 44.9998 47.7614 44.9998 45C44.9998 42.2386 42.7613 40.0001 39.9999 40.0001C37.2385 40.0001 35 42.2386 35 45C35 47.7614 37.2385 49.9999 39.9999 49.9999Z" fill="#E51010"/>
<path d="M79.9999 49.9999C82.7613 49.9999 84.9998 47.7614 84.9998 45C84.9998 42.2386 82.7613 40.0001 79.9999 40.0001C77.2385 40.0001 75 42.2386 75 45C75 47.7614 77.2385 49.9999 79.9999 49.9999Z" fill="#E51010"/>
</svg>
