<svg width="24" height="30" viewBox="0 0 24 30" fill="none" xmlns="http://www.w3.org/2000/svg">
<g clip-path="url(#clip0)">
<path d="M19.7082 23.3831H19.6047L18.1264 19.7229C18.9051 19.2347 19.6085 18.6356 20.2143 17.9444C21.8551 16.0624 22.7657 13.6538 22.7803 11.157C22.7798 10.8741 22.6672 10.603 22.4672 10.4029C22.2672 10.2029 21.996 10.0903 21.7131 10.0898H4.42577C4.14239 10.0895 3.8705 10.2018 3.66986 10.4019C3.46922 10.602 3.35623 10.8736 3.35574 11.157C3.35574 11.4366 3.36879 11.7247 3.39302 12.0117H1.06282C0.779646 12.0117 0.508072 12.1242 0.307839 12.3245C0.107607 12.5247 -0.00488281 12.7963 -0.00488281 13.0794C-0.00488281 13.3626 0.107607 13.6342 0.307839 13.8344C0.508072 14.0346 0.779646 14.1471 1.06282 14.1471H3.81432C4.24242 15.5484 4.96187 16.8434 5.92549 17.9472C6.51245 18.6166 7.19084 19.2 7.94065 19.68L4.46119 28.5422C4.40996 28.6727 4.38494 28.812 4.38755 28.9521C4.39015 29.0923 4.42034 29.2306 4.47638 29.3591C4.53242 29.4875 4.61322 29.6037 4.71417 29.701C4.81512 29.7982 4.93423 29.8747 5.06471 29.9259C5.19519 29.9771 5.33449 30.0021 5.47464 29.9995C5.61479 29.9969 5.75306 29.9667 5.88154 29.9107C6.01003 29.8547 6.12622 29.7739 6.22348 29.6729C6.32074 29.572 6.39716 29.4529 6.44839 29.3224L7.1633 27.5011H16.4226C16.7954 28.9486 18.1488 29.9991 19.7082 29.9991C21.577 29.9991 23.0982 28.5152 23.0982 26.6911C23.0982 24.867 21.577 23.3831 19.7082 23.3831ZM20.9628 26.6911C20.9628 27.338 20.4035 27.8646 19.7082 27.8646C19.0129 27.8646 18.4555 27.3389 18.4555 26.692C18.4555 26.0452 19.0147 25.5185 19.7101 25.5185C20.4054 25.5185 20.9637 26.0452 20.9637 26.692L20.9628 26.6911ZM16.3956 18.2595H16.3872C16.3426 18.2776 16.2993 18.2988 16.2576 18.3229C15.2598 18.788 14.1707 19.0243 13.0699 19.0145C11.9473 19.0258 10.8369 18.7806 9.82346 18.2977C9.77637 18.2691 9.72714 18.2441 9.67619 18.2231C8.86201 17.8 8.13476 17.2273 7.5324 16.5351C6.47226 15.3199 5.79173 13.8204 5.57503 12.2224H20.5816C20.3648 13.8204 19.6843 15.3199 18.6242 16.5351C17.9999 17.2497 17.2423 17.8358 16.3937 18.2604L16.3956 18.2595ZM9.87099 20.6139C11.9198 21.3195 14.1442 21.329 16.1989 20.641L17.597 24.1064C17.1696 24.4397 16.8296 24.8718 16.6062 25.3657H8.00124L9.87099 20.6139Z" fill="#8C8787"/>
<path d="M8.20219 6.71098C8.18727 6.78275 8.09593 6.94307 7.65785 7.21151C7.53806 7.28336 7.43468 7.37956 7.35441 7.49388C7.27413 7.60819 7.21874 7.73808 7.19181 7.87515C7.16752 8.00672 7.17159 8.14196 7.20374 8.27183C7.23588 8.40171 7.29537 8.52322 7.37823 8.62827C7.48147 8.75792 7.6128 8.86244 7.7623 8.93397C7.91181 9.00549 8.0756 9.04215 8.24133 9.04119C8.44776 9.04187 8.65036 8.98542 8.82668 8.87807C9.66556 8.36543 10.1596 7.76796 10.3012 7.10059C10.5007 6.16199 9.94611 5.3576 9.64878 4.92605C9.44931 4.6371 9.27595 4.3668 9.30204 4.22419C9.31696 4.15242 9.4083 3.9921 9.84638 3.72366C9.96617 3.65181 10.0695 3.55561 10.1498 3.4413C10.2301 3.32698 10.2855 3.19709 10.3124 3.06002C10.3367 2.92845 10.3326 2.79321 10.3005 2.66334C10.2683 2.53347 10.2089 2.41195 10.126 2.3069C9.95624 2.09557 9.7155 1.95308 9.44856 1.90594C9.18162 1.85879 8.90664 1.91019 8.67475 2.05058C7.83588 2.56322 7.34188 3.16068 7.2002 3.82805C7.00167 4.76666 7.55532 5.57012 7.85266 6.0026C8.05305 6.29527 8.22922 6.56651 8.20219 6.71098Z" fill="#8C8787"/>
<path d="M16.9204 6.71095C16.9055 6.78272 16.8141 6.94304 16.3761 7.21148C16.2562 7.28329 16.1528 7.37947 16.0725 7.4938C15.9923 7.60812 15.9369 7.73804 15.91 7.87512C15.8857 8.00669 15.8898 8.14193 15.9219 8.2718C15.9541 8.40168 16.0136 8.5232 16.0964 8.62825C16.2002 8.75852 16.3322 8.86341 16.4826 8.93497C16.633 9.00652 16.7977 9.04284 16.9642 9.04116C17.1706 9.04185 17.3732 8.98539 17.5495 8.87805C18.3884 8.3654 18.8824 7.76794 19.0241 7.10056C19.2226 6.16196 18.669 5.35757 18.3716 4.92602C18.1722 4.63614 17.9988 4.36677 18.0249 4.22416C18.0398 4.15239 18.1312 3.99207 18.5692 3.72363C18.6891 3.65182 18.7925 3.55564 18.8728 3.44131C18.953 3.32699 19.0084 3.19708 19.0353 3.05999C19.0596 2.92842 19.0555 2.79318 19.0234 2.66331C18.9912 2.53343 18.9317 2.41192 18.8489 2.30687C18.679 2.09506 18.4379 1.95226 18.1706 1.9051C17.9032 1.85794 17.6278 1.90963 17.3958 2.05054C16.5569 2.56319 16.0629 3.16065 15.9212 3.82802C15.7217 4.76663 16.2763 5.57102 16.5737 6.00257C16.7778 6.29525 16.9502 6.56648 16.9204 6.71095Z" fill="#8C8787"/>
<path d="M12.4509 6.29341C12.3931 6.56651 12.0864 6.87409 11.5402 7.20871C11.4204 7.28057 11.3171 7.37676 11.2368 7.49108C11.1565 7.60539 11.1011 7.73528 11.0742 7.87235C11.05 8.00392 11.0541 8.13915 11.0862 8.26901C11.1183 8.39888 11.1778 8.5204 11.2606 8.62548C11.3639 8.75601 11.4955 8.86129 11.6455 8.93332C11.7956 9.00535 11.9601 9.04224 12.1265 9.04118C12.3329 9.04187 12.5355 8.98542 12.7118 8.87807C13.7521 8.23959 14.3672 7.50138 14.5406 6.68115C14.7857 5.52723 14.0923 4.52059 13.7194 3.97811C13.3466 3.43564 13.1304 3.04603 13.1937 2.7459C13.2515 2.4728 13.5582 2.16521 14.1034 1.83153C14.2232 1.75967 14.3266 1.66348 14.4069 1.54916C14.4872 1.43485 14.5426 1.30495 14.5695 1.16789C14.5938 1.03632 14.5897 0.901078 14.5576 0.771205C14.5254 0.641332 14.4659 0.519813 14.3831 0.414763C14.2125 0.204101 13.9712 0.0625512 13.7041 0.0164326C13.437 -0.029686 13.1622 0.0227649 12.9309 0.164033C11.8935 0.800645 11.2783 1.53979 11.104 2.36002C10.8589 3.51394 11.5523 4.52059 11.9252 5.06306C12.298 5.60553 12.5152 5.99328 12.4509 6.29341Z" fill="#8C8787"/>
</g>
<defs>
<clipPath id="clip0">
<rect width="23.0979" height="30" fill="white"/>
</clipPath>
</defs>
</svg>
