<svg width="1230" height="661" viewBox="0 0 1230 661" fill="none" xmlns="http://www.w3.org/2000/svg">
<path d="M130.4 322.6H10.4V276.6L117.2 115.4H183.2V280.6H211.2V322.6H183.2V375H130.4V322.6ZM130.4 280.6V170.6L60.4 280.6H130.4ZM347.631 379C335.898 379 326.298 378.6 318.831 377.8C311.365 377 303.231 375.4 294.431 373C285.365 370.333 278.031 366.6 272.431 361.8C266.831 356.733 262.165 349.533 258.431 340.2C254.431 331.133 252.431 320.2 252.431 307.4V183C252.431 170.733 254.298 159.933 258.031 150.6C261.765 141.267 266.565 133.933 272.431 128.6C277.498 124.067 284.431 120.467 293.231 117.8C302.031 114.867 310.831 113 319.631 112.2C329.765 111.667 339.098 111.4 347.631 111.4C359.631 111.4 369.231 111.8 376.431 112.6C383.631 113.133 391.631 114.733 400.431 117.4C410.031 120.333 417.631 124.2 423.231 129C428.831 133.8 433.631 140.733 437.631 149.8C441.631 158.867 443.631 169.933 443.631 183V307.4C443.631 319.667 441.631 330.467 437.631 339.8C433.898 349.133 429.098 356.333 423.231 361.4C417.898 365.933 410.565 369.667 401.231 372.6C392.165 375.533 383.498 377.267 375.231 377.8C367.765 378.6 358.565 379 347.631 379ZM348.431 341.4C359.631 341.4 367.631 340.733 372.431 339.4C377.231 337.8 380.431 335 382.031 331C383.631 327 384.431 320.467 384.431 311.4V179C384.431 169.933 383.631 163.4 382.031 159.4C380.431 155.4 377.231 152.733 372.431 151.4C367.631 149.8 359.631 149 348.431 149C336.965 149 328.698 149.8 323.631 151.4C318.831 152.733 315.631 155.4 314.031 159.4C312.431 163.4 311.631 169.933 311.631 179V311.4C311.631 320.467 312.431 327 314.031 331C315.631 335 318.831 337.8 323.631 339.4C328.698 340.733 336.965 341.4 348.431 341.4ZM594.463 322.6H474.463V276.6L581.263 115.4H647.263V280.6H675.262V322.6H647.263V375H594.463V322.6ZM594.463 280.6V170.6L524.463 280.6H594.463Z" fill="#E51010"/>
<g clip-path="url(#clip0)">
<path d="M1020.48 401.582C1080.55 401.582 1129.25 352.874 1129.25 292.791C1129.25 232.707 1080.55 184 1020.48 184C960.402 184 911.703 232.707 911.703 292.791C911.703 352.874 960.402 401.582 1020.48 401.582Z" fill="#E51010"/>
<path opacity="0.2" d="M927.789 349.789C928.683 351.235 929.603 352.654 930.549 354.047C950.261 335.534 1022.27 264.657 1051.31 188.436C1049.7 187.963 1048.09 187.529 1046.48 187.135L1045.41 189.915L1046.6 189.58L1047.99 194.37L1042.99 195.829C1039.87 203.124 1036.38 210.36 1032.62 217.517L1033.37 217.181L1035.6 221.46C1033.46 222.445 1031.26 223.282 1029.01 223.964C1024.36 232.284 1019.35 240.446 1014.13 248.352L1015.21 248.135L1016.24 253.005C1016.24 253.005 1014.01 253.458 1010.32 254.05C1003.52 263.907 996.526 273.529 989.39 282.48L991.361 283.465L989.094 287.901L986.197 286.521C981.249 292.673 976.341 298.528 971.55 304.029L973.364 305.015L971.018 309.411L968.18 307.873C962.976 313.788 957.969 319.249 953.297 324.198L954.854 324.809L953.159 329.541C952.922 329.541 951.7 329.008 949.611 328.082C940.346 337.782 932.658 345.215 927.789 349.789Z" fill="white"/>
<path opacity="0.2" d="M995.048 327.648C1021.68 298.942 1056.35 254.286 1076.58 199.496C1075.13 198.629 1073.67 197.794 1072.2 196.993C1040.07 284.707 969.481 348.093 943.303 369.327C944.485 370.523 945.701 371.693 946.95 372.836C964.004 358.899 980.075 343.801 995.048 327.648Z" fill="white"/>
<path opacity="0.2" d="M1056.53 292.436C1056.53 292.436 1056.53 292.771 1056.53 293.284C1058.51 290.484 1060.49 287.619 1062.44 284.688C1061.14 283.446 1060.47 282.716 1060.26 282.499L1063.92 279.128C1063.92 279.128 1064.39 279.621 1065.24 280.449C1067.45 277.071 1069.63 273.608 1071.79 270.059L1069.62 268.481L1072.6 264.538L1074.37 265.82C1077.65 260.286 1080.85 254.562 1083.97 248.648C1082.51 247.287 1081.7 246.42 1081.52 246.262L1085.23 242.891C1085.23 242.891 1085.66 243.344 1086.45 244.093C1090.81 235.556 1094.95 226.645 1098.81 217.359C1097.64 216.058 1096.4 214.796 1095.09 213.573C1071.23 271.853 1035.73 315.503 1008.96 342.731C994.237 357.755 978.353 371.598 961.457 384.133C962.955 385.106 964.48 386.046 966.03 386.953C980.542 376.059 994.306 364.203 1007.23 351.465C1007.23 349.493 1007.23 347.521 1007.23 345.451H1012.22C1012.22 345.786 1012.22 346.141 1012.22 346.477L1012.37 346.319C1018.66 339.931 1025.44 332.636 1032.42 324.474C1032.3 322.502 1032.17 320.412 1032.03 318.342L1036.99 318.007V318.973C1042 312.921 1047.09 306.454 1052.15 299.534C1051.8 295.59 1051.54 293.205 1051.52 293.067L1056.53 292.436Z" fill="white"/>
<path opacity="0.2" d="M991.264 283.544L989.292 282.558C973.339 274.048 957.825 264.737 942.811 254.661C939.893 254.207 936.897 253.695 934.019 253.084L934.847 249.14C931.338 246.637 927.869 244.054 924.498 241.412C923.683 242.91 922.908 244.435 922.172 245.986C947.049 265.327 976.874 281.652 986.119 286.541L988.898 288L991.264 283.544Z" fill="white"/>
<path opacity="0.2" d="M973.384 305.034L971.571 304.048C952.351 293.599 930.175 278.024 914.858 266.747C914.425 268.508 914.037 270.282 913.695 272.07C928.756 283.11 949.729 297.7 968.22 307.893L971.058 309.431L973.384 305.034Z" fill="white"/>
<path d="M954.875 324.848L953.318 324.237C948.567 322.266 933.31 315.227 911.922 299.238C912.053 301.485 912.25 303.713 912.513 305.921C924.088 314.596 936.542 322.031 949.671 328.102C951.76 329.008 952.983 329.462 953.219 329.561L954.875 324.848Z" fill="#98D5CC"/>
<path opacity="0.2" d="M1046.59 189.54L1045.41 189.875C1016.48 198.078 986.732 203.038 956.706 204.662C954.38 206.344 952.133 208.112 949.965 209.965C981.409 208.805 1012.62 204.062 1042.99 195.829L1047.99 194.41L1046.59 189.54Z" fill="white"/>
<path opacity="0.2" d="M1033.37 217.043L1032.62 217.379C1027.83 219.35 999.463 229.76 933.329 227.67C932.133 229.274 930.983 230.91 929.879 232.579C937.448 232.868 944.558 233.013 951.208 233.013C994.575 233.013 1018.49 227.414 1029.03 224.023C1031.28 223.321 1033.47 222.465 1035.6 221.46L1033.37 217.043Z" fill="white"/>
<path opacity="0.2" d="M942.889 254.661C953.061 256.196 963.334 256.961 973.621 256.948C985.909 256.92 998.179 255.971 1010.33 254.109C1014.05 253.537 1016.24 253.084 1016.24 253.064L1015.21 248.174L1014.13 248.391C1007.45 249.653 971.196 255.725 935.123 248.174L934.926 249.101L934.098 253.044C937.035 253.695 939.972 254.207 942.889 254.661Z" fill="white"/>
<path d="M1055.33 366.961C1055.33 376.582 1055.09 386.44 1054.54 396.14C1056.26 395.575 1057.96 394.97 1059.64 394.326C1060.12 385.494 1060.31 376.582 1060.33 367.789C1058.68 368.992 1057.63 369.761 1057.4 369.899L1055.33 366.961Z" fill="#98D5CC"/>
<path opacity="0.2" d="M1059.51 333.839L1058.44 334.647L1055.5 330.704C1055.5 330.704 1056.92 329.659 1059.19 327.766C1058.22 310.022 1056.94 296.931 1056.61 293.56C1056.61 293.047 1056.61 292.751 1056.61 292.712L1051.64 293.264C1051.64 293.382 1051.9 295.709 1052.27 299.731C1053.32 311.324 1055.33 337.092 1055.41 365.443C1056.35 364.773 1058.07 363.471 1060.37 361.776C1060.2 351.76 1059.9 342.317 1059.51 333.839Z" fill="white"/>
<path d="M1032.01 318.342C1032.15 320.314 1032.29 322.443 1032.4 324.474C1034.07 349.9 1034.33 375.398 1033.19 400.852C1034.87 400.655 1036.55 400.418 1038.22 400.142C1039.38 373.079 1038.99 345.972 1037.06 318.954V317.987L1032.01 318.342Z" fill="#98D5CC"/>
<path d="M1007.19 345.471C1007.19 347.443 1007.19 349.414 1007.19 351.484C1007.05 371.851 1006.15 389.437 1005.42 400.556C1007.06 400.78 1008.71 400.971 1010.38 401.128C1011.17 389.043 1012.2 369.248 1012.2 346.496C1012.2 346.161 1012.2 345.806 1012.2 345.471H1007.19Z" fill="#98D5CC"/>
<path opacity="0.2" d="M1085.23 242.891L1081.61 246.321C1081.76 246.499 1082.59 247.346 1084.05 248.707C1097.38 260.76 1112.29 270.941 1128.36 278.97C1128.11 276.9 1127.77 274.83 1127.4 272.799C1112.55 265.067 1098.78 255.416 1086.45 244.093C1085.71 243.344 1085.23 242.91 1085.23 242.891Z" fill="white"/>
<path opacity="0.2" d="M1069.72 268.58L1071.89 270.157C1089.99 283.03 1108.94 294.676 1128.6 305.015C1128.79 303.24 1128.95 301.446 1129.07 299.632C1110.17 289.57 1091.94 278.289 1074.51 265.859L1072.73 264.578L1069.72 268.58Z" fill="white"/>
<path opacity="0.2" d="M1064.02 279.227L1060.35 282.578C1060.51 282.756 1061.24 283.525 1062.54 284.767C1069.29 291.045 1076.54 296.761 1084.23 301.86L1085.9 299.731L1089.84 302.787L1088.38 304.64C1093.55 308.011 1099.5 311.619 1106.26 315.385C1106.72 314.655 1107.17 313.906 1107.58 313.177L1111.92 315.661C1111.51 316.371 1111.09 317.061 1110.66 317.771C1114.97 320.071 1119.57 322.41 1124.46 324.789C1124.96 323.173 1125.42 321.536 1125.84 319.88C1088.92 301.978 1070.21 285.24 1065.32 280.449C1064.49 279.719 1064.06 279.246 1064.02 279.227Z" fill="white"/>
<path opacity="0.2" d="M1088.35 304.66L1089.81 302.806L1085.86 299.75L1084.19 301.88C1076.73 311.229 1068.36 319.815 1059.21 327.51C1056.92 329.482 1055.56 330.408 1055.53 330.448L1058.46 334.391L1059.53 333.582C1070.22 325.085 1079.89 315.38 1088.35 304.66Z" fill="white"/>
<path d="M1110.62 317.79C1111.05 317.081 1111.49 316.39 1111.88 315.681L1107.55 313.197C1107.13 313.926 1106.68 314.655 1106.23 315.405C1094.4 334.391 1071.1 353.338 1060.28 361.559C1057.99 363.294 1056.33 364.556 1055.31 365.226L1054.5 365.798L1055.31 366.961L1057.28 369.899C1057.52 369.741 1058.58 368.992 1060.22 367.789C1069.46 361.125 1097.06 339.753 1110.62 317.79Z" fill="#98D5CC"/>
<path d="M759.979 659.147C759.979 659.147 707.386 666.757 690.276 650.984C676.595 638.366 661.003 624.684 774.763 621.687C888.523 618.69 911.704 596.865 879.238 591.128C846.772 585.391 613.851 616.403 590.196 583.872C574.427 562.185 845.412 570.604 902.873 573.561C960.335 576.519 995.718 639.431 759.979 659.147Z" fill="#D8D8D8"/>
<path d="M933.447 555.383C1097.23 555.383 1230 538.63 1230 517.963C1230 497.296 1097.23 480.543 933.447 480.543C769.665 480.543 636.895 497.296 636.895 517.963C636.895 538.63 769.665 555.383 933.447 555.383Z" fill="#D8D8D8"/>
<path d="M1149.22 463.962C1149.22 463.962 1218.35 499.687 1230.04 515.794C1230.04 515.794 1129.11 527.624 1112.28 527.269C1112.24 527.19 1125.82 477.467 1149.22 463.962Z" fill="#303030"/>
<path d="M1155.9 480.543C1155.9 480.543 1193.67 498.819 1212.18 518.003C1212.18 518.003 1126.08 530.542 1111.33 527.229C1111.33 527.19 1152.49 490.874 1155.9 480.543Z" fill="#FFBFA4"/>
<path d="M1156 495.625C1156 495.625 1175.53 499.706 1178.18 505.739C1180.82 511.772 1144.94 509.899 1144.94 509.899C1144.94 509.899 1160.71 514.335 1158.17 517.963C1155.62 521.591 1135.5 517.963 1135.5 517.963C1135.5 517.963 1151.27 517.45 1151.27 516.307C1151.27 515.163 1138.95 507.593 1138.95 507.593C1138.95 507.593 1167.14 508.381 1166.94 505.739C1166.74 503.098 1156 495.625 1156 495.625Z" fill="#F5EFDB"/>
<path d="M1152.25 362.407C1152.25 362.407 1153.51 279.207 1142.4 259.609C1142.4 259.609 1087.83 345.353 1080.91 360.711C1080.78 360.731 1129.76 377.588 1152.25 362.407Z" fill="#303030"/>
<path d="M1139.82 348.172C1139.82 348.172 1141.79 298.587 1133.25 273.884C1133.25 273.884 1093.28 332.833 1089 345.629C1088.98 345.668 1130.45 346.102 1139.82 348.172Z" fill="#FFBFA4"/>
<path d="M1128.6 329.896C1128.6 329.896 1135.16 311.048 1131.34 305.665C1127.52 300.283 1110.86 332.104 1110.86 332.104C1110.86 332.104 1115.23 316.213 1110.74 316.607C1106.25 317.002 1099.03 336.047 1099.03 336.047C1099.03 336.047 1107.65 322.699 1108.61 323.291C1109.58 323.882 1109.75 338.334 1109.75 338.334C1109.75 338.334 1123.55 313.768 1125.76 315.286C1127.97 316.804 1128.6 329.896 1128.6 329.896Z" fill="#F5EFDB"/>
<path d="M656.134 423.624C656.134 423.624 567.429 430.031 594.908 514.513C622.387 598.994 937.764 511.634 948.034 576.341C958.304 641.048 755.602 663.681 715.429 644.459C675.255 625.236 722.17 613.012 791.853 613.012C861.536 613.012 907.131 601.912 897.492 587.263C891.578 578.411 841.548 582.354 841.548 582.354C841.548 582.354 622.525 609.168 578.448 567.528C530.074 521.847 547.322 394.642 658.795 384.922L656.134 423.624Z" fill="#303030"/>
<path d="M817.952 536.042C817.952 536.042 1149.65 580.541 1165.76 472.262C1182.41 360.317 1130 326.367 1064.51 327.116C999.029 327.865 908.155 324.809 864.256 259.669C809.909 179.032 662.145 240.761 642.965 334.844C597.942 555.778 817.952 536.042 817.952 536.042Z" fill="#F5EFDB"/>
<path d="M1003.76 325.203C1003.76 325.203 1028.7 440.776 1167.04 407.634C1167.04 407.634 1168.87 297.463 1003.76 325.203Z" fill="#303030"/>
<path d="M1168.81 429.716C1168.81 429.716 1047.7 401.601 1034.57 541.523C1034.59 541.504 1191.8 541.661 1168.81 429.716Z" fill="#303030"/>
<path d="M1103.38 401.538C1119.44 401.25 1132.22 387.998 1131.93 371.94C1131.64 355.882 1118.39 343.098 1102.34 343.387C1086.28 343.675 1073.5 356.927 1073.79 372.985C1074.08 389.043 1087.33 401.827 1103.38 401.538Z" fill="#FDB037"/>
<path d="M1103.27 395.289C1115.87 395.063 1125.89 384.668 1125.67 372.072C1125.44 359.476 1115.05 349.448 1102.45 349.675C1089.86 349.901 1079.83 360.296 1080.06 372.892C1080.28 385.488 1090.68 395.516 1103.27 395.289Z" fill="#303030"/>
<path d="M1110.5 502.653C1126.56 502.365 1139.34 489.113 1139.05 473.055C1138.76 456.997 1125.51 444.213 1109.46 444.502C1093.4 444.79 1080.62 458.042 1080.91 474.1C1081.2 490.159 1094.45 502.942 1110.5 502.653Z" fill="#FDB037"/>
<path d="M854.166 531.113C854.166 531.113 963.017 449.136 774.055 367.158C774.055 367.158 979.851 433.482 854.166 531.113Z" fill="#D0C4B3"/>
<path d="M733.584 359.785C733.584 359.785 882.905 424.748 892.978 407.22C907.525 381.965 756.805 289.617 733.584 359.785Z" fill="#303030"/>
<path d="M1110.52 559.267C1110.52 559.267 1071.95 520.092 1078.75 431.825C1078.75 431.806 1064.49 515.025 1110.52 559.267Z" fill="#FFFAEF"/>
<path d="M1090.43 573.561C1090.43 573.561 1054.54 519.166 1076.2 432.417C1076.2 432.417 1050.48 523.779 1090.43 573.561Z" fill="#FFFAEF"/>
<path d="M1061.58 559.425C1061.58 559.425 1034.89 508.164 1073.76 431.806C1073.78 431.786 1028.64 504.734 1061.58 559.425Z" fill="#FFFAEF"/>
<path d="M1093.35 273.884C1093.35 273.884 1053.26 311.501 1056.57 400.064C1056.57 399.985 1045.61 316.272 1093.35 273.884Z" fill="#FFFAEF"/>
<path d="M1073.84 258.801C1073.84 258.801 1035.81 311.698 1054.13 399.176C1054.05 399.196 1032.01 306.966 1073.84 258.801Z" fill="#FFFAEF"/>
<path d="M1044.47 271.794C1044.47 271.794 1015.76 321.911 1051.58 399.807C1051.6 399.807 1009.38 325.124 1044.47 271.794Z" fill="#FFFAEF"/>
<path d="M1039.36 407.674L1069.07 424.334L1034.51 440.776L1051.78 424.235L1039.36 407.674Z" fill="#3C2A34"/>
<path d="M1094.12 418.379L1075 424.235L1092.59 433.482L1094.12 418.379Z" fill="#E51010"/>
<path d="M991.697 544.579C991.697 544.579 1024.95 502.683 991.914 450.772C974.488 423.427 938.809 415.442 932.166 435.631C925.523 455.819 958.442 464.396 956.727 489.947C955.407 509.663 927.514 544.54 927.514 544.54L957.989 545.585L991.697 544.579Z" fill="#303030"/>
<path d="M974.351 321.595C974.351 321.595 1010.09 336.441 977.82 388.826C960.809 416.428 925.248 424.945 918.309 404.854C911.37 384.764 944.171 375.715 942.062 350.163C940.446 330.566 911.902 301.722 911.902 301.722L974.351 321.595Z" fill="#303030"/>
<path d="M1118.43 394.543C1121.09 394.543 1123.24 392.389 1123.24 389.733C1123.24 387.076 1121.09 384.922 1118.43 384.922C1115.77 384.922 1113.62 387.076 1113.62 389.733C1113.62 392.389 1115.77 394.543 1118.43 394.543Z" fill="#F5EFDB"/>
<path d="M1108.87 496.373C1121.47 496.146 1131.49 485.752 1131.27 473.155C1131.04 460.559 1120.65 450.532 1108.05 450.758C1095.46 450.985 1085.43 461.379 1085.66 473.976C1085.88 486.572 1096.28 496.599 1108.87 496.373Z" fill="#303030"/>
<path d="M1124.03 495.625C1126.68 495.625 1128.84 493.471 1128.84 490.815C1128.84 488.158 1126.68 486.004 1124.03 486.004C1121.37 486.004 1119.22 488.158 1119.22 490.815C1119.22 493.471 1121.37 495.625 1124.03 495.625Z" fill="#F5EFDB"/>
<path d="M817.952 536.042C817.952 536.042 801.768 459.743 699.816 473.583C657.435 479.34 726.645 335.574 639.358 355.999C639.358 355.999 589.545 541.504 817.952 536.042Z" fill="#303030"/>
<path d="M796.86 354.52C796.86 354.52 838.571 359.331 836.718 375.636C834.866 391.941 762.245 355.526 796.86 354.52Z" fill="#FFBFA4"/>
<path d="M857.83 367.75C857.83 367.75 850.202 363.55 846.634 368.775C843.066 374 872.634 380.19 857.83 367.75Z" fill="#FFBFA4"/>
<path d="M856.57 379.638C856.57 379.638 849.335 374.749 845.334 379.638C841.332 384.528 870.368 393.38 856.57 379.638Z" fill="#FFBFA4"/>
<path d="M849.708 391.724C849.708 391.724 844.011 385.119 838.866 388.767C833.721 392.414 859.249 408.561 849.708 391.724Z" fill="#FFBFA4"/>
<path d="M932.166 435.631C932.166 435.631 943.678 443.911 946.142 450.772C946.142 450.772 945.275 435.059 932.166 435.631Z" fill="#F5EFDB"/>
<path d="M936.66 429.361C936.66 429.361 948.172 437.642 950.636 444.503C950.616 444.503 949.69 428.789 936.66 429.361Z" fill="#F5EFDB"/>
<path d="M946.141 424.945C946.141 424.945 957.653 433.225 960.117 440.086C960.097 440.086 959.17 424.373 946.141 424.945Z" fill="#F5EFDB"/>
<path d="M932.244 384.133C932.244 384.133 924.497 395.963 917.775 398.782C917.775 398.782 933.447 397.126 932.244 384.133Z" fill="#F5EFDB"/>
<path d="M936.818 392.414C936.818 392.414 928.224 403.691 921.305 405.978C921.324 405.959 937.035 405.466 936.818 392.414Z" fill="#F5EFDB"/>
<path d="M875.158 392.059C875.158 392.059 888.346 397.284 892.406 403.336C892.387 403.336 887.656 388.313 875.158 392.059Z" fill="#F5EFDB"/>
<path d="M869.973 400.261C869.973 400.261 883.929 402.804 889.094 407.95C889.094 407.95 881.504 394.169 869.973 400.261Z" fill="#F5EFDB"/>
<path d="M726.328 246.242C726.328 246.242 888.56 232.264 889.093 212.055C889.842 182.916 713.338 173.492 726.328 246.242Z" fill="#303030"/>
<path d="M779.454 211.484C779.454 211.484 818.426 195.849 824.556 211.07C830.687 226.29 749.472 228.833 779.454 211.484Z" fill="#FFBFA4"/>
<path d="M839.378 194.094C839.378 194.094 830.665 194.094 830.015 200.325C829.364 206.555 858.322 197.978 839.378 194.094Z" fill="#FFBFA4"/>
<path d="M843.992 205.115C843.992 205.115 835.319 204.268 834.136 210.458C832.954 216.649 862.483 210.695 843.992 205.115Z" fill="#FFBFA4"/>
<path d="M843.659 219.035C843.659 219.035 835.517 215.939 832.718 221.598C829.919 227.256 860.059 229.346 843.659 219.035Z" fill="#FFBFA4"/>
<path d="M866.188 207.225C866.188 207.225 880.262 205.549 886.708 208.94C886.708 208.921 875.393 197.978 866.188 207.225Z" fill="#F5EFDB"/>
<path d="M865.537 216.905C865.537 216.905 879.02 212.509 885.999 214.559C885.999 214.559 872.772 206.042 865.537 216.905Z" fill="#F5EFDB"/>
<path d="M944.031 398.644C944.031 398.644 936.285 410.473 929.563 413.293C929.504 413.293 945.273 411.637 944.031 398.644Z" fill="#F5EFDB"/>
</g>
<defs>
<clipPath id="clip0">
<rect width="677" height="477" fill="white" transform="translate(553 184)"/>
</clipPath>
</defs>
</svg>
