<svg width="221" height="258" viewBox="0 0 221 258" fill="none" xmlns="http://www.w3.org/2000/svg">
<g clip-path="url(#clip0)">
<g opacity="0.4">
<path opacity="0.4" d="M93.4465 228.413C87.4818 228.437 81.517 228.627 75.5694 229.501C73.3244 229.846 71.1276 230.558 68.8757 230.851C64.3823 231.436 59.9681 232.528 55.4678 233.031C51.8339 233.437 48.1863 233.674 44.5662 234.191C41.0592 234.689 37.491 234.545 34.0358 233.764C31.5399 233.175 29.0371 232.841 26.5824 231.894C23.8321 230.834 20.8582 230.076 17.9876 230.104C13.9102 230.142 9.94284 230.149 6.0408 232.018C4.66563 232.676 2.9948 233.74 1.95655 235.117C-0.422496 238.271 -0.745661 246.135 1.62994 249.42C5.63169 254.929 14.1784 257.088 19.7891 257.191C25.9395 257.301 31.9112 256.699 38.0685 256.344C43.7892 256 49.4996 255.545 55.2306 255.562C66.9367 255.597 78.6463 255.562 90.3284 254.529C101.306 253.558 112.314 253.892 123.332 253.892C134.616 253.892 145.82 254.009 157.024 255.993C161.906 256.857 166.877 257.16 171.783 257.762C176.177 258.303 180.398 257.762 184.772 257.249C188.563 256.806 192.206 255.511 195.429 253.462C198.073 251.792 202.783 246.607 203.591 242.623C205.863 231.454 171.58 231.722 166.313 231.746C160.424 231.774 154.49 232.032 148.605 231.746C146.129 231.622 143.692 230.982 141.275 230.279C138.858 229.577 136.445 229.76 134.004 229.467C123.827 228.245 113.631 228.434 103.406 228.434C100.095 228.441 96.771 228.4 93.4465 228.413Z" fill="#D8D8D8"/>
</g>
<path d="M155.185 99.2205C153.893 98.7204 152.516 98.48 151.131 98.513C149.747 98.546 148.382 98.8518 147.116 99.4129C145.849 99.9741 144.706 100.78 143.75 101.783C142.794 102.787 142.046 103.97 141.546 105.263C141.047 106.557 140.807 107.936 140.84 109.323C140.873 110.709 141.178 112.076 141.738 113.344C142.299 114.612 143.103 115.758 144.105 116.715C145.108 117.672 146.288 118.422 147.58 118.922C148.616 119.331 149.708 119.578 150.818 119.655C153.332 119.796 155.813 119.033 157.814 117.503C159.816 115.972 161.205 113.777 161.732 111.311C162.259 108.845 161.889 106.272 160.688 104.056C159.487 101.84 157.536 100.126 155.185 99.2239V99.2205Z" fill="#FDB037"/>
<g opacity="0.1">
<path opacity="0.1" d="M161.053 104.785C160.503 103.507 159.7 102.354 158.691 101.397C157.682 100.441 156.489 99.7001 155.184 99.2205C154.337 98.8834 153.451 98.6521 152.548 98.5319C154.476 99.8182 155.929 101.703 156.684 103.897C157.439 106.092 157.453 108.473 156.725 110.676C155.996 112.879 154.565 114.782 152.652 116.091C150.739 117.4 148.45 118.044 146.136 117.924C145.936 117.924 145.734 117.889 145.534 117.865C146.185 118.279 146.876 118.625 147.597 118.898C148.633 119.307 149.725 119.554 150.835 119.631C152.638 119.717 154.433 119.341 156.05 118.538C157.667 117.736 159.054 116.534 160.078 115.046C161.102 113.558 161.731 111.833 161.905 110.034C162.078 108.235 161.791 106.421 161.07 104.764L161.053 104.785Z" fill="black"/>
</g>
<path d="M218.129 34.2418C214.268 26.3605 207.307 20.428 197.454 16.6096C187.6 12.7912 178.428 12.4779 170.177 15.6697C163.012 18.4448 157.563 23.5888 153.981 30.933C153.682 31.5478 153.513 32.218 153.486 32.9014C153.459 33.5847 153.574 34.2663 153.823 34.9029C154.073 35.5395 154.452 36.1174 154.936 36.5998C155.42 37.0822 155.998 37.4588 156.635 37.7056L162.507 39.9781C163.639 40.4166 164.894 40.4212 166.029 39.9911C167.165 39.561 168.102 38.7263 168.661 37.6471C170.724 33.6806 173.474 31.0776 177.019 29.6832C181.326 27.996 186.38 28.2543 192.035 30.4406C197.691 32.627 201.524 35.8877 203.48 40.1468C205.436 44.4059 205.333 49.3503 203.195 54.8868C200.249 62.5168 196.082 66.8138 190.818 67.6539C185.266 68.5388 177.644 67.0686 168.128 63.2846L165.591 62.3205C164.371 61.8499 163.014 61.8832 161.819 62.4132C160.623 62.9431 159.686 63.9264 159.214 65.1473L150.66 87.3072C150.426 87.9122 150.314 88.5574 150.33 89.2058C150.345 89.8542 150.488 90.4933 150.75 91.0864C151.012 91.6796 151.388 92.2152 151.857 92.6626C152.326 93.1101 152.878 93.4606 153.483 93.6942L159.437 96.0011C160.041 96.2351 160.685 96.3475 161.333 96.3321C161.98 96.3166 162.618 96.1736 163.21 95.911C163.803 95.6485 164.338 95.2717 164.784 94.8021C165.231 94.3326 165.581 93.7794 165.814 93.1743L171.353 78.8234C171.368 78.7801 171.392 78.7403 171.423 78.7063C171.454 78.6724 171.491 78.645 171.533 78.6257C171.574 78.6065 171.62 78.5958 171.665 78.5943C171.711 78.5927 171.757 78.6004 171.8 78.6168C183.011 82.6143 192.489 83.4372 199.97 81.0924C207.925 78.5858 213.983 72.0714 217.978 61.7248C221.973 51.3783 222.004 42.1645 218.129 34.2418Z" fill="#FDB037"/>
<g opacity="0.1">
<path opacity="0.1" d="M218.129 34.2418C214.268 26.3605 207.306 20.428 197.453 16.6096C191.351 14.2476 185.507 13.2285 179.985 13.5487C182.977 14.1018 185.909 14.94 188.742 16.0518C198.602 19.8703 205.56 25.8028 209.417 33.6806C213.275 41.5585 213.24 50.8411 209.266 61.1464C205.292 71.4517 199.217 78.0177 191.258 80.514C188.84 81.2575 186.336 81.6834 183.808 81.781C189.921 82.7658 195.325 82.5316 199.967 81.0717C207.922 78.5651 213.979 72.0508 217.974 61.7042C221.969 51.3576 222.004 42.1645 218.129 34.2418Z" fill="black"/>
</g>
<path d="M89.6816 124.823L84.205 122.675L83.2115 123.749V125.522H80.4268L80.6743 128.731L83.2115 129.699L88.5506 128.979L89.6816 124.823Z" fill="#E7CFB4"/>
<path d="M135.475 237.018C136.018 236.418 136.654 236.088 137.373 236.202C137.716 236.258 138.041 236.397 138.319 236.607C138.596 236.817 138.819 237.091 138.968 237.407C139.138 237.846 139.231 238.312 139.243 238.784C139.442 241.194 139.425 246.923 136.217 247.736C134.87 248.08 133.752 247.123 133.395 245.911C132.852 244.083 133.653 239.025 135.475 237.018Z" fill="#33435A"/>
<path d="M134.334 200.631L134.502 215.343C134.306 221.885 135.328 228.448 135.132 234.969C135.087 236.47 134.695 238.068 135.073 239.545C135.451 241.022 136.624 241.266 137.823 240.523C139.45 239.535 139.199 237.228 139.456 235.541C140.199 230.913 141.072 226.306 141.863 221.685C142.245 219.42 141.457 216.245 141.629 213.952L144.001 201.622L134.334 200.631Z" fill="#FFBFA4"/>
<path d="M151.117 176.859L144.723 205.303L143.365 232.163L133.23 231.932L130.473 156.807L150.124 157.161L151.117 176.859Z" fill="#71C3CC"/>
<path d="M120.977 236.481C121.544 235.912 122.194 235.62 122.905 235.792C123.247 235.869 123.565 236.028 123.833 236.254C124.101 236.479 124.311 236.766 124.445 237.09C124.594 237.534 124.666 237.999 124.659 238.467C124.755 240.877 124.49 246.624 121.259 247.257C119.883 247.523 118.828 246.5 118.508 245.264C118.058 243.401 119.075 238.385 120.977 236.481Z" fill="#33435A"/>
<path d="M126.319 202.697L125.46 217.385C125.391 221.465 124.848 225.518 124.429 229.57C124.037 233.337 124.645 237.259 122.682 240.685C122.067 241.759 120.819 242.475 119.949 241.17C119.261 240.165 119.677 238.488 119.547 237.345C119.021 232.69 118.368 228.048 117.807 223.393C117.532 221.11 118.467 217.977 118.405 215.677L116.614 203.251L126.319 202.697Z" fill="#FFBFA4"/>
<path d="M113.489 175.121L112.664 202.731L116.992 230.648L127.303 230.958L126.849 200.744L132.305 175.685L134.137 159.282L117.773 157.351L113.489 175.121Z" fill="#71C3CC"/>
<path d="M126.434 100.849L144.063 100.426L154.281 119.463L150.65 137.294L150.004 158.632L124.859 158.976L116.584 157.63L118.781 134.829L117.523 104.375L126.434 100.849Z" fill="#4FCA30"/>
<path d="M125.797 112.383L116.618 130.766L106.717 132.736L86.8936 129.699L89.3276 123.491H107.504L117.766 104.375L125.797 112.383Z" fill="#4FCA30"/>
<path d="M127.546 86.0574C130.204 78.3207 140.404 81.2198 142.505 88.1233C143.88 92.6165 140.411 98.4526 135.76 99.7403C135.738 99.9002 135.726 100.061 135.722 100.222C135.707 100.944 135.64 101.663 135.522 102.374C135.481 102.643 131.397 101.861 130.96 101.772C130.797 101.762 130.645 101.687 130.537 101.565C130.372 101.31 130.64 100.556 130.671 100.271L130.778 99.2652C128.478 98.129 127.031 95.7394 126.628 93.3086C126.226 90.8777 126.738 88.3815 127.546 86.0574Z" fill="#FFBFA4"/>
<path d="M134.192 79.0644C134.739 79.6222 134.955 80.3969 135.11 81.1303C135.23 81.5685 135.257 82.0272 135.189 82.4766C134.811 84.2325 133.071 84.1396 131.727 84.7077C130.07 85.4305 128.669 86.6378 127.708 88.1715C126.254 90.4887 126.907 93.4739 127.498 96.0287C127.705 96.9308 128.124 98.2701 127.426 99.0724C126.728 99.8746 125.078 99.761 124.229 99.3444C123.452 98.9588 122.816 98.2495 121.963 98.1083C121.111 97.9672 119.842 98.3528 119.423 97.5264C119.348 97.2794 119.256 97.0378 119.148 96.8034C118.649 96.0907 117.411 96.9239 116.707 96.4212C116.274 96.1113 116.277 95.4537 116.425 94.9303C116.573 94.407 116.817 93.8802 116.714 93.3499C116.628 92.892 116.298 92.5339 116.095 92.1173C115.9 91.6995 115.828 91.2345 115.889 90.7774C115.95 90.3203 116.141 89.8903 116.439 89.5384C117.549 88.2507 119.698 88.5055 120.887 87.2866C121.506 86.6565 121.747 85.7475 121.977 84.8764C122.207 84.0053 122.486 83.1066 123.149 82.5248C123.968 81.8051 125.15 81.9257 125.958 81.0718C126.433 80.5691 126.749 79.9149 127.282 79.4776C127.969 78.9026 129.345 78.4447 130.228 78.1658C130.906 77.9284 131.638 77.8868 132.339 78.0457C133.04 78.2046 133.682 78.5576 134.192 79.0644Z" fill="#33435A"/>
<path d="M140.642 91.4114C140.69 93.9593 139.425 96.7104 140.597 98.9519C141.769 101.193 144.722 101.62 147.239 101.741C147.652 101.761 152.953 102.219 152.977 102.12C153.372 100.346 153.785 98.5353 154.696 96.979C155.607 95.4227 157.168 94.1315 158.942 94.0213C158.429 93.9318 158.172 93.3052 158.23 92.7784C158.346 92.2589 158.51 91.7517 158.722 91.2634C158.909 90.6386 158.921 89.9744 158.757 89.343C158.594 88.7117 158.26 88.1374 157.793 87.6825C155.92 85.9334 152.52 86.6496 150.918 84.6491C149.921 83.4027 150.041 81.5951 149.518 80.0732C148.508 77.1294 145.293 76.5165 142.887 75.1874C140.349 73.7861 137.96 73.0148 135.028 73.5037C131.397 74.1097 128.698 77.8111 130.098 81.2955C131.896 85.7716 139.074 85.3791 140.411 89.9033C140.556 90.3932 140.634 90.9006 140.642 91.4114Z" fill="#33435A"/>
<path d="M138.847 100.746L133.378 108.489L130.81 108.276L126.522 100.426L138.847 100.746Z" fill="#71C3CC"/>
<path d="M16.2683 89.3593L12.8613 83.1342L16.2099 76.7162L19.6994 78.5651L19.2765 83.84L21.1158 85.6373L20.4041 90.1616L16.2683 89.3593Z" fill="#FFBFA4"/>
<path d="M68.5458 148.199L69.0099 188.26L64.7469 239.827H58.9505L52.0163 192.25L44.085 144.594L68.5458 148.199Z" fill="#33435A"/>
<path d="M58.9844 242.275L65.2517 245.412L68.3837 242.275L65.2517 239.135H58.9844V242.275Z" fill="#33435A"/>
<path d="M28.8097 148.199L28.6963 171.375L32.6052 239.827H38.4015L48.0965 194.402L53.2706 144.594L28.8097 148.199Z" fill="#33435A"/>
<path d="M38.3676 242.275L32.1002 245.412L28.9648 242.275L32.1002 239.135H38.3676V242.275Z" fill="#33435A"/>
<path d="M22.7831 162.171C22.6593 165.848 22.7384 170.779 24.2854 170.951C24.5743 170.958 24.8592 170.883 25.1071 170.734C27.7956 169.426 29.7105 167.577 32.3611 166.313C35.139 164.988 38.295 164.295 41.3788 163.817C45.9776 163.065 50.6259 162.658 55.2852 162.598C59.2663 162.564 63.4021 164.382 67.1666 165.38C68.614 165.766 69.7932 166.823 70.9965 167.649C72.7739 168.875 73.5509 169.371 73.3102 166.857C72.9149 162.777 72.5057 158.693 72.0038 154.624C71.0034 146.505 69.642 138.407 67.3385 130.546C66.4584 127.544 65.4443 124.582 64.4301 121.625L60.724 110.813C59.1872 106.337 56.5985 103.18 52.057 101.613C48.1343 100.26 43.2628 99.8919 39.4467 101.786C35.2043 103.893 33.1897 111.082 31.1303 114.907C29.3254 118.268 27.0495 127.437 26.3723 131.059C25.5575 135.421 24.808 139.763 24.2167 144.091C23.5429 148.842 23.1251 153.626 22.9653 158.421C22.9481 158.931 22.8415 160.398 22.7831 162.171Z" fill="#FDB037"/>
<path d="M43.7301 102.402L51.5617 102.478C51.5617 102.478 59.9675 131.892 60.2734 136.964C60.576 141.939 62.7006 162.119 62.7006 162.119C62.7006 162.119 54.0267 162.323 44.0327 163.545C34.2621 165.638 33.4404 164.402 33.4404 164.402C33.4404 164.402 38.7142 143.193 38.8895 137.098C39.0683 130.866 39.8659 110.28 39.8659 110.28L43.7301 102.402Z" fill="white"/>
<path d="M45.7045 102.326C45.7978 102.408 45.9065 102.47 46.0242 102.509C46.2741 102.571 46.5346 102.578 46.7875 102.529L49.8816 102.161C49.5378 98.9828 51.3943 98.2632 53.2026 96.2214C55.011 94.1797 54.4712 91.3563 54.3681 88.8222C54.3837 88.1165 54.2611 87.4147 54.0071 86.7563C53.4845 85.6338 52.2675 85.0106 51.0849 84.6422C48.0664 83.7023 44.6147 83.9329 41.9572 85.6476C41.2278 86.0767 40.6243 86.6907 40.2073 87.4277C39.616 88.5846 39.7672 89.9619 39.9322 91.253C40.1421 93.2437 40.8118 95.1581 41.8884 96.8447C42.9198 98.4009 44.9172 99.1447 45.1441 101.011C45.1724 101.501 45.3706 101.966 45.7045 102.326Z" fill="#FFBFA4"/>
<path d="M40.0283 88.9393C40.2037 89.7381 40.575 90.5472 40.3721 91.3495C39.107 90.9191 38.2784 89.6279 37.8281 88.3023C37.6027 87.7083 37.5009 87.0744 37.529 86.4396C37.5432 86.1255 37.6241 85.8181 37.7664 85.5378C37.9087 85.2576 38.109 85.011 38.3541 84.8144C39.0416 84.3152 40.2965 84.5114 40.4959 85.417C40.6953 86.3225 39.7636 87.7376 40.0283 88.9393Z" fill="#33435A"/>
<path d="M33.3067 81.9257C33.3004 81.4553 33.4108 80.9907 33.628 80.5737C33.8452 80.1566 34.1624 79.8001 34.5512 79.5361C35.2869 79.0369 36.1361 78.6272 36.583 77.8352C36.9268 77.2224 36.9818 76.458 37.3256 75.8451C37.9479 74.7295 39.299 74.4025 40.4748 74.0237C43.4142 73.0769 44.9991 71.9854 48.1138 73.1974C50.3278 74.0581 53.1916 74.1752 55.2475 75.4285C56.14 76.0245 56.8882 76.8126 57.4375 77.7354C59.5002 80.9857 60.0125 85.5581 58.6614 88.9496C58.3566 89.6882 57.9885 90.399 57.5612 91.074C56.7396 92.41 55.8423 94.0558 54.4018 94.71C54.309 94.0799 53.8414 93.7321 53.697 93.1123C53.616 92.6578 53.5998 92.1941 53.6489 91.7351C53.7383 89.9516 54.2849 87.1317 52.5075 86.2468C50.2591 85.1278 46.0408 86.1366 43.8749 87.0834C41.9599 87.9201 38.718 89.0116 36.6827 88.1164C34.7816 87.29 33.2414 83.9709 33.3067 81.9257Z" fill="#33435A"/>
<path d="M39.4439 101.768L25.62 113.399L22.3952 89.6245L15.069 88.2025L13.7832 120.513L21.6251 127.888L35.8856 120.833L39.4439 101.768Z" fill="#FDB037"/>
<path d="M95.4199 209.111C122.739 209.111 144.885 186.931 144.885 159.572C144.885 132.212 122.739 110.032 95.4199 110.032C68.1012 110.032 45.9551 132.212 45.9551 159.572C45.9551 186.931 68.1012 209.111 95.4199 209.111Z" fill="#E51010"/>
<path d="M107.029 126.524C105.549 125.214 103.499 124.557 100.879 124.555C98.8313 124.53 96.8081 125.002 94.9829 125.932C93.3163 126.765 91.8946 128.018 90.8574 129.568C89.8694 131.049 89.3484 132.793 89.3619 134.574C89.3351 135.528 89.5205 136.476 89.9046 137.349C90.2888 138.222 90.862 138.998 91.5828 139.622C93.0634 140.935 95.1422 141.591 97.8192 141.591C99.845 141.622 101.849 141.168 103.664 140.266C105.332 139.444 106.748 138.188 107.765 136.63C108.741 135.16 109.261 133.434 109.261 131.668C109.293 130.699 109.109 129.734 108.723 128.845C108.337 127.955 107.759 127.163 107.029 126.524Z" fill="white"/>
<path d="M105.799 185.292C105.799 185.292 97.9229 188.435 98.638 184.383L104.032 153.77C104.19 152.874 104.151 151.954 103.916 151.075C103.681 150.196 103.256 149.379 102.672 148.682C102.088 147.985 101.359 147.424 100.535 147.04C99.7119 146.655 98.8143 146.456 97.9057 146.457H82.9095L82.4591 148.364C82.4591 148.364 88.1007 148.671 87.2413 153.553L81.7062 184.958C81.4741 186.305 81.5846 187.69 82.0274 188.984C82.4702 190.277 83.2311 191.439 84.24 192.36C87.2963 195.139 91.4905 194.956 95.1932 193.772C96.4274 193.376 107.181 188.559 107.164 188.518L105.799 185.292Z" fill="white"/>
<path opacity="0.1" d="M123.988 119.132C130.743 128.67 133.91 140.295 132.928 151.948C131.946 163.6 126.879 174.529 118.624 182.798C110.368 191.068 99.4575 196.146 87.8229 197.132C76.1883 198.118 64.5805 194.95 55.0547 188.187C59.2167 194.07 64.6108 198.971 70.8602 202.549C77.1096 206.128 84.0637 208.296 91.2367 208.904C98.4097 209.512 105.629 208.544 112.39 206.068C119.15 203.592 125.29 199.668 130.379 194.569C135.469 189.471 139.386 183.321 141.856 176.549C144.327 169.777 145.292 162.547 144.683 155.364C144.074 148.18 141.907 141.216 138.333 134.958C134.758 128.7 129.863 123.299 123.988 119.132Z" fill="#232020"/>
<path opacity="0.2" d="M106.5 117.269H107.167C98.8513 114.271 89.7841 114.078 81.3487 116.722C72.9133 119.365 65.5726 124.699 60.446 131.909C60.3102 131.954 60.1926 132.042 60.1107 132.159C60.0289 132.276 59.9873 132.417 59.9922 132.56C55.4366 139.243 53.005 147.149 53.0166 155.24C53.0166 155.426 53.0166 155.615 53.0166 155.801C56.7678 144.571 63.9513 134.807 73.55 127.892C83.1487 120.976 94.6762 117.26 106.5 117.269Z" fill="white"/>
<path d="M50.6895 97.4576C51.4511 97.4576 52.2053 97.3074 52.9089 97.0155C53.6126 96.7235 54.252 96.2957 54.7905 95.7563C55.3291 95.2169 55.7563 94.5766 56.0477 93.8719C56.3392 93.1672 56.4892 92.4118 56.4892 91.649H57.6409C57.6409 92.5633 57.4611 93.4686 57.1118 94.3133C56.7624 95.158 56.2504 95.9254 55.6049 96.5719C54.9594 97.2184 54.1931 97.7312 53.3497 98.0811C52.5063 98.431 51.6023 98.6111 50.6895 98.6111V97.4576Z" fill="#BABCBE"/>
<path d="M47.6393 99.3203H49.8121C50.4083 99.3203 50.8916 98.8363 50.8916 98.2392V98.0739C50.8916 97.4768 50.4083 96.9928 49.8121 96.9928H47.6393C47.0431 96.9928 46.5598 97.4768 46.5598 98.0739V98.2392C46.5598 98.8363 47.0431 99.3203 47.6393 99.3203Z" fill="#666E73"/>
<path d="M56.4196 87.3864V82.6108C56.4196 80.132 55.4364 77.7547 53.6863 76.002C51.9361 74.2492 49.5624 73.2645 47.0874 73.2645C44.6123 73.2645 42.2386 74.2492 40.4885 76.002C38.7384 77.7547 37.7551 80.132 37.7551 82.6108V87.3864H35.6924V82.5661C35.6924 79.5426 36.8917 76.6429 39.0264 74.5049C41.1611 72.367 44.0564 71.1659 47.0753 71.1659C50.0943 71.1659 52.9896 72.367 55.1243 74.5049C57.259 76.6429 58.4583 79.5426 58.4583 82.5661V87.3864H56.4196Z" fill="#BABCBE"/>
<path d="M32.9803 86.5429C32.7147 86.9375 32.5932 87.4118 32.6365 87.8857V89.6314C32.5932 90.1053 32.7147 90.5796 32.9803 90.9742L33.5544 91.6628V85.8784L32.9803 86.5429Z" fill="#BABCBE"/>
<path d="M36.6523 84.4702H35.5521C34.449 84.4702 33.5547 85.3658 33.5547 86.4706V91.0465C33.5547 92.1513 34.449 93.047 35.5521 93.047H36.6523C37.7554 93.047 38.6497 92.1513 38.6497 91.0465V86.4706C38.6497 85.3658 37.7554 84.4702 36.6523 84.4702Z" fill="#666E73"/>
<path d="M61.3564 86.5429C61.622 86.9375 61.7434 87.4118 61.7001 87.8857V89.6314C61.7434 90.1053 61.622 90.5796 61.3564 90.9742L60.7822 91.6628V85.8784L61.3564 86.5429Z" fill="#BABCBE"/>
<path d="M57.6817 93.0469H58.7819C59.885 93.0469 60.7793 92.1513 60.7793 91.0465V86.4706C60.7793 85.3658 59.885 84.4701 58.7819 84.4701H57.6817C56.5786 84.4701 55.6843 85.3658 55.6843 86.4706V91.0465C55.6843 92.1513 56.5786 93.0469 57.6817 93.0469Z" fill="#666E73"/>
<path d="M137.486 99.5957C138.945 99.5957 140.344 99.0153 141.376 97.9822C142.408 96.949 142.987 95.5478 142.987 94.0867H144.084C144.084 94.9562 143.913 95.8172 143.581 96.6205C143.248 97.4238 142.761 98.1537 142.147 98.7686C141.534 99.3834 140.805 99.8711 140.003 100.204C139.201 100.537 138.341 100.708 137.473 100.708L137.486 99.5957Z" fill="#BABCBE"/>
<path d="M134.588 101.369H136.651C137.218 101.369 137.679 100.908 137.679 100.339V100.185C137.679 99.616 137.218 99.155 136.651 99.155H134.588C134.02 99.155 133.56 99.616 133.56 100.185V100.339C133.56 100.908 134.02 101.369 134.588 101.369Z" fill="#666E73"/>
<path d="M142.932 90.0204V85.479C142.932 83.1221 141.997 80.8617 140.333 79.1951C138.669 77.5285 136.412 76.5923 134.059 76.5923C131.706 76.5923 129.449 77.5285 127.785 79.1951C126.12 80.8617 125.186 83.1221 125.186 85.479V90.0204H123.236V85.4445C123.236 82.568 124.377 79.8094 126.408 77.7754C128.439 75.7414 131.194 74.5987 134.066 74.5987C136.938 74.5987 139.692 75.7414 141.723 77.7754C143.754 79.8094 144.895 82.568 144.895 85.4445V90.0204H142.932Z" fill="#BABCBE"/>
<path d="M120.647 89.2182C120.388 89.5909 120.266 90.0427 120.303 90.4955V92.1551C120.266 92.608 120.388 93.0598 120.647 93.4325L121.194 94.073V88.564L120.647 89.2182Z" fill="#BABCBE"/>
<path d="M123.077 87.2487H124.109C124.613 87.2487 125.097 87.4493 125.453 87.8064C125.81 88.1635 126.01 88.6478 126.01 89.1528V93.5049C126.01 94.0098 125.81 94.4941 125.453 94.8512C125.097 95.2083 124.613 95.4089 124.109 95.4089H123.077C122.574 95.4089 122.091 95.2087 121.736 94.8522C121.38 94.4958 121.18 94.0124 121.18 93.5083V89.1493C121.18 88.8997 121.229 88.6526 121.324 88.422C121.42 88.1914 121.559 87.9819 121.736 87.8054C121.912 87.6289 122.121 87.4889 122.351 87.3934C122.581 87.2979 122.828 87.2487 123.077 87.2487Z" fill="#666E73"/>
<path d="M147.628 89.2182C147.887 89.5909 148.009 90.0427 147.971 90.4955V92.1551C148.009 92.608 147.887 93.0598 147.628 93.4325L147.081 94.073V88.564L147.628 89.2182Z" fill="#BABCBE"/>
<path d="M145.184 95.402H144.152C143.648 95.402 143.165 95.2014 142.808 94.8444C142.452 94.4873 142.251 94.003 142.251 93.498V89.1459C142.251 88.6409 142.452 88.1566 142.808 87.7995C143.165 87.4425 143.648 87.2418 144.152 87.2418H145.184C145.688 87.2418 146.172 87.4425 146.528 87.7995C146.885 88.1566 147.085 88.6409 147.085 89.1459V93.5014C147.085 93.7513 147.036 93.9987 146.94 94.2296C146.845 94.4604 146.705 94.67 146.528 94.8466C146.351 95.0231 146.142 95.163 145.911 95.2583C145.68 95.3537 145.433 95.4025 145.184 95.402Z" fill="#666E73"/>
<path d="M72.2202 68.6903L70.5838 62.0657L64.9525 59.6865L63.8867 63.4981L66.9052 67.3061L67.3246 70.6804L72.2202 68.6903Z" fill="#FFBFA4"/>
<path d="M53.2705 102.233L70.883 95.1403L65.3651 67.3371L71.715 66.5831L82.3622 95.5948L80.1688 104.385L60.2392 117.834L53.2705 102.233Z" fill="#FDB037"/>
<path d="M112.785 1.10529e-05L17.3204 0.413186C14.9407 0.434083 12.6658 1.39623 10.9914 3.0899C9.31704 4.78357 8.37903 7.07144 8.38184 9.45482L8.58468 56.9079C8.60555 59.2912 9.56624 61.5696 11.2574 63.2465C12.9485 64.9234 15.2329 65.8629 17.6127 65.86L83.7549 65.5743L99.4731 86.8183L102.223 65.4951L113.08 65.4469C115.46 65.426 117.735 64.4638 119.409 62.7702C121.084 61.0765 122.022 58.7886 122.019 56.4052L121.816 8.95213C121.795 6.56824 120.834 4.28931 119.142 2.61231C117.45 0.935308 115.165 -0.00371608 112.785 1.10529e-05Z" fill="#4FCA30"/>
<path d="M145.033 145.086L146.71 147.545L143.307 151.983L139.525 151.673L137.665 148.75L140.041 147.042L139.711 146.35L140.185 145.313L145.033 145.086Z" fill="#FFBFA4"/>
<path d="M144.648 101.741L164.168 124.231L165.124 134.086L145.868 149.308L142.413 144.301L154.865 130.983L142.802 119.156L144.648 101.741Z" fill="#4FCA30"/>
</g>
<defs>
<clipPath id="clip0">
<rect width="221" height="258" fill="white"/>
</clipPath>
</defs>
</svg>
