<svg width="30" height="29" viewBox="0 0 30 29" fill="none" xmlns="http://www.w3.org/2000/svg">
<g clip-path="url(#clip0)">
<path d="M29.63 2.03824C29.6295 1.49781 29.4181 0.979656 29.0421 0.597515C28.6661 0.215375 28.1563 0.000478679 27.6245 0H2.00545C1.47372 0.000478679 0.963897 0.215375 0.587903 0.597515C0.21191 0.979656 0.000470979 1.49781 0 2.03824L0 26.0868C0.000470979 26.6272 0.21191 27.1453 0.587903 27.5275C0.963897 27.9096 1.47372 28.1245 2.00545 28.125H27.6245C28.1563 28.1245 28.6661 27.9096 29.0421 27.5275C29.4181 27.1453 29.6295 26.6272 29.63 26.0868V2.03824ZM27.1247 25.5797H2.50793V2.54893H27.1247V25.5797Z" fill="#8C8787"/>
<path d="M18.2918 13.1875C18.5297 12.9525 18.6663 12.6313 18.6716 12.2942C18.6769 11.957 18.5506 11.6315 18.3203 11.3888L11.9944 5.32473C11.8806 5.20116 11.7436 5.10188 11.5916 5.0327C11.4396 4.96351 11.2755 4.92581 11.109 4.92178C10.9425 4.91775 10.7768 4.94748 10.6217 5.00924C10.4666 5.071 10.3252 5.16354 10.2057 5.28146C10.0862 5.39939 9.99098 5.54033 9.92565 5.69607C9.86033 5.8518 9.82618 6.0192 9.82522 6.18849C9.82425 6.35778 9.85648 6.52557 9.92002 6.68207C9.98357 6.83856 10.0772 6.98062 10.1953 7.09994L16.5176 13.1559C16.632 13.2765 16.7687 13.373 16.9198 13.4398C17.0709 13.5067 17.2335 13.5426 17.3983 13.5455C17.563 13.5485 17.7268 13.5184 17.8801 13.4569C18.0334 13.3955 18.1733 13.304 18.2918 13.1875Z" fill="#8C8787"/>
<path d="M25.4352 14.8733C25.5534 14.7567 25.6478 14.6176 25.7131 14.464C25.7785 14.3103 25.8133 14.1451 25.8158 13.9777C25.8183 13.8104 25.7883 13.6441 25.7276 13.4885C25.6668 13.333 25.5765 13.1911 25.4618 13.0709L16.7375 4.75076C16.6252 4.62134 16.4882 4.51643 16.3348 4.44242C16.1814 4.3684 16.0149 4.3268 15.8452 4.32016C15.6756 4.31351 15.5063 4.34195 15.3478 4.40376C15.1893 4.46556 15.0448 4.55943 14.923 4.67969C14.8013 4.79995 14.7048 4.94409 14.6395 5.10337C14.5742 5.26265 14.5413 5.43375 14.543 5.6063C14.5447 5.77885 14.5809 5.94925 14.6493 6.10719C14.7177 6.26512 14.8169 6.40729 14.941 6.52507L23.6645 14.8407C23.8953 15.0833 24.2113 15.2229 24.5432 15.229C24.8751 15.2351 25.1959 15.1072 25.4352 14.8733Z" fill="#8C8787"/>
</g>
<defs>
<clipPath id="clip0">
<rect width="29.63" height="28.125" fill="white"/>
</clipPath>
</defs>
</svg>
