<svg width="30" height="30" viewBox="0 0 30 30" fill="none" xmlns="http://www.w3.org/2000/svg">
<g clip-path="url(#clip0)">
<path d="M14.9999 0C23.2847 0 30 6.71625 30 15.0001C30 23.2848 23.2847 30 14.9999 30C6.71522 30 0 23.2847 0 15.0001C0 6.71625 6.71532 0 14.9999 0Z" fill="#3B5998"/>
<path d="M16.8258 10.3265H18.7589V7.47088H16.4864V7.48118C13.733 7.5787 13.1686 9.12649 13.1189 10.7521H13.1132V12.1781H11.2383V14.9746H13.1132V22.4708H15.9389V14.9746H18.2536L18.7007 12.1781H15.9398V11.3166C15.9398 10.7672 16.3054 10.3265 16.8258 10.3265Z" fill="white"/>
</g>
<defs>
<clipPath id="clip0">
<rect width="30" height="30" fill="white"/>
</clipPath>
</defs>
</svg>
