<svg width="30" height="30" fill="none" xmlns="http://www.w3.org/2000/svg"><g clip-path="url(#clip0)"><path d="M15 0c8.285 0 15 6.716 15 15 0 8.285-6.715 15-15 15S0 23.285 0 15C0 6.716 6.715 0 15 0z" fill="#3B5998"/><path d="M16.826 10.326h1.933V7.471h-2.273v.01c-2.753.098-3.317 1.645-3.367 3.271h-.006v1.426h-1.875v2.797h1.875v7.496h2.826v-7.496h2.315l.447-2.797H15.94v-.861c0-.55.365-.99.886-.99z" fill="#fff"/></g><defs><clipPath id="clip0"><path fill="#fff" d="M0 0h30v30H0z"/></clipPath></defs></svg>