<svg width="30" height="30" viewBox="0 0 30 30" fill="none" xmlns="http://www.w3.org/2000/svg">
<g clip-path="url(#clip0)">
<path d="M29.6296 30C29.6239 29.2695 29.5912 6.49492 29.5912 6.49492C29.5912 6.35108 29.5629 6.20864 29.508 6.07575C29.453 5.94286 29.3725 5.82212 29.271 5.72041C29.1695 5.6187 29.049 5.53802 28.9163 5.48297C28.7837 5.42793 28.6415 5.3996 28.4979 5.3996C25.7042 5.3996 22.8039 3.72485 20.2456 2.24743C18.1571 1.04142 16.3538 0 14.8071 0C13.2604 0 11.4572 1.04142 9.36866 2.24743C6.81034 3.72485 3.91001 5.3996 1.11632 5.3996C0.826371 5.3996 0.548294 5.515 0.343267 5.72041C0.13824 5.92582 0.0230566 6.20442 0.0230566 6.49492L0 30H29.6296ZM16.253 27.8094H13.612C11.5734 24.6659 12.7109 23.0652 14.0203 21.224C14.4077 20.7052 14.7607 20.1615 15.0771 19.5964C15.1805 19.8059 15.2546 20.0288 15.2971 20.2586C15.5334 21.5166 14.8369 22.8804 14.6188 23.2096C14.5199 23.3387 14.4509 23.4883 14.4169 23.6475C14.3829 23.8066 14.3847 23.9714 14.4223 24.1298C14.4598 24.2882 14.5321 24.4362 14.6339 24.563C14.7357 24.6899 14.8645 24.7924 15.0108 24.8632C15.3976 25.0526 15.8224 25.1513 16.253 25.1519C16.7604 25.1504 17.2595 25.0217 17.7046 24.7775C17.4971 25.9181 16.7055 27.2088 16.253 27.8094ZM19.5741 26.2164C19.7444 25.7378 19.8589 25.2411 19.9151 24.7361C20.0285 23.6167 19.7518 22.6186 19.1168 21.8486C19.0142 21.7252 18.8857 21.6259 18.7406 21.5577C18.5954 21.4895 18.437 21.4542 18.2767 21.4542C18.1163 21.4542 17.958 21.4895 17.8128 21.5577C17.6676 21.6259 17.5391 21.7252 17.4365 21.8486C17.5223 21.377 17.549 20.8966 17.5163 20.4184C17.4029 18.8697 16.6027 17.5472 15.2029 16.5944C15.0423 16.4851 14.8555 16.4206 14.6618 16.4076C14.4681 16.3946 14.2744 16.4335 14.1007 16.5204C13.9269 16.6072 13.7794 16.7388 13.6733 16.9017C13.5671 17.0646 13.5062 17.2529 13.4967 17.4471C13.4583 18.246 12.8934 19.0391 12.2402 19.9573C11.1238 21.5262 9.69241 23.5378 10.5791 26.5023C9.89896 25.8738 9.36866 24.945 9.29372 23.5263C9.2284 22.2827 9.35809 21.1855 9.47241 20.2172C9.68184 18.4385 9.88263 16.7397 8.59146 15.3556C8.90969 15.2366 9.24706 15.1772 9.58673 15.1805C10.3005 15.1805 10.9769 15.4211 11.4447 15.8407C11.6125 15.9927 11.8233 16.0888 12.0479 16.1158C12.2726 16.1427 12.5 16.0991 12.6989 15.9911C12.8978 15.8831 13.0583 15.7159 13.1584 15.5126C13.2584 15.3093 13.2931 15.08 13.2575 14.8561C12.9693 13.0043 13.2729 11.4527 14.101 10.4854C14.4857 10.0311 15 9.70565 15.5747 9.55276C14.6678 11.9975 16.6555 14.1833 18.3165 16.0092C19.7297 17.5636 21.19 19.17 21.5128 21.0267C21.8077 22.7726 21.1438 24.7948 19.5741 26.2164ZM2.20959 7.52575C5.2031 7.18117 8.08998 5.51317 10.461 4.1445C12.2008 3.13966 13.8455 2.19064 14.8071 2.19064C15.7688 2.19064 17.4135 3.13966 19.1543 4.14546C21.5252 5.51413 24.4121 7.18214 27.4056 7.52671V27.8094H21.0295C21.4288 27.4524 21.7948 27.0597 22.1228 26.6361C23.4802 24.8747 24.0269 22.7495 23.6599 20.6532C23.2285 18.1681 21.4743 16.2382 19.9267 14.5356C17.3693 11.7232 16.887 10.7472 18.3665 9.24187C18.5033 9.10265 18.6005 8.92929 18.648 8.73975C18.6954 8.55021 18.6914 8.35141 18.6363 8.16396C18.5812 7.97651 18.4771 7.80724 18.3347 7.67369C18.1923 7.54015 18.0169 7.44719 17.8266 7.40447C17.3757 7.30252 16.915 7.25056 16.4528 7.24951C14.8619 7.24951 13.4353 7.89149 12.4361 9.05804C11.5379 10.1072 11.0383 11.5268 10.9701 13.1679C10.5181 13.0463 10.0519 12.9851 9.58385 12.986C7.91129 12.986 6.51637 13.7377 5.94283 14.9485C5.82716 15.1931 5.80594 15.4719 5.88329 15.7312C5.96063 15.9905 6.13105 16.2119 6.3617 16.3528C7.57793 17.0949 7.55583 17.8062 7.30125 19.9573C7.17636 21.0161 7.0361 22.2086 7.10911 23.6389C7.20999 25.559 7.90168 26.8834 8.78071 27.8094H2.20959V7.52575Z" fill="#8C8787"/>
</g>
<defs>
<clipPath id="clip0">
<rect width="29.6296" height="30" fill="white"/>
</clipPath>
</defs>
</svg>
