<svg width="204" height="210" viewBox="0 0 204 210" fill="none" xmlns="http://www.w3.org/2000/svg">
<g clip-path="url(#clip0)">
<g opacity="0.4">
<path opacity="0.4" d="M93.5893 180.346C87.6154 180.37 81.6414 180.56 75.6846 181.436C73.4362 181.781 71.236 182.495 68.9807 182.789C64.4804 183.375 60.0593 184.469 55.5522 184.973C51.9127 185.38 48.2595 185.618 44.6338 186.136C41.1214 186.635 37.5477 186.49 34.0872 185.708C31.5874 185.118 29.0808 184.783 26.6223 183.834C23.8677 182.771 20.8894 182.012 18.0143 182.04C13.9306 182.078 9.95716 182.085 6.04911 183.958C4.67183 184.617 2.99843 185.684 1.95858 187.064C-0.424126 190.225 -0.747788 198.106 1.63147 201.398C5.63937 206.919 14.1992 209.082 19.8185 209.186C25.9784 209.296 31.9593 208.692 38.1261 208.337C43.8556 207.992 49.5748 207.536 55.3146 207.554C67.0387 207.588 78.7663 207.554 90.4664 206.518C101.461 205.545 112.486 205.88 123.521 205.88C134.822 205.88 146.043 205.997 157.265 207.985C162.154 208.851 167.133 209.155 172.046 209.759C176.447 210.3 180.675 209.759 185.055 209.244C188.852 208.8 192.501 207.503 195.729 205.449C198.377 203.775 203.094 198.579 203.903 194.586C206.179 183.392 171.843 183.662 166.568 183.686C160.67 183.713 154.727 183.972 148.832 183.686C146.353 183.562 143.912 182.92 141.491 182.216C139.071 181.512 136.654 181.695 134.209 181.401C124.017 180.177 113.804 180.366 103.564 180.366C100.249 180.373 96.9189 180.335 93.5893 180.346Z" fill="#D8D8D8"/>
</g>
<path d="M42.3887 49.1711L47.1059 50.4167L66.9732 67.8354L63.9914 77.2935H54.3091L42.3887 49.1711Z" fill="#71C3CC"/>
<path d="M156.105 56.6382L139.963 68.8326L126.308 71.3205V76.2962L146.34 74.6986L164.796 65.099L161.318 54.7473L156.105 56.6382Z" fill="#BA1717"/>
<path d="M177.77 190.697L178.011 193.085L173.686 196.066L171.162 193.972L173.204 191.287L177.529 188.306L177.77 190.697Z" fill="#1D1815"/>
<path d="M177.663 117.648L178.396 124.905L171.909 149.835L177.932 189.897L173.5 191.429L161.81 152.316L159.958 140.94L160.023 116.851L177.663 117.648Z" fill="#D2B5A1"/>
<path d="M143.572 125.736L152.896 192.864H157.135L157.896 149.835L165.609 119.632L143.572 125.736Z" fill="#D2B5A1"/>
<path d="M157.11 192.333V194.745L152.528 197.157L150.234 194.745L152.528 192.333H157.11Z" fill="#1D1815"/>
<path d="M177.429 109.584C173.81 85.7474 175.101 68.3875 174.915 63.6222C174.868 62.234 174.53 60.8713 173.922 59.6228C173.315 58.3743 172.452 57.268 171.39 56.3759C169.926 56.0481 168.635 55.1027 167.172 54.73C157.166 52.2076 151.705 59.8645 147.958 68.1252C143.347 78.3095 139.461 88.8083 136.331 99.5429C133.576 108.956 130.822 118.456 129.668 128.228C129.193 132.258 128.794 136.081 133.201 137.862C140.218 140.695 148.107 140.622 155.52 141.544C164.035 142.579 172.56 143.352 181.134 143.707C185.589 143.89 181.048 133.417 177.429 109.584Z" fill="#E51010"/>
<path d="M158.557 18.4228C128.198 19.0232 116.064 2.55002 114.463 0.169109C114.463 0.169109 114.463 -0.0379267 114.37 0.024184C114.308 -0.0724327 114.229 0.120801 114.229 0.120801C111.843 1.72533 94.4096 12.3911 66.5196 0.34509C66.5196 0.34509 51.786 51.9764 64.5741 76.7275C78.2368 103.173 92.1887 113.1 92.2782 113.055C92.3436 113.131 109.105 109.374 131.603 89.8985C152.652 71.6759 158.557 18.4228 158.557 18.4228Z" fill="#D6861D"/>
<path d="M153.223 22.9879C125.712 23.4262 114.659 8.71969 113.196 6.58377C113.196 6.58377 113.196 6.39744 113.11 6.4561C113.055 6.36984 112.983 6.54236 112.983 6.54236C110.827 7.97091 95.0503 17.4083 69.7221 6.59412C69.7221 6.59412 56.5277 52.5423 68.207 74.64C80.6784 98.2386 93.1049 108.37 93.1841 108.332C93.2426 108.397 108.679 103.846 129.028 86.5928C148.059 70.4095 153.223 22.9879 153.223 22.9879Z" fill="#FDB037"/>
<path d="M112.073 11.1455C112.073 11.1455 112.149 10.9661 112.207 11.0558C112.297 10.9971 112.297 11.1904 112.297 11.1904C113.795 13.3849 124.961 28.2329 152.582 28.3812C153.385 23.5918 153.715 20.5587 153.715 20.5587C126.18 20.997 115.127 6.2905 113.667 4.14078C113.667 4.14078 113.667 3.95445 113.581 4.01311C113.526 3.92684 113.454 4.09937 113.454 4.09937C111.298 5.52792 95.5215 14.9653 70.1932 4.15113C70.1932 4.15113 69.3531 7.08069 68.2822 11.8149C93.9204 22.146 109.856 12.612 112.073 11.1455Z" fill="#FDB037"/>
<g opacity="0.34">
<path opacity="0.34" d="M142.866 34.4405C122.052 34.8511 111.45 22.6222 110.352 20.9831C110.352 20.9831 110.352 20.8417 110.287 20.8865C110.245 20.821 110.19 20.9521 110.19 20.9521C108.555 22.0563 94.2654 29.375 75.1453 21.1246C75.1453 21.1246 67.3843 56.5105 76.1507 73.4805C85.5162 91.6065 95.0883 98.4077 95.14 98.3766C95.1848 98.4284 106.675 95.8542 122.1 82.5039C136.534 70.0023 142.866 34.4405 142.866 34.4405Z" fill="white"/>
</g>
<path d="M174.977 69.288L151.883 86.4996L125.859 85.0573L126.007 79.7882L148.268 77.2934L165.845 62.1902L175.256 59.2882L174.977 69.288Z" fill="#BA1717"/>
<path d="M126.046 79.9159L120.185 79.7571L117.352 82.6522L118.147 84.2291L121.463 84.8433L125.901 83.5873L126.046 79.9159Z" fill="#FFD8B8"/>
<path d="M161.28 31.7628C161.28 31.7628 158.071 33.2845 157.334 41.6419C156.597 49.9992 154.531 55.0992 154.531 55.0992C154.531 55.0992 156.979 57.0419 159.3 56.2862C161.621 55.5305 162.433 55.465 162.492 52.0075C162.55 48.55 164.902 32.5875 164.902 32.5875L161.28 31.7628Z" fill="#242449"/>
<path d="M167.22 36.1278C165.586 36.1959 164.008 36.742 162.68 37.6986C161.353 38.6551 160.333 39.9804 159.749 41.5107C159.105 40.5195 158.709 39.3881 158.592 38.2115C158.475 37.0349 158.642 35.8474 159.077 34.7486C159.513 33.6498 160.205 32.6717 161.096 31.8964C161.987 31.1211 163.05 30.5712 164.197 30.2928C165.85 31.797 166.849 33.8906 166.979 36.1244L167.22 36.1278Z" fill="#242449"/>
<path d="M160.003 38.6847C163.646 30.7483 173.676 34.7579 174.981 42.2595C175.721 46.5244 173.466 53.9363 168.384 53.9915C168.129 54.7127 167.695 56.0619 167.006 56.4276C166.266 56.8107 164.472 55.8238 163.763 55.4615C163.558 55.3773 163.38 55.2375 163.25 55.0578C163.109 54.8197 163.202 54.3021 163.339 53.7362C162.773 53.5528 162.231 53.2989 161.728 52.9805C159.51 51.583 158.316 48.9019 158.199 46.276C158.081 43.6501 158.908 41.0621 160.003 38.6847Z" fill="#FFD8B8"/>
<path d="M164.403 30.3205C164.403 30.3205 162.279 34.5958 167.736 37.2907C173.194 39.9856 175.821 45.4444 173.641 49.9751C171.462 54.5057 166.307 56.9625 168.27 58.781C170.233 60.5995 178.806 61.4207 178.806 61.4207C178.806 61.4207 187.999 45.824 183.034 36.8455C178.069 27.8671 168.346 25.1618 164.403 30.3205Z" fill="#242449"/>
<path d="M58.511 103.383L59.4131 141.889L52.7574 191.626L47.1897 191.691L43.1301 145.919L34.9697 100.195L58.511 103.383Z" fill="#4FCA30"/>
<path d="M47.2129 191.029L47.2508 194.044L53.3074 196.991L56.2823 193.937L53.2351 190.956L47.2129 191.029Z" fill="#242449"/>
<path d="M28.2656 192.481L33.0552 196.56L31.8569 198.958L23.001 197.04V192.481H28.2656Z" fill="#242449"/>
<path d="M39.2044 118.532L35.2241 155.853L29.9732 193.054L22.4842 192.695L22.7562 154.104L18.249 118.311L28.8369 113.37L39.2044 118.532Z" fill="#4FCA30"/>
<path d="M43.6182 49.9199C43.6182 49.9199 52.8667 56.0481 58.7442 75.9236C64.7285 96.1648 63.8471 122.938 63.8471 122.938C63.8471 122.938 11.2417 131.861 12.3332 123.079C12.3332 123.079 10.6116 52.1559 33.9359 50.4168C34.9929 50.3374 43.0397 49.4782 43.6182 49.9199Z" fill="#71C3CC"/>
<path d="M41.3832 51.9109C45.3532 61.607 48.3282 70.7546 52.4015 80.4059C54.8117 86.1235 54.8427 92.1 55.1871 98.1903L56.22 116.358L56.6539 124.035L34.6689 126.347C35.936 119.011 37.3822 111.706 38.515 104.346C39.548 97.5588 41.1594 89.9399 39.913 83.0974C39.307 79.7675 38.6527 76.4377 38.0295 73.1079C36.8864 66.9969 36.3768 60.7478 35.182 54.6472C35.0993 54.2193 36.0393 51.8384 36.1736 51.4105L41.3832 51.9109Z" fill="white"/>
<path d="M41.2909 52.2766L36.1537 51.4485C36.2205 50.062 36.3979 48.6831 36.6839 47.325C35.2791 46.7315 33.6642 45.8723 33.5058 44.3506C33.4829 43.8681 33.5411 43.3852 33.678 42.922L35.0553 37.1078C35.1695 36.4267 35.4163 35.7748 35.7818 35.1892C36.4877 34.2093 37.7685 33.8401 38.9668 33.7055C42.0243 33.3604 45.2816 34.2196 47.5094 36.3521C48.1275 36.8974 48.5917 37.5959 48.8557 38.3776C49.2 39.5922 48.8109 40.8862 48.4184 42.087L47.3269 45.4168C46.9068 46.6935 46.3284 48.1359 45.0509 48.5465C44.3623 48.7639 43.5944 48.6397 42.985 48.9882C41.8625 49.5989 41.9107 51.1828 41.2909 52.2766Z" fill="#FFD8B8"/>
<path d="M59.3473 33.7503C59.444 32.4309 59.3839 31.1046 59.1683 29.7994C58.824 27.6669 56.4137 26.5662 54.2858 26.2832C49.6753 25.6725 45.3335 23.2916 40.7127 24.6339C38.0717 25.3999 34.5837 25.4068 32.1632 26.5696C31.1619 27.0859 30.3015 27.8392 29.6565 28.7642C28.522 30.3557 27.8559 32.2343 27.7342 34.1863C27.6124 36.1384 28.0399 38.0855 28.9679 39.8061C29.4025 40.5628 29.9026 41.2798 30.4622 41.949C31.6019 43.3499 32.962 45.0752 34.5941 45.6687C34.7249 44.1677 33.6437 39.3369 34.873 38.174C36.8218 36.3279 40.9193 37.263 43.1608 37.8842C45.6055 38.5743 47.7058 40.4514 50.1402 40.9897C51.8893 41.3658 54.1997 40.6446 55.7561 39.813C58.1904 38.4984 59.1373 36.1727 59.3473 33.7503Z" fill="#242449"/>
<path d="M29.4185 51.7383L0.905273 69.0811L7.93631 75.6441L23.5031 70.3233L29.4185 51.7383Z" fill="#71C3CC"/>
<path d="M32.411 83.0421L9.21404 64.2191L0 69.6952L2.85787 76.1237L29.3706 87.069L32.411 83.0421Z" fill="#86D1D1"/>
<path d="M31.4229 84.2499L34.5665 86.8102L35.4342 92.8005L32.931 93.7425L30.5104 90.7059L29.4189 86.8999L31.4229 84.2499Z" fill="#FFD8B8"/>
</g>
<defs>
<clipPath id="clip0">
<rect width="204" height="210" fill="white"/>
</clipPath>
</defs>
</svg>
