<svg width="25" height="25" viewBox="0 0 25 25" fill="none" xmlns="http://www.w3.org/2000/svg">
<g clip-path="url(#clip0)">
<path d="M17.5526 0H7.44779C3.34119 0 0.000293732 3.34091 0.000293732 7.44752V17.5524C0.000293732 21.6588 3.34119 25 7.44787 25H17.5527C21.6591 25 25.0003 21.659 25.0003 17.5524V7.44752C25.0002 3.34091 21.6592 0 17.5526 0ZM22.4852 17.5525C22.4852 20.2766 20.2768 22.485 17.5527 22.485H7.44787C4.72373 22.485 2.51535 20.2766 2.51535 17.5525V7.4476C2.51535 4.72346 4.72373 2.51498 7.44787 2.51498H17.5527C20.2768 2.51498 22.4852 4.72354 22.4852 7.4476V17.5525Z" fill="white"/>
<path d="M12.917 6.6665C9.47076 6.6665 6.66687 9.47039 6.66687 12.9166C6.66687 16.3626 9.47076 19.1665 12.917 19.1665C16.3632 19.1665 19.1669 16.3629 19.1669 12.9166C19.1669 9.47039 16.3632 6.6665 12.917 6.6665ZM12.917 16.7355C10.8078 16.7355 9.09789 15.0259 9.09789 12.9166C9.09789 10.8074 10.8078 9.09752 12.917 9.09752C15.0262 9.09752 16.7359 10.8073 16.7359 12.9166C16.7359 15.0258 15.0262 16.7355 12.917 16.7355Z" fill="white"/>
</g>
<defs>
<clipPath id="clip0">
<rect width="25" height="25" fill="white"/>
</clipPath>
</defs>
</svg>
