<svg width="35" height="35" viewBox="0 0 35 35" fill="none" xmlns="http://www.w3.org/2000/svg">
<g clip-path="url(#clip0)">
<path d="M24.5737 0H10.427C4.67774 0 0.000488281 4.67727 0.000488281 10.4265V24.5733C0.000488281 30.3224 4.67774 35 10.4271 35H24.5739C30.3229 35 35.0005 30.3226 35.0005 24.5733V10.4265C35.0004 4.67727 30.323 0 24.5737 0ZM31.4794 24.5735C31.4794 28.3873 28.3877 31.479 24.5739 31.479H10.4271C6.6133 31.479 3.52157 28.3873 3.52157 24.5735V10.4266C3.52157 6.61284 6.6133 3.52097 10.4271 3.52097H24.5739C28.3877 3.52097 31.4794 6.61296 31.4794 10.4266V24.5735Z" fill="url(#paint0_linear)"/>
<path d="M18.0842 9.33331C13.2594 9.33331 9.33398 13.2588 9.33398 18.0835C9.33398 22.9079 13.2594 26.8333 18.0842 26.8333C22.9089 26.8333 26.834 22.9082 26.834 18.0835C26.834 13.2588 22.9089 9.33331 18.0842 9.33331ZM18.0842 23.4299C15.1313 23.4299 12.7374 21.0365 12.7374 18.0835C12.7374 15.1305 15.1313 12.7367 18.0842 12.7367C21.037 12.7367 23.4306 15.1304 23.4306 18.0835C23.4306 21.0363 21.037 23.4299 18.0842 23.4299Z" fill="url(#paint1_linear)"/>
</g>
<defs>
<linearGradient id="paint0_linear" x1="5.27122" y1="32.7868" x2="32.7874" y2="4.25161" gradientUnits="userSpaceOnUse">
<stop stop-color="#FEB40C"/>
<stop offset="0.491713" stop-color="#F44336"/>
<stop offset="1" stop-color="#A429A6"/>
</linearGradient>
<linearGradient id="paint1_linear" x1="13.1589" y1="24.9792" x2="24.98" y2="13.1581" gradientUnits="userSpaceOnUse">
<stop stop-color="#FEB40C"/>
<stop offset="0.536935" stop-color="#F44336"/>
<stop offset="1" stop-color="#A429A6"/>
</linearGradient>
<clipPath id="clip0">
<rect width="35" height="35" fill="white"/>
</clipPath>
</defs>
</svg>
