<svg width="30" height="30" viewBox="0 0 30 30" fill="none" xmlns="http://www.w3.org/2000/svg">
<path d="M15 30C23.2843 30 30 23.2843 30 15C30 6.71573 23.2843 0 15 0C6.71573 0 0 6.71573 0 15C0 23.2843 6.71573 30 15 30Z" fill="url(#paint0_linear)"/>
<path d="M18.4703 6.41412H11.5295C8.70883 6.41412 6.41406 8.70889 6.41406 11.5296V18.4703C6.41406 21.2909 8.70883 23.5858 11.5296 23.5858H18.4703C21.2909 23.5858 23.5858 21.291 23.5858 18.4703V11.5296C23.5858 8.70889 21.291 6.41412 18.4703 6.41412ZM21.8583 18.4704C21.8583 20.3415 20.3414 21.8584 18.4703 21.8584H11.5296C9.65846 21.8584 8.14158 20.3415 8.14158 18.4704V11.5296C8.14158 9.65852 9.65846 8.14158 11.5296 8.14158H18.4703C20.3414 8.14158 21.8583 9.65858 21.8583 11.5296V18.4704Z" fill="white"/>
<path d="M14.9999 10.5587C12.551 10.5587 10.5586 12.5511 10.5586 15C10.5586 17.4487 12.551 19.4411 14.9999 19.4411C17.4488 19.4411 19.441 17.4488 19.441 15C19.441 12.5511 17.4488 10.5587 14.9999 10.5587ZM14.9999 17.7136C13.5011 17.7136 12.2861 16.4988 12.2861 15C12.2861 13.5011 13.5011 12.2861 14.9999 12.2861C16.4987 12.2861 17.7135 13.5011 17.7135 15C17.7135 16.4987 16.4987 17.7136 14.9999 17.7136Z" fill="white"/>
<defs>
<linearGradient id="paint0_linear" x1="7" y1="26.5" x2="30" y2="8" gradientUnits="userSpaceOnUse">
<stop stop-color="#FEB40C"/>
<stop offset="0.508287" stop-color="#F44336"/>
<stop offset="0.994475" stop-color="#9C27B0"/>
</linearGradient>
</defs>
</svg>
