<svg width="129" height="23" viewBox="0 0 129 23" fill="none" xmlns="http://www.w3.org/2000/svg">
<g filter="url(#filter0_d)">
<path d="M62.984 18.2422L63.0621 18.5449L63.15 18.2422L67.6227 5.78125H68.941L63.648 20H62.4957L57.2027 5.78125H58.5113L62.984 18.2422ZM83.4117 13.6621C83.4117 14.9707 83.1838 16.1198 82.7281 17.1094C82.2789 18.099 81.6344 18.8607 80.7945 19.3945C79.9547 19.9284 78.9846 20.1953 77.8844 20.1953C76.2242 20.1953 74.8831 19.6029 73.8609 18.418C72.8388 17.2266 72.3277 15.6217 72.3277 13.6035V12.1387C72.3277 10.8431 72.5556 9.69727 73.0113 8.70117C73.4736 7.69857 74.1246 6.93034 74.9644 6.39648C75.8043 5.85612 76.7711 5.58594 77.8648 5.58594C78.9586 5.58594 79.9221 5.84961 80.7555 6.37695C81.5953 6.9043 82.2431 7.64974 82.6988 8.61328C83.1546 9.57682 83.3922 10.6934 83.4117 11.9629V13.6621ZM82.2105 12.1191C82.2105 10.4069 81.8232 9.06576 81.0484 8.0957C80.2737 7.12565 79.2125 6.64062 77.8648 6.64062C76.5432 6.64062 75.4885 7.12891 74.7008 8.10547C73.9195 9.07552 73.5289 10.4329 73.5289 12.1777V13.6621C73.5289 15.3483 73.9195 16.6862 74.7008 17.6758C75.482 18.6589 76.5432 19.1504 77.8844 19.1504C79.245 19.1504 80.3062 18.6654 81.068 17.6953C81.8297 16.7188 82.2105 15.3613 82.2105 13.623V12.1191ZM88.4391 20V5.78125H92.4137C93.579 5.78125 94.624 6.04818 95.5484 6.58203C96.4729 7.10938 97.1923 7.86784 97.7066 8.85742C98.2275 9.84701 98.4879 10.9733 98.4879 12.2363V13.5449C98.4879 14.8145 98.2307 15.9408 97.7164 16.9238C97.2021 17.9069 96.4762 18.6654 95.5387 19.1992C94.6077 19.7331 93.5367 20 92.3258 20H88.4391ZM89.6402 6.80664V18.9844H92.3355C93.8329 18.9844 95.0341 18.4896 95.9391 17.5C96.844 16.5039 97.2965 15.1595 97.2965 13.4668V12.2168C97.2965 10.5827 96.8505 9.27409 95.9586 8.29102C95.0667 7.30794 93.8915 6.81315 92.4332 6.80664H89.6402ZM111.005 16.0156H104.55L103.086 20H101.826L107.207 5.78125H108.349L113.73 20H112.48L111.005 16.0156ZM104.921 14.9902H110.625L107.773 7.24609L104.921 14.9902Z" fill="#0A0A0A"/>
<path d="M12.9492 13.2129C12.9492 14.6126 12.7018 15.8398 12.207 16.8945C11.7122 17.9492 11.0026 18.763 10.0781 19.3359C9.16016 19.9089 8.10547 20.1953 6.91406 20.1953C5.73568 20.1953 4.68424 19.9121 3.75977 19.3457C2.83529 18.7793 2.11914 17.972 1.61133 16.9238C1.10352 15.8691 0.846354 14.6582 0.839844 13.291V12.5879C0.839844 11.1882 1.09049 9.95768 1.5918 8.89648C2.09961 7.82878 2.8125 7.01172 3.73047 6.44531C4.65495 5.8724 5.70964 5.58594 6.89453 5.58594C8.07943 5.58594 9.13086 5.8724 10.0488 6.44531C10.9733 7.01172 11.6862 7.82878 12.1875 8.89648C12.6953 9.95768 12.9492 11.1849 12.9492 12.5781V13.2129ZM9.98047 12.5684C9.98047 11.0775 9.71354 9.94466 9.17969 9.16992C8.64583 8.39518 7.88411 8.00781 6.89453 8.00781C5.91146 8.00781 5.15299 8.39193 4.61914 9.16016C4.08529 9.92188 3.8151 11.0417 3.80859 12.5195V13.2129C3.80859 14.6647 4.07552 15.791 4.60938 16.5918C5.14323 17.3926 5.91146 17.793 6.91406 17.793C7.89714 17.793 8.65234 17.4089 9.17969 16.6406C9.70703 15.8659 9.97396 14.7396 9.98047 13.2617V12.5684ZM28.3281 18.2031C27.8008 18.8346 27.0553 19.3262 26.0918 19.6777C25.1283 20.0228 24.0605 20.1953 22.8887 20.1953C21.6582 20.1953 20.5775 19.9284 19.6465 19.3945C18.722 18.8542 18.0059 18.0729 17.498 17.0508C16.9967 16.0286 16.7396 14.8275 16.7266 13.4473V12.4805C16.7266 11.0612 16.9642 9.83398 17.4395 8.79883C17.9212 7.75716 18.6113 6.96289 19.5098 6.41602C20.4147 5.86263 21.4727 5.58594 22.6836 5.58594C24.3698 5.58594 25.6882 5.98958 26.6387 6.79688C27.5892 7.59766 28.1523 8.76628 28.3281 10.3027H25.4766C25.3464 9.48893 25.0566 8.89323 24.6074 8.51562C24.1647 8.13802 23.5527 7.94922 22.7715 7.94922C21.7754 7.94922 21.0169 8.32357 20.4961 9.07227C19.9753 9.82096 19.7116 10.9342 19.7051 12.4121V13.3203C19.7051 14.8112 19.9883 15.9375 20.5547 16.6992C21.1211 17.4609 21.9512 17.8418 23.0449 17.8418C24.1452 17.8418 24.9297 17.6074 25.3984 17.1387V14.6875H22.7324V12.5293H28.3281V18.2031ZM44.2734 20H41.3438L35.6406 10.6445V20H32.7109V5.78125H35.6406L41.3535 15.1562V5.78125H44.2734V20ZM57.3867 13.8379H51.7617V17.6465H58.3633V20H48.832V5.78125H58.3438V8.1543H51.7617V11.543H57.3867V13.8379Z" fill="white"/>
</g>
<defs>
<filter id="filter0_d" x="0" y="0" width="130.9" height="24" filterUnits="userSpaceOnUse" color-interpolation-filters="sRGB">
<feFlood flood-opacity="0" result="BackgroundImageFix"/>
<feColorMatrix in="SourceAlpha" type="matrix" values="0 0 0 0 0 0 0 0 0 0 0 0 0 0 0 0 0 0 127 0"/>
<feOffset dx="1" dy="1"/>
<feGaussianBlur stdDeviation="0.5"/>
<feColorMatrix type="matrix" values="0 0 0 0 0 0 0 0 0 0 0 0 0 0 0 0 0 0 0.15 0"/>
<feBlend mode="normal" in2="BackgroundImageFix" result="effect1_dropShadow"/>
<feBlend mode="normal" in="SourceGraphic" in2="effect1_dropShadow" result="shape"/>
</filter>
</defs>
</svg>
