<svg width="31" height="31" viewBox="0 0 31 31" fill="none" xmlns="http://www.w3.org/2000/svg">
<path d="M29.9707 28.227L22.8383 21.0945C24.6063 18.9391 25.6719 16.1781 25.6719 13.1689C25.6719 6.2666 20.0713 0.666016 13.1689 0.666016C6.26055 0.666016 0.666016 6.2666 0.666016 13.1689C0.666016 20.0713 6.26055 25.6719 13.1689 25.6719C16.1781 25.6719 18.933 24.6123 21.0885 22.8443L28.2209 29.9707C28.7053 30.4551 29.4863 30.4551 29.9707 29.9707C30.4551 29.4924 30.4551 28.7053 29.9707 28.227ZM13.1689 23.1834C7.64102 23.1834 3.14844 18.6908 3.14844 13.1689C3.14844 7.64707 7.64102 3.14844 13.1689 3.14844C18.6908 3.14844 23.1895 7.64707 23.1895 13.1689C23.1895 18.6908 18.6908 23.1834 13.1689 23.1834Z" fill="#E51010"/>
</svg>
