<svg width="108" height="14" viewBox="0 0 108 14" fill="none" xmlns="http://www.w3.org/2000/svg">
<path d="M11.6543 6.8916C11.6543 8.15137 11.4316 9.25586 10.9863 10.2051C10.541 11.1543 9.90234 11.8867 9.07031 12.4023C8.24414 12.918 7.29492 13.1758 6.22266 13.1758C5.16211 13.1758 4.21582 12.9209 3.38379 12.4111C2.55176 11.9014 1.90723 11.1748 1.4502 10.2314C0.993164 9.28223 0.761719 8.19238 0.755859 6.96191V6.3291C0.755859 5.06934 0.981445 3.96191 1.43262 3.00684C1.88965 2.0459 2.53125 1.31055 3.35742 0.800781C4.18945 0.285156 5.13867 0.0273438 6.20508 0.0273438C7.27148 0.0273438 8.21777 0.285156 9.04395 0.800781C9.87598 1.31055 10.5176 2.0459 10.9688 3.00684C11.4258 3.96191 11.6543 5.06641 11.6543 6.32031V6.8916ZM8.98242 6.31152C8.98242 4.96973 8.74219 3.9502 8.26172 3.25293C7.78125 2.55566 7.0957 2.20703 6.20508 2.20703C5.32031 2.20703 4.6377 2.55273 4.15723 3.24414C3.67676 3.92969 3.43359 4.9375 3.42773 6.26758V6.8916C3.42773 8.19824 3.66797 9.21191 4.14844 9.93262C4.62891 10.6533 5.32031 11.0137 6.22266 11.0137C7.10742 11.0137 7.78711 10.668 8.26172 9.97656C8.73633 9.2793 8.97656 8.26562 8.98242 6.93555V6.31152ZM25.4953 11.3828C25.0207 11.9512 24.3498 12.3936 23.4826 12.71C22.6154 13.0205 21.6545 13.1758 20.5998 13.1758C19.4924 13.1758 18.5197 12.9355 17.6818 12.4551C16.8498 11.9688 16.2053 11.2656 15.7482 10.3457C15.2971 9.42578 15.0656 8.34473 15.0539 7.10254V6.23242C15.0539 4.95508 15.2678 3.85059 15.6955 2.91895C16.1291 1.98145 16.7502 1.2666 17.5588 0.774414C18.3732 0.276367 19.3254 0.0273438 20.4152 0.0273438C21.9328 0.0273438 23.1193 0.390625 23.9748 1.11719C24.8303 1.83789 25.3371 2.88965 25.4953 4.27246H22.9289C22.8117 3.54004 22.551 3.00391 22.1467 2.66406C21.7482 2.32422 21.1975 2.1543 20.4943 2.1543C19.5979 2.1543 18.9152 2.49121 18.4465 3.16504C17.9777 3.83887 17.7404 4.84082 17.7346 6.1709V6.98828C17.7346 8.33008 17.9895 9.34375 18.4992 10.0293C19.009 10.7148 19.7561 11.0576 20.7404 11.0576C21.7307 11.0576 22.4367 10.8467 22.8586 10.4248V8.21875H20.4592V6.27637H25.4953V11.3828ZM39.8461 13H37.2094L32.0766 4.58008V13H29.4398V0.203125H32.0766L37.2182 8.64062V0.203125H39.8461V13ZM51.648 7.4541H46.5855V10.8818H52.527V13H43.9488V0.203125H52.5094V2.33887H46.5855V5.38867H51.648V7.4541ZM60.6023 9.82715L63.5027 0.203125H66.4383L61.9822 13H59.2313L54.7928 0.203125H57.7195L60.6023 9.82715ZM79.8398 6.8916C79.8398 8.15137 79.6172 9.25586 79.1719 10.2051C78.7266 11.1543 78.0879 11.8867 77.2559 12.4023C76.4297 12.918 75.4805 13.1758 74.4082 13.1758C73.3477 13.1758 72.4014 12.9209 71.5693 12.4111C70.7373 11.9014 70.0928 11.1748 69.6357 10.2314C69.1787 9.28223 68.9473 8.19238 68.9414 6.96191V6.3291C68.9414 5.06934 69.167 3.96191 69.6182 3.00684C70.0752 2.0459 70.7168 1.31055 71.543 0.800781C72.375 0.285156 73.3242 0.0273438 74.3906 0.0273438C75.457 0.0273438 76.4033 0.285156 77.2295 0.800781C78.0615 1.31055 78.7031 2.0459 79.1543 3.00684C79.6113 3.96191 79.8398 5.06641 79.8398 6.32031V6.8916ZM77.168 6.31152C77.168 4.96973 76.9277 3.9502 76.4473 3.25293C75.9668 2.55566 75.2812 2.20703 74.3906 2.20703C73.5059 2.20703 72.8232 2.55273 72.3428 3.24414C71.8623 3.92969 71.6191 4.9375 71.6133 6.26758V6.8916C71.6133 8.19824 71.8535 9.21191 72.334 9.93262C72.8145 10.6533 73.5059 11.0137 74.4082 11.0137C75.293 11.0137 75.9727 10.668 76.4473 9.97656C76.9219 9.2793 77.1621 8.26562 77.168 6.93555V6.31152ZM83.5559 13V0.203125H87.4934C88.6184 0.203125 89.6232 0.458008 90.508 0.967773C91.3986 1.47168 92.093 2.19238 92.591 3.12988C93.0891 4.06152 93.3381 5.12207 93.3381 6.31152V6.90039C93.3381 8.08984 93.092 9.14746 92.5998 10.0732C92.1135 10.999 91.425 11.7168 90.5344 12.2266C89.6438 12.7363 88.6389 12.9941 87.5197 13H83.5559ZM86.1926 2.33887V10.8818H87.467C88.4982 10.8818 89.2863 10.5449 89.8313 9.87109C90.3762 9.19727 90.6545 8.2334 90.6662 6.97949V6.30273C90.6662 5.00195 90.3967 4.01758 89.8576 3.34961C89.3186 2.67578 88.5305 2.33887 87.4934 2.33887H86.1926ZM104.094 10.3633H99.4711L98.5922 13H95.7885L100.552 0.203125H102.996L107.786 13H104.982L104.094 10.3633ZM100.183 8.22754H103.382L101.774 3.4375L100.183 8.22754Z" fill="#E51010"/>
</svg>
