<svg width="40" height="40" viewBox="0 0 40 40" fill="none" xmlns="http://www.w3.org/2000/svg">
<path d="M20 40C31.0277 40 40 31.0277 40 20C40 8.97227 31.0277 0 20 0C8.97227 0 0 8.97227 0 20C0 31.0277 8.97227 40 20 40ZM20 1.99837C29.9266 1.99837 38.0016 10.0734 38.0016 20C38.0016 29.9266 29.9266 38.0016 20 38.0016C10.0734 38.0016 1.99837 29.9266 1.99837 20C1.99837 10.0734 10.0734 1.99837 20 1.99837Z" fill="#E51010"/>
<path d="M11.3128 21.0032H26.272L22.3569 24.9184C21.9654 25.3099 21.9654 25.9379 22.3569 26.3295C22.5526 26.5252 22.8055 26.6231 23.0665 26.6231C23.3275 26.6231 23.5804 26.5252 23.7761 26.3295L29.396 20.7096C29.7875 20.318 29.7875 19.69 29.396 19.2985L23.7761 13.6786C23.3846 13.287 22.7565 13.287 22.365 13.6786C21.9735 14.0701 21.9735 14.6981 22.365 15.0897L26.2802 19.0048H11.3128C10.7582 19.0048 10.3096 19.4534 10.3096 20.0081C10.3096 20.5627 10.7582 21.0032 11.3128 21.0032Z" fill="#E51010"/>
</svg>
