<svg width="53" height="53" viewBox="0 0 53 53" fill="none" xmlns="http://www.w3.org/2000/svg">
<g filter="url(#filter0_d)">
<circle cx="26.5" cy="22.5" r="22.5" fill="#E51010"/>
</g>
<path d="M36.361 30.2168L31.601 25.2662C32.8249 23.8113 33.4954 21.9807 33.4954 20.075C33.4954 15.6225 29.8729 12 25.4205 12C20.968 12 17.3455 15.6225 17.3455 20.075C17.3455 24.5275 20.968 28.15 25.4205 28.15C27.092 28.15 28.6849 27.6458 30.0467 26.6888L34.8429 31.677C35.0434 31.8852 35.313 32 35.602 32C35.8755 32 36.1349 31.8957 36.3319 31.7061C36.7504 31.3034 36.7637 30.6357 36.361 30.2168ZM25.4205 14.1065C28.7115 14.1065 31.3889 16.7839 31.3889 20.075C31.3889 23.3661 28.7115 26.0435 25.4205 26.0435C22.1294 26.0435 19.452 23.3661 19.452 20.075C19.452 16.7839 22.1294 14.1065 25.4205 14.1065Z" fill="white"/>
<defs>
<filter id="filter0_d" x="0" y="0" width="53" height="53" filterUnits="userSpaceOnUse" color-interpolation-filters="sRGB">
<feFlood flood-opacity="0" result="BackgroundImageFix"/>
<feColorMatrix in="SourceAlpha" type="matrix" values="0 0 0 0 0 0 0 0 0 0 0 0 0 0 0 0 0 0 127 0"/>
<feOffset dy="4"/>
<feGaussianBlur stdDeviation="2"/>
<feColorMatrix type="matrix" values="0 0 0 0 0 0 0 0 0 0 0 0 0 0 0 0 0 0 0.2 0"/>
<feBlend mode="normal" in2="BackgroundImageFix" result="effect1_dropShadow"/>
<feBlend mode="normal" in="SourceGraphic" in2="effect1_dropShadow" result="shape"/>
</filter>
</defs>
</svg>
