<svg width="249" height="255" viewBox="0 0 249 255" fill="none" xmlns="http://www.w3.org/2000/svg">
<g clip-path="url(#clip0)">
<path d="M210.999 93.3051L214.957 100.306L206.223 103.306L206.154 102.606L205.276 94.3867L210.999 93.3051Z" fill="#FFD8B8"/>
<path d="M140.807 91.5305L141.165 95.5489L134.59 98.6677L133.02 90.8094L140.807 91.5305Z" fill="#FFD8B8"/>
<path d="M171.816 67.4586C172.014 66.1005 172.561 64.6583 172.014 63.4122L171.485 63.5557L171.214 64.3678C171.149 63.6696 170.972 62.9865 170.692 62.3446C170.42 61.7216 169.881 61.0565 169.198 61.1685C168.516 61.2805 168.224 62.0576 168.112 62.7157C167.583 65.7715 168.279 68.8833 168.972 71.904C170.076 71.8606 171.166 71.642 172.202 71.2565C171.764 70.042 171.631 68.7372 171.816 67.4586Z" fill="#FFD8B8"/>
<path d="M197.061 117.5C202.178 119.414 207.319 104.825 200.89 102.592C195.052 100.568 185.667 101.191 180.268 97.7191C178.966 96.8815 177.854 95.778 177.004 94.4803C176.155 93.1825 175.586 91.7195 175.335 90.1863C174.158 83.6757 173.14 77.1417 172.279 70.5844L168.066 70.8224L168.153 95.4964C168.153 97.082 168.174 98.7272 168.763 100.218C169.351 101.709 170.378 102.816 171.443 103.848C178.485 110.712 188.943 114.461 197.061 117.5Z" fill="#CC7B1B"/>
<path d="M174.653 88.2472C172.525 88.2787 170.407 88.5642 168.346 89.0978C168.27 89.1205 168.207 89.172 168.168 89.2411C168.13 89.3103 168.12 89.3918 168.14 89.4683C168.161 89.5447 168.21 89.6102 168.277 89.6509C168.345 89.6915 168.426 89.704 168.502 89.6858C170.523 89.2074 172.577 88.8845 174.646 88.7197C174.946 88.6882 174.97 88.2507 174.653 88.2472Z" fill="#CACACA"/>
<path d="M184.323 111.045C183.578 108.245 183.331 103.236 185.737 101.048C185.97 100.834 185.636 100.533 185.389 100.698C182.576 102.84 182.952 108.252 183.509 111.237C183.613 111.77 184.459 111.559 184.323 111.045Z" fill="#CACACA"/>
<path d="M174.97 90.1829C174.103 90.0079 173.229 90.2249 172.352 90.3754C171.102 90.5959 169.859 90.8794 168.627 91.191C168.521 91.2265 168.433 91.3014 168.38 91.4003C168.327 91.4993 168.313 91.6148 168.342 91.7234C168.371 91.8319 168.44 91.9253 168.535 91.9844C168.63 92.0436 168.744 92.064 168.853 92.0416C169.779 91.814 170.702 91.5865 171.638 91.3765C172.683 91.1385 173.814 90.7394 174.897 90.7149C175.193 90.7079 175.283 90.2494 174.97 90.1829Z" fill="#CACACA"/>
<path d="M187.929 112.011C187.111 108.539 186.586 105.311 188.504 102.08C188.546 101.997 188.558 101.902 188.538 101.811C188.517 101.72 188.465 101.639 188.391 101.583C188.317 101.527 188.225 101.499 188.132 101.504C188.04 101.509 187.952 101.547 187.884 101.611C185.162 104.562 186.029 108.794 186.84 112.294C187.007 112.977 188.093 112.711 187.929 112.011Z" fill="#CACACA"/>
<g opacity="0.4">
<path opacity="0.4" d="M137.374 224.922C131.334 224.946 125.295 225.139 119.272 226.028C116.999 226.378 114.775 227.102 112.495 227.4C107.945 227.995 103.475 229.104 98.9183 229.616C95.2388 230.029 91.5453 230.27 87.8797 230.795C84.331 231.301 80.7204 231.154 77.224 230.361C74.6968 229.763 72.1625 229.423 69.677 228.46C66.8921 227.382 63.881 226.612 60.9742 226.64C56.8456 226.679 52.8285 226.686 48.8774 228.586C47.485 229.255 45.7931 230.337 44.7418 231.737C42.3329 234.943 42.0057 242.938 44.4111 246.277C48.4631 251.878 57.1172 254.072 62.7983 254.177C69.026 254.289 75.0727 253.677 81.3074 253.316C87.0999 252.966 92.882 252.504 98.6851 252.522C110.538 252.557 122.395 252.522 134.224 251.472C145.339 250.485 156.485 250.824 167.642 250.824C179.067 250.824 190.412 250.943 201.757 252.959C206.7 253.838 211.734 254.146 216.702 254.759C221.15 255.308 225.425 254.759 229.853 254.237C233.693 253.786 237.381 252.47 240.645 250.387C243.322 248.689 248.091 243.417 248.909 239.368C251.21 228.012 216.496 228.285 211.163 228.31C205.2 228.338 199.192 228.6 193.232 228.31C190.726 228.184 188.257 227.533 185.81 226.819C183.363 226.105 180.919 226.29 178.448 225.993C168.144 224.75 157.819 224.943 147.466 224.943C144.117 224.95 140.74 224.908 137.374 224.922Z" fill="#D8D8D8"/>
</g>
<path d="M208.427 241.174C207.884 241.632 208.622 241.996 208.977 242.031C209.63 242.097 210.288 242.055 210.927 241.905C211.097 241.874 211.259 241.806 211.4 241.706C211.502 241.615 211.589 241.508 211.658 241.391C211.867 241.079 212.354 240.582 212.438 240.222C212.453 239.913 212.363 239.608 212.184 239.357C211.888 238.776 211.379 238.181 211.404 237.491C210.011 237.645 208.657 237.159 207.498 237.54C207.401 238.03 207.035 238.433 207.206 238.818C207.094 238.566 203.724 239.42 203.307 239.5C202.663 239.633 202.012 239.731 201.357 239.794C200.846 239.84 199.867 239.602 199.582 240.117C199.489 240.304 199.438 240.509 199.432 240.719C199.413 240.877 199.426 241.038 199.471 241.191C199.523 241.318 199.601 241.432 199.702 241.525C199.802 241.618 199.922 241.688 200.052 241.73C202.83 242.763 205.601 241.139 208.427 241.174Z" fill="#242449"/>
<path d="M209.725 176.417L200.163 176.155C199.964 175.742 200.789 176.099 200.782 176.557C200.572 191.087 201.855 205.599 204.612 219.864C205.802 226.003 207.268 232.15 207.292 238.415H211.219L212.552 179.701C212.573 178.71 212.535 177.576 211.776 176.946C211.226 176.47 210.446 176.417 209.725 176.417Z" fill="#242449"/>
<path d="M236.714 235.549C238.49 235.517 240.204 234.892 241.588 233.774L232.252 217.221C231.218 215.504 230.332 213.7 229.606 211.83C228.765 209.505 228.268 207.069 228.13 204.599C226.786 177.562 226.786 177.562 228.798 171.741C229.059 170.985 233.947 168.202 228.798 171.741C226.908 173.039 219.747 171.972 217.474 172.308C216.976 172.381 216.43 172.479 216.106 172.857C215.727 173.291 216.294 174.804 215.796 174.51C211.755 172.119 214.453 175.371 215.058 182.889C215.271 185.532 218.042 202.376 218.832 204.907C220.224 209.38 222.118 214.007 224.955 217.721C229.341 223.441 232.265 228.716 236.714 235.549Z" fill="#242449"/>
<path d="M233.487 138.141C232.749 127.812 230.925 117.139 225.153 108.332C221.007 102.007 215.302 94.6563 207.299 101.268C206.575 101.867 201.607 99.6163 201.12 100.372C200.476 100.176 199.784 100.214 199.164 100.478C198.544 100.742 198.037 101.216 197.729 101.818C195.017 106.61 194.043 111.899 193.607 117.335C193.11 123.573 192.96 129.852 192.772 136.104C192.686 139.002 192.618 141.902 192.567 144.802C191.453 152.555 190.903 160.351 192.166 168.146C192.222 168.507 192.349 168.853 192.539 169.165C192.569 171.12 192.605 173.077 192.647 175.035C192.675 176.288 193.607 177.933 194.986 178.122C207.105 179.826 219.431 179.326 231.374 176.645C232.766 176.326 233.644 174.919 233.713 173.558C234.349 161.758 234.274 149.931 233.487 138.141Z" fill="#D6861D"/>
<path d="M210.898 95.0413C211.665 93.6167 212.038 92.0114 211.978 90.3928C211.936 86.9905 211.515 83.5041 209.979 80.5393C208.207 77.123 204.103 73.9482 200.17 75.2398C195.564 76.752 196.34 83.0981 196.957 87.3055C197.454 90.6483 198.843 93.9562 201.367 96.0109C205.137 99.0842 209.057 98.2651 210.898 95.0413Z" fill="#FFD8B8"/>
<path d="M239.809 238.16C239.461 238.86 240.359 238.888 240.724 238.765C241.397 238.544 242.028 238.213 242.594 237.785C242.748 237.679 242.878 237.541 242.973 237.379C243.034 237.245 243.074 237.102 243.092 236.956C243.161 236.557 243.44 235.85 243.353 235.458C243.287 235.136 242.984 234.926 242.726 234.716C242.183 234.274 241.226 233.466 240.951 232.773C239.635 233.539 237.633 234.442 236.655 235.325C237.191 235.717 237.243 236.06 237.578 236.375C237.358 236.175 234.389 238.506 234.027 238.758C233.448 239.171 232.849 239.553 232.231 239.903C231.747 240.173 230.678 240.369 230.615 240.999C230.604 241.225 230.642 241.451 230.727 241.66C230.777 241.825 230.86 241.977 230.97 242.108C231.077 242.211 231.204 242.289 231.344 242.337C231.483 242.384 231.631 242.401 231.778 242.385C234.974 242.178 237.003 239.361 239.809 238.16Z" fill="#242449"/>
<path d="M220.538 110.096C220.336 109.63 220.129 109.173 219.918 108.728C211.626 110.348 203.348 111.78 194.945 112.484C194.896 112.942 194.837 113.397 194.788 113.856C203.48 113.261 212.131 111.853 220.538 110.096Z" fill="#CACACA"/>
<path d="M193.827 139.125C193.827 139.566 193.858 140.01 193.872 140.451C205.416 139.624 216.89 137.995 228.21 135.575C228.106 135.012 228.001 134.445 227.893 133.881C216.677 136.247 205.367 138.155 193.827 139.125Z" fill="#CACACA"/>
<path d="M196.208 164.999C196.26 165.321 196.309 165.643 196.361 165.965C198.829 165.668 201.276 165.328 203.671 164.999C212.808 163.744 221.865 161.957 230.796 159.647C230.775 159.185 230.754 158.723 230.73 158.247C223.768 160.053 216.684 161.618 209.405 162.892C205.238 163.631 200.768 164.415 196.208 164.999Z" fill="#CACACA"/>
<path d="M193.966 143.136C193.966 143.346 193.994 143.556 194.004 143.766C205.767 142.958 217.484 141.228 228.815 139.093C228.773 138.827 228.728 138.565 228.683 138.302C219.719 139.87 210.776 141.421 201.607 142.433C199.066 142.716 196.517 142.944 193.966 143.136Z" fill="#CACACA"/>
<path d="M194.593 115.973C194.572 116.194 194.555 116.414 194.534 116.635C203.714 115.879 212.845 114.587 221.77 113.009C221.662 112.743 221.561 112.476 221.45 112.21C214.049 113.488 206.631 114.692 199.056 115.525C197.571 115.689 196.083 115.838 194.593 115.973Z" fill="#CACACA"/>
<path d="M197.03 169.809C208.543 169.141 219.931 167.056 230.939 163.603C230.939 163.368 230.939 163.133 230.915 162.902C219.853 166.285 208.432 168.343 196.891 169.035C196.935 169.289 196.981 169.547 197.03 169.809Z" fill="#CACACA"/>
<path d="M181.873 140.815C181.353 140.967 180.862 141.203 180.418 141.515C180.198 141.675 180.02 141.885 179.898 142.129C179.777 142.373 179.717 142.643 179.722 142.916C179.747 143.185 179.874 143.435 180.078 143.613C180.282 143.79 180.546 143.881 180.815 143.868C180.796 143.944 180.794 144.023 180.809 144.1C180.824 144.177 180.856 144.249 180.902 144.312C182.006 144.624 183.109 143.931 184.115 143.385C184.893 142.959 185.709 142.608 186.552 142.334C187.248 142.107 188.07 141.879 188.446 141.232C188.567 140.986 188.636 140.717 188.649 140.443C188.661 140.169 188.617 139.895 188.519 139.639C188.324 139.13 188.091 138.636 187.823 138.162L183.844 138.904C183.625 138.927 183.415 139.003 183.231 139.125C183.141 139.188 183.076 139.282 183.047 139.388C183.019 139.495 183.028 139.609 183.074 139.709C183.365 139.742 183.634 139.88 183.83 140.098L181.873 140.815Z" fill="#FFD8B8"/>
<path d="M222.365 111.038C221.321 106.351 215.319 105.36 214.15 111.269C213.105 116.621 212.733 122.081 210.32 127.241C209.734 128.493 208.895 129.609 207.857 130.518C206.819 131.428 205.605 132.11 204.291 132.523C198.698 134.39 193.069 136.131 187.404 137.745L188.135 141.382L209.868 138.085C211.26 137.875 212.712 137.644 213.955 136.937C215.197 136.23 216.043 135.187 216.823 134.137C222 127.08 224.043 118.553 222.365 111.038Z" fill="#CC7B1B"/>
<path d="M202.676 133.363C202.967 135.213 203.48 137.021 204.205 138.747C204.237 138.807 204.29 138.853 204.354 138.876C204.418 138.899 204.489 138.897 204.551 138.87C204.614 138.843 204.664 138.794 204.692 138.731C204.72 138.669 204.724 138.598 204.703 138.533C204.031 136.836 203.492 135.088 203.091 133.307C203.028 133.037 202.638 133.076 202.676 133.363Z" fill="#CACACA"/>
<path d="M221.568 121.949C219.198 122.964 214.808 123.832 212.584 122.022C212.368 121.847 212.141 122.176 212.333 122.372C214.568 124.546 219.295 123.51 221.854 122.631C222.296 122.474 222.003 121.763 221.568 121.949Z" fill="#CACACA"/>
<path d="M204.34 132.824C204.291 133.605 204.594 134.35 204.834 135.078C205.183 136.128 205.586 137.178 206.011 138.229C206.058 138.315 206.135 138.38 206.227 138.413C206.319 138.445 206.42 138.442 206.51 138.403C206.6 138.365 206.673 138.294 206.714 138.205C206.755 138.116 206.761 138.014 206.732 137.921C206.415 137.143 206.105 136.366 205.802 135.586C205.454 134.7 204.974 133.773 204.817 132.835C204.775 132.562 204.361 132.541 204.34 132.824Z" fill="#CACACA"/>
<path d="M221.969 118.679C219.01 119.845 216.228 120.723 213.144 119.474C212.796 119.33 212.476 119.848 212.796 120.072C215.734 122.057 219.354 120.751 222.338 119.586C222.943 119.362 222.557 118.448 221.969 118.679Z" fill="#CACACA"/>
<path d="M223.942 80.97C223.67 80.4878 223.279 80.0837 222.807 79.7958C222.336 79.5079 221.799 79.3458 221.248 79.3248C221.248 79.2688 221.269 79.2128 221.276 79.1568C222.609 78.0262 223.114 75.9575 221.53 74.1548C221.153 73.7076 220.688 73.3431 220.165 73.0837C218.635 71.9215 216.972 70.9485 215.212 70.1854C215.069 70.1261 214.922 70.0759 214.773 70.0349C214.533 68.5619 213.828 67.2058 212.762 66.1669C211.697 65.128 210.327 64.4616 208.855 64.2663C208.04 64.1483 207.213 64.1483 206.397 64.2663C203.063 62.6001 199.216 64.2278 197.263 67.1436C196.601 67.4685 196.026 67.9482 195.586 68.5426C195.146 69.1371 194.855 69.8288 194.736 70.5599L194.597 70.5879C191.693 71.337 189.831 74.3683 190.746 77.2386C191.199 78.6597 192.536 79.8638 194.095 79.8043L196.313 79.7168C197.087 79.6756 197.824 79.3693 198.401 78.8487C198.555 78.9222 198.708 78.9923 198.871 79.0518C199.398 79.247 199.951 79.3649 200.511 79.4018C201.03 80.1599 201.742 80.7643 202.572 81.152C204.305 81.9735 206.278 82.1292 208.117 81.5895C208.263 81.7347 208.417 81.8704 208.58 81.9956C208.829 82.183 209.096 82.3449 209.377 82.4786C209.077 82.9349 208.829 83.4233 208.636 83.9347C207.94 85.7689 209.43 87.6731 211.073 88.2332C211.393 88.3424 211.725 88.4129 212.061 88.4432C211.365 90.2704 212.263 92.7766 214.334 93.2176C216.987 93.7812 219.556 93.0006 221.265 90.8269C222.449 89.3183 222.658 87.8026 222.804 86.14C224.374 84.9288 225.227 83.0877 223.942 80.97Z" fill="#242449"/>
<path d="M190.763 48.9663C190.297 50.0376 189.766 51.0791 189.172 52.0851C188.918 52.4981 189.521 52.8377 189.799 52.4701C190.495 51.5425 191.237 50.6255 191.87 49.6419C192.326 48.9243 191.111 48.2172 190.763 48.9663Z" fill="#666666"/>
<path d="M180.139 51.805C180.537 52.1192 180.972 52.3814 181.434 52.5856C181.904 52.8271 182.416 53.1842 182.945 53.2857C183.206 53.3277 183.554 53.0617 183.353 52.7746C183.014 52.3771 182.616 52.0357 182.172 51.763C181.737 51.3911 181.256 51.0759 180.742 50.8249C180.188 50.5834 179.701 51.413 180.139 51.805Z" fill="#666666"/>
<path d="M184.498 48.0457C184.567 48.6793 184.703 49.3036 184.905 49.9079C185.019 50.4592 185.235 50.984 185.542 51.455C185.584 51.5019 185.638 51.5364 185.698 51.555C185.758 51.5735 185.822 51.5753 185.883 51.5602C185.944 51.5452 186 51.5138 186.045 51.4694C186.09 51.4249 186.122 51.3692 186.137 51.308C186.215 50.823 186.199 50.3276 186.092 49.8484C186.038 49.1849 185.914 48.529 185.723 47.8917C185.49 47.3001 184.449 47.2966 184.498 48.0457Z" fill="#666666"/>
<path d="M123.36 193.478C123.906 181.335 122.757 168.951 122.858 156.724C122.499 152.472 123.08 148.193 124.56 144.193C124.636 143.936 124.764 143.698 124.936 143.493C125.504 142.905 126.475 143.217 127.227 143.532C130.837 145.011 134.745 145.607 138.629 145.27C142.513 144.933 146.261 143.672 149.565 141.592C150.867 143.584 151.24 146.027 151.56 148.39C152.079 152.209 152.646 156.017 152.785 159.85V159.871C152.813 160.694 152.831 161.52 152.817 162.346C152.726 167.124 151.807 171.835 151.076 176.543C150.556 179.611 150.249 182.712 150.157 185.823C150.126 188.371 150.481 190.699 149.913 193.194C148.521 199.338 148.521 206.03 147.922 212.306C147.289 219.027 146.665 225.751 146.15 232.482L146.088 233.287C145.74 233.378 140.601 234.569 140.601 233.228L139.362 194.024C139.188 188.525 139.014 182.949 137.622 177.709L135.909 177.88L126.503 229.78C126.228 231.303 125.89 232.93 124.895 233.924C123.899 234.919 122.033 234.625 121.737 233.112C122.656 219.902 122.764 206.695 123.36 193.478Z" fill="#4FCA30"/>
<path d="M142.126 235.521C144.102 235.359 146.089 235.443 148.044 235.769C149.545 236.893 151.183 237.82 152.918 238.527C153.433 238.692 153.908 238.965 154.31 239.329C154.683 239.728 154.832 240.397 154.484 240.817C154.181 241.167 153.642 241.223 153.168 241.23C149.527 241.268 145.89 240.958 142.307 240.302C142.088 240.284 141.88 240.199 141.709 240.061C141.594 239.928 141.516 239.767 141.482 239.595C141.305 238.908 141.271 238.191 141.382 237.49C141.493 236.789 141.746 236.119 142.126 235.521Z" fill="#242449"/>
<path d="M125.869 235.325C123.893 235.282 121.92 235.483 119.993 235.923C118.558 237.137 116.976 238.162 115.283 238.972C114.772 239.165 114.309 239.467 113.925 239.857C113.577 240.278 113.466 240.957 113.838 241.356C114.211 241.755 114.702 241.706 115.178 241.688C118.817 241.507 122.431 240.977 125.97 240.106C126.187 240.074 126.389 239.978 126.551 239.829C126.658 239.69 126.726 239.525 126.75 239.35C126.886 238.654 126.878 237.938 126.726 237.245C126.575 236.552 126.283 235.899 125.869 235.325Z" fill="#242449"/>
<path d="M145.683 73.4758C145.695 72.821 145.534 72.1747 145.217 71.6031C144.653 70.777 143.549 70.553 142.557 70.4445C138.321 70.4445 134.143 70.637 129.875 70.8435C129.515 70.8247 129.158 70.9176 128.852 71.1095C128.574 71.38 128.404 71.7437 128.375 72.1316C128.076 73.8818 128.647 75.737 128.622 77.5362C128.573 79.3861 128.696 81.2366 128.991 83.0632C129.611 86.6055 131.23 89.9029 134.293 91.9191C135.291 92.6376 136.478 93.0453 137.704 93.0917C139.344 93.0917 140.837 92.1221 141.986 90.939C146.226 86.5215 146.101 79.6014 145.683 73.4758Z" fill="#FFD8B8"/>
<path d="M141.472 90.5784C140.678 92.3286 138.711 92.8431 136.675 92.2621C135.571 91.9506 134.161 90.9145 133.02 90.806C133.897 91.9996 135.108 93.2562 136.546 93.5502C137.266 93.7081 138.014 93.6894 138.726 93.4956C139.438 93.3019 140.093 92.9389 140.636 92.4371C141.155 91.9366 141.747 91.233 141.472 90.5784Z" fill="#303030"/>
<path d="M144.962 66.545C143.594 65.4949 141.871 65.2464 140.2 65.1694C138.373 65.0819 136.656 64.6513 134.801 64.9454C133.84 65.0994 132.9 65.3759 131.933 65.4564C130.954 65.5915 129.96 65.353 129.148 64.7879C128.817 64.5288 128.507 64.1718 128.103 64.1578C127.518 64.1368 127.149 64.7739 126.948 65.3269C125.873 68.1933 125.514 71.2811 125.903 74.3193C126.251 76.745 127.992 79.2198 128.932 81.5055C128.96 81.5929 129.009 81.6721 129.075 81.7365C129.12 81.7645 129.171 81.7829 129.224 81.7907C129.277 81.7984 129.331 81.7953 129.382 81.7816C129.434 81.7679 129.483 81.7438 129.525 81.7108C129.567 81.6778 129.602 81.6365 129.628 81.5895C129.724 81.3931 129.765 81.174 129.746 80.9559C129.725 79.2007 129.959 77.4517 130.443 75.7649C131.08 73.7347 131.713 74.5503 133.499 74.4313C136.186 74.2493 139.093 72.0581 141.767 73.4337C142.651 73.8887 143.295 74.6973 143.914 75.4814C144.816 76.626 145.763 77.9071 145.704 79.3633C146.974 78.7192 147.263 77.0566 147.375 75.6319C147.65 72.3626 147.545 68.5402 144.962 66.545Z" fill="#303030"/>
<path d="M155.184 136.573L154.581 131.109C153.332 119.74 152.051 108.241 148.221 97.5056C147.271 94.8453 144.859 91.7895 142.303 94.5268C141.965 94.9083 141.585 95.2511 141.172 95.5489C138.62 97.3201 135.195 97.138 132.4 96.0844C129.963 95.1638 128.48 91.6565 125.469 92.9761C122.632 94.2188 121.347 99.1997 120.964 102.046C120.268 107.251 119.955 112.624 119.408 117.874C118.44 127.234 117.469 136.604 117.086 146.01C116.926 149.909 116.867 153.844 116.042 157.652C118.106 158.195 120.275 158.044 122.405 158.037C127.401 158.02 132.365 158.814 137.35 159.147C141.332 159.413 145.395 159.378 149.293 158.398C149.927 158.237 157.391 156.647 157.349 156.252L155.184 136.573Z" fill="#242449"/>
<path d="M156.998 154.082C157.112 154.061 157.154 153.998 157.088 153.882C156.423 152.644 155.824 151.372 155.292 150.07C154.823 141.889 153.902 133.74 152.531 125.662C150.791 115.742 147.007 106.536 144.755 96.781C144.093 93.9107 140.685 94.1662 139.415 96.1754L139.119 96.2385C137.937 95.2071 136.572 94.4112 135.094 93.8932C133.288 93.2387 131.405 94.9433 131.408 96.718C131.408 98.6187 131.38 100.526 131.335 102.438C128.178 117.974 126.292 133.745 125.696 149.591C125.696 149.608 125.696 149.626 125.696 149.643C125.519 150.458 125.34 151.274 125.159 152.093C124.763 153.322 124.341 154.719 124.293 155.804C124.268 155.909 124.244 156.017 124.216 156.122C123.868 157.522 124.658 158.713 125.957 159.185C130.78 160.969 135.912 161.755 141.045 161.499C146.179 161.242 151.208 159.947 155.831 157.69C155.952 157.63 156.069 157.561 156.18 157.484L156.427 157.379L156.865 157.029C157.197 156.689 157.408 156.249 157.464 155.776C157.537 155.171 157.37 154.562 156.998 154.082Z" fill="#EFEFEF"/>
<path d="M167.093 67.9801C167.303 67.3117 167.619 66.6818 168.029 66.1145C168.426 65.5649 169.094 65.0294 169.738 65.2849C170.382 65.5404 170.504 66.3595 170.476 67.035C170.351 70.1329 169.014 73.0276 167.692 75.8314C166.622 75.5554 165.602 75.1112 164.67 74.5153C165.353 73.4202 165.756 72.1719 165.843 70.8819C165.934 69.5133 165.7 68.0011 166.501 66.8845L166.988 67.1366L167.093 67.9801Z" fill="#FFD8B8"/>
<path d="M126.711 117.079C122.785 119.74 124.132 104.359 123.926 102.466C123.7 100.278 123.369 96.599 125.221 94.9258C128.494 91.9715 137.405 95.4929 141.314 95.9339C145.556 96.4087 149.849 96.0073 153.93 94.7543C154.853 94.5159 155.725 94.1089 156.503 93.5537C158.529 91.9575 164.321 73.7312 164.725 73.8467L168.791 74.9738C167.559 80.6024 166.354 86.2415 165.097 91.863C164.116 96.1964 163.935 101.251 160.83 104.713C158.859 106.907 155.994 108.08 153.136 108.773C145.561 110.611 133.475 112.505 126.711 117.079Z" fill="#242449"/>
<path d="M116.651 57.9272C116.903 59.0701 117.084 60.2273 117.194 61.3925C117.229 61.8791 117.915 61.7951 117.925 61.333C117.953 60.1639 118.006 58.9913 117.925 57.8327C117.894 56.9646 116.491 57.1186 116.651 57.9272Z" fill="#666666"/>
<path d="M109.735 66.5066C110.24 66.5251 110.745 66.4792 111.238 66.3701C111.761 66.2861 112.384 66.2721 112.861 66.02C113.097 65.8975 113.209 65.481 112.889 65.3655C112.383 65.2444 111.861 65.2042 111.343 65.2465C110.773 65.2046 110.2 65.2351 109.637 65.3375C109.059 65.495 109.15 66.4541 109.735 66.5066Z" fill="#666666"/>
<path d="M111.047 60.9059C111.474 61.3771 111.95 61.8008 112.467 62.1695C112.881 62.5532 113.363 62.8548 113.887 63.0586C113.949 63.071 114.012 63.0666 114.071 63.0459C114.13 63.0252 114.182 62.989 114.222 62.9411C114.262 62.8932 114.289 62.8353 114.299 62.7734C114.31 62.7116 114.303 62.6481 114.281 62.5896C114.059 62.1511 113.757 61.7591 113.39 61.4345C112.957 60.9307 112.473 60.4743 111.945 60.0728C111.419 59.7018 110.577 60.3109 111.047 60.9059Z" fill="#666666"/>
<path d="M89.749 197.601L89.9997 212.884C89.8987 217.123 90.2782 221.351 90.5323 225.576C90.769 229.5 89.9823 233.546 91.8342 237.183C92.4155 238.324 93.6513 239.119 94.5912 237.799C95.3153 236.784 94.9811 235.027 95.1621 233.847C96.5058 224.988 99.0122 216.346 100.262 207.476C101.571 198.182 97.9923 198.427 89.749 197.601Z" fill="#FFBFA4"/>
<path d="M90.613 234.572L89.6348 237.12L94.4422 241.377L98.8458 241.559L100.273 239.224L94.3482 234.043L90.613 234.572Z" fill="#1D1815"/>
<path d="M78.9821 197.752L76.1972 212.779C75.2365 219.499 73.0643 226.049 72.093 232.769C71.8737 234.316 71.9851 236.007 71.3411 237.463C70.6971 238.919 69.4822 238.947 68.3961 237.978C66.941 236.683 67.6128 234.365 67.6407 232.594C67.8182 220.798 66.8957 209.166 66.6729 197.349C66.6604 197.273 66.6649 197.195 66.686 197.12C66.707 197.046 66.7442 196.977 66.7948 196.919C66.8986 196.854 67.0223 196.829 67.1429 196.849C68.3091 196.929 78.923 198.077 78.9821 197.752Z" fill="#FFBFA4"/>
<path d="M67.6165 235.199L66.0918 237.463L69.8201 242.7L74.0705 243.876L75.9851 241.923L71.3761 235.531L67.6165 235.199Z" fill="#1D1815"/>
<path d="M105.411 207.325L103.339 185.48L102.337 171.282L98.9741 159.689L80.8236 156.857L58.3809 160.725L57.3018 165.111L61.6218 205.694L83.2673 207.325L82.9749 182.067L86.3133 197.724L86.1706 207.325H105.411Z" fill="#FDB037"/>
<path d="M63.143 117.006C63.1128 117.743 63.0919 118.481 63.0803 119.218C62.8192 134.203 63.6408 149.381 63.7347 164.492C71.4335 163.28 79.2073 162.612 86.999 162.493C88.8022 162.465 97.0002 163.739 98.1385 162.657C99.6876 161.187 97.9853 161.464 98.0967 159.553C98.2429 157.078 97.0524 155.048 97.5084 152.114C98.0341 148.667 99.0784 145.257 99.6806 141.809C100.888 134.894 101.613 127.902 101.849 120.884C102.058 114.664 101.849 108.21 99.1724 102.588C92.6105 88.7267 71.4558 88.9752 65.6494 103.449C63.9332 107.73 63.3379 112.361 63.143 117.006Z" fill="white"/>
<path d="M108.418 85.5274C110.639 82.5486 111.579 79.3493 112.488 75.3344C113.163 72.3451 113.72 69.3243 114.267 66.3105C114.615 64.3153 114.963 62.5721 114.963 60.5699C114.963 58.8968 115.878 56.5691 114.399 55.2494C114.479 55.0868 114.594 54.9437 114.734 54.83C114.875 54.7163 115.038 54.6346 115.213 54.5907C115.389 54.5467 115.571 54.5415 115.748 54.5755C115.926 54.6095 116.094 54.6818 116.24 54.7874C116.321 54.8706 116.418 54.9351 116.526 54.9764C116.624 54.9843 116.722 54.9633 116.809 54.9161C116.895 54.8689 116.966 54.7974 117.013 54.7104C117.361 54.2378 117.382 53.6253 117.494 53.0547C117.678 52.1376 117.991 50.657 118.667 49.9919C119.248 49.4888 119.919 49.1005 120.644 48.8473C120.698 48.808 120.76 48.7804 120.825 48.7661C120.89 48.7518 120.957 48.7512 121.023 48.7644C121.088 48.7775 121.15 48.8041 121.205 48.8425C121.259 48.8808 121.305 48.9302 121.34 48.9873C122.122 49.7833 122.857 50.6249 123.54 51.5076C122.562 52.3476 122.405 53.5798 121.855 54.6894C121.131 56.1455 120.24 57.3006 120.136 59.0053C119.979 61.6516 120.024 64.3048 119.833 66.9546C119.457 72.1281 118.764 77.2701 118.092 82.4156C117.643 85.8214 117.187 89.3078 115.84 92.4966C114.493 95.6854 112.592 97.5336 110.03 99.7668C109.474 100.321 108.812 100.756 108.084 101.044C106.956 101.394 105.707 101.023 104.721 100.362C102.121 98.6117 101.15 94.8068 102.594 92.017C103.371 90.5189 104.683 89.3953 105.926 88.2542C106.839 87.4249 107.673 86.5121 108.418 85.5274Z" fill="#FFBFA4"/>
<path d="M87.0263 97.5616L81.2686 108.091L82.1702 140.014L82.5844 154.715C82.6331 156.416 82.6749 158.121 82.7271 159.822C82.7515 160.585 82.5426 161.873 82.9743 162.496C83.9142 163.851 87.3535 163.428 88.8539 163.547C91.1932 163.732 93.5673 163.925 95.7708 164.737C97.2364 165.276 98.6288 166.091 100.174 166.308C100.345 166.351 100.522 166.358 100.696 166.33C100.869 166.301 101.035 166.238 101.184 166.144C101.317 165.999 101.42 165.828 101.486 165.642C101.553 165.457 101.581 165.259 101.57 165.062C102.106 157.76 102.12 150.231 102.521 142.853C102.851 136.814 103.69 130.43 103.168 124.385C103.168 124.283 103.151 124.182 103.13 124.084C102.597 121.175 103.13 111.566 103.13 111.566C103.151 111.164 104.522 110.114 104.794 109.841L108.895 105.581C111.62 102.749 116.901 99.2488 114.771 94.6668C114.496 94.1176 114.136 93.6156 113.705 93.1792C110.614 89.8503 106.667 87.9846 104.453 83.8857C100.582 85.8074 97.4278 89.5983 93.3132 91.1805C91.2073 92.0346 88.8916 92.2191 86.6782 91.709C85.3589 91.3835 82.5218 90.3509 83.2354 92.9726C83.6253 94.4778 86.0063 96.354 87.0263 97.5616Z" fill="#71C3CC"/>
<path d="M74.5159 98.5522L80.2632 109.081C80.1414 109.081 79.5356 134.889 79.4869 136.632L78.9265 156.507C78.8742 158.349 79.1214 160.505 78.7628 162.314C78.2616 164.842 75.6298 164.345 73.3636 164.548C68.4309 164.996 63.2406 165.843 58.2939 165.598C56.8667 165.524 58.7465 135.593 58.743 132.8C58.743 122.754 56.6717 111.608 61.7472 102.497C63.2232 99.8473 65.827 95.5979 68.7094 94.2887C71.3864 93.0706 75.2191 92.8606 78.1258 92.1885L78.2755 94.0822L74.5159 98.5522Z" fill="#71C3CC"/>
<path d="M86.9852 73.0487C87.864 74.6616 88.3507 76.4608 88.4055 78.2992C88.4264 78.7857 88.4612 79.3493 88.8511 79.6363C89.241 79.9233 88.9033 80.6199 89.2201 80.2069C89.5369 79.7938 90.6126 78.3622 90.6717 77.8441C90.7876 76.6253 90.7876 75.3981 90.6717 74.1793C90.5708 73.1292 90.3549 72.0126 89.6657 71.204C89.2322 70.7468 88.7293 70.3617 88.1758 70.0629C87.4227 69.5445 86.5832 69.1663 85.6972 68.9463C84.1551 68.6557 83.2082 69.2123 84.5694 70.2939C85.5461 71.0445 86.3669 71.9804 86.9852 73.0487Z" fill="#534741"/>
<path d="M77.3492 93.8442C77.3492 94.5933 77.2065 95.3739 77.8644 95.9444C78.2005 96.2035 78.6021 96.3624 79.0236 96.403C80.1039 96.5737 81.2087 96.4947 82.2541 96.172C82.689 96.0587 83.0918 95.8454 83.4307 95.5489C83.8136 95.1814 83.831 94.8313 83.8519 94.3483C83.8728 93.7812 83.9877 93.2072 84.0608 92.6331C84.2209 91.38 84.294 90.1129 84.3288 88.8492C86.1773 88.5307 88.3495 87.9286 88.9831 85.9825C89.1515 85.3531 89.2232 84.7014 89.1954 84.0503L89.2546 75.961C89.3159 75.0303 89.211 74.0962 88.9448 73.2027C88.3878 71.6835 86.971 70.777 85.582 70.2099C82.0383 68.7573 77.9236 68.8098 74.634 70.882C73.7208 71.4139 72.9641 72.1796 72.4409 73.1012C71.6681 74.5818 71.7655 76.4125 71.8839 78.1207L72.232 82.8531C72.3608 84.6663 72.6288 86.756 74.0317 87.7151C74.7767 88.2227 75.7375 88.3172 76.378 88.9753C77.4989 90.1234 76.9628 91.842 77.2935 93.2352C77.3346 93.4355 77.3533 93.6398 77.3492 93.8442Z" fill="#FFBFA4"/>
<path d="M89.8469 82.9861C89.8156 82.4856 89.5997 81.0224 88.8513 81.936C88.672 82.2018 88.5818 82.5182 88.5937 82.8391C88.6061 83.1595 88.5733 83.4801 88.4962 83.7912C88.2665 84.4913 87.5041 84.7993 86.8218 84.7888C86.5494 84.7938 86.2801 84.73 86.0386 84.6033C85.8111 84.4547 85.6099 84.269 85.4433 84.0537L84.1344 82.5451C83.386 81.6805 81.8995 82.055 80.8865 82.1951C79.6971 82.3084 78.5622 82.7506 77.6073 83.4727C77.5099 83.5497 77.4193 83.6337 77.3254 83.7142C77.1063 83.92 76.8618 84.0965 76.5978 84.2393C75.6997 84.6803 74.5857 84.2218 73.9556 83.3957C73.6667 83.0176 73.3987 82.5311 72.9496 82.4681C72.768 82.4604 72.5882 82.5068 72.4328 82.6014C72.2774 82.6961 72.1532 82.8348 72.0758 83.0001C71.9126 83.346 71.8259 83.7234 71.8217 84.1063C71.7027 85.4985 71.9424 86.8982 72.518 88.1702C73.8199 90.8479 76.3472 91.177 78.8675 91.1174L81.8682 91.0474C83.6958 91.0054 85.6278 90.9284 87.1699 89.8608C88.5276 88.9192 89.3352 87.3161 89.6659 85.6359C89.8385 84.764 89.8993 83.8735 89.8469 82.9861ZM83.1562 86.784C82.7018 87.079 82.1855 87.2641 81.648 87.3248C81.1105 87.3856 80.5662 87.3203 80.058 87.134C79.602 86.9975 79.7969 86.2275 80.253 86.364C80.667 86.5204 81.1119 86.5766 81.5516 86.528C81.9913 86.4793 82.4134 86.3272 82.7837 86.0839C83.198 85.8249 83.5461 86.5145 83.1597 86.784H83.1562Z" fill="#534741"/>
<path d="M90.2302 68.3722C90.4067 67.7184 90.537 67.0529 90.62 66.3805C89.998 66.5994 89.3312 66.6572 88.6811 66.5486V65.3864C88.6811 65.0644 84.3401 64.8369 83.985 64.8089C80.6849 64.5359 77.6668 64.2768 74.68 66.0585C72.1319 67.5812 70.5027 69.8529 70.1059 72.8107C69.7334 75.6355 70.6524 79.3248 72.2781 81.6701C72.2781 80.9175 71.8394 79.1428 72.0135 78.4287C72.1283 77.7125 72.3638 77.0212 72.7097 76.3845C73.4072 75.1106 74.4205 74.0398 75.6513 73.2762C77.6189 72.105 79.8095 71.3632 82.0809 71.099C84.1382 70.812 86.6481 70.546 88.695 71.099C89.6732 71.3615 89.8333 71.6101 90.4355 70.616C90.54 70.4409 91.3685 68.4002 91.2849 68.3967L90.2302 68.3722Z" fill="#534741"/>
<path d="M0.0291737 55.2005L1.69246 47.7912L21.9612 52.3916L20.2979 59.801C20.2317 60.0962 20.0515 60.3528 19.797 60.5145C19.5426 60.6761 19.2347 60.7295 18.9411 60.6628L0.886284 56.5649C0.592692 56.4982 0.337451 56.317 0.176712 56.0612C0.0159721 55.8053 -0.0370978 55.4957 0.0291737 55.2005Z" fill="#B5B8C4"/>
<path d="M9.85084 19.8014L6.09473 36.5226L22.804 40.3134L26.6611 23.1268C20.6005 11.0296 30.1422 1.80268 30.1422 1.80268L28.4678 0C16.5067 3.60535 9.85084 19.8014 9.85084 19.8014Z" fill="#B5B8C4"/>
<path d="M6.53014 38.0522C8.58748 45.445 1.69141 47.7972 1.69141 47.7972L10.509 49.7994L10.7632 49.8554L12.8797 50.3384L13.1338 50.3944L21.9514 52.3966C21.9514 52.3966 16.7298 47.2931 21.7426 41.5071L22.7869 40.317L15.501 38.6613L13.3705 38.1782L6.08456 36.5226L6.53014 38.0522Z" fill="#8B8D96"/>
<path d="M25.9129 26.4409L23.5283 37.0632L72.4022 48.1563L74.7868 37.534L25.9129 26.4409Z" fill="#8B8D96"/>
<path d="M130.318 55.7289C129.852 57.801 128.587 59.6023 126.802 60.7377C125.016 61.873 122.855 62.2495 120.794 61.7845L74.5266 51.2835L69.3467 47.4681L71.7103 36.8446L78.0181 35.637L124.285 46.138C125.308 46.3688 126.276 46.8001 127.133 47.4072C127.989 48.0143 128.719 48.7852 129.279 49.676C129.839 50.5668 130.22 51.5598 130.398 52.5985C130.576 53.6371 130.549 54.7008 130.318 55.7289Z" fill="#242449"/>
<path d="M125.271 54.582C125.645 52.915 124.605 51.2586 122.947 50.8823C121.289 50.506 119.642 51.5523 119.267 53.2193C118.893 54.8863 119.934 56.5427 121.592 56.919C123.249 57.2953 124.897 56.249 125.271 54.582Z" fill="#FFBC57"/>
<path opacity="0.1" d="M124.821 61.725C127.544 60.787 129.639 58.7498 130.245 56.0475C131.251 51.5601 129.295 47.2756 122.486 45.7285L84.4824 37.1036C84.4824 37.1036 126.823 48.1647 124.821 61.725Z" fill="#272525"/>
<path opacity="0.1" d="M23.5283 37.0652L29.9788 27.3692L25.9129 26.4451L23.5283 37.0652Z" fill="#272525"/>
<path d="M55.6141 90.3999C56.357 89.6285 56.8418 88.6432 57.0009 87.5815C57.1601 86.5197 56.9856 85.4345 56.5018 84.4773L51.0713 73.6787C50.0548 71.6555 48.2864 69.3138 48.0114 67.1121C47.5206 63.2267 48.3943 58.6517 48.7564 54.7664C48.9409 52.7922 48.7772 50.0514 49.5883 48.2347C49.7415 47.8847 52.0251 45.2874 51.9729 45.2069L51.4925 44.4789L50.7754 44.9654L50.1766 44.8429L51.8093 42.8582L49.4491 41.108L46.2987 42.3787C46.1316 44.5139 46.5076 46.7401 45.8322 48.7983C45.5468 49.6699 45.136 50.4889 44.7635 51.3325C44.1474 52.7817 43.7192 54.3043 43.2562 55.8025C42.7932 57.3006 42.0483 58.6027 41.6166 60.0484C40.6489 63.2442 39.702 66.4505 38.7412 69.6498L47.068 88.8352C47.4138 89.6237 47.9465 90.3151 48.6195 90.8488C49.2924 91.3825 50.0852 91.7422 50.9284 91.8966C51.7716 92.051 52.6396 91.9953 53.4564 91.7344C54.2733 91.4734 55.0141 91.0152 55.6141 90.3999Z" fill="#FFBFA4"/>
<path d="M69.4235 93.1407C65.9729 91.1019 63.0205 88.3114 60.7834 84.9744C60.7242 84.8483 60.6685 84.7258 60.6128 84.6033C60.404 84.1308 58.0508 78.9783 57.9846 79.0028L57.8106 79.0833L57.3023 79.3423H57.2292C56.0352 79.3423 54.0405 80.7844 52.9335 81.285L44.102 85.2754C43.8845 85.3515 43.6911 85.4844 43.5415 85.6604C43.4069 85.9005 43.3613 86.1808 43.4127 86.4515L42.626 86.854C43.007 87.3951 43.3557 87.9585 43.6703 88.5412C44.0184 90.7989 44.5719 93.0286 45.9435 94.8418C46.0235 94.9468 46.1106 95.0483 46.1976 95.1533C46.8938 97.5406 47.59 99.9628 48.5891 102.217C51.3148 108.283 56.4947 112.995 59.0986 119.113C61.2116 118.494 62.6771 116.586 63.8015 114.682C66.0086 110.94 67.4776 106.809 68.9327 102.711L71.1502 96.459C71.303 96.1028 71.3847 95.7198 71.3904 95.3319C71.3347 94.2993 70.3182 93.6587 69.4235 93.1407Z" fill="#71C3CC"/>
</g>
<defs>
<clipPath id="clip0">
<rect width="249" height="255" fill="white"/>
</clipPath>
</defs>
</svg>
