<svg width="30" height="30" viewBox="0 0 30 30" fill="none" xmlns="http://www.w3.org/2000/svg">
<path d="M0 15C0 23.2843 6.71573 30 15 30C23.2843 30 30 23.2843 30 15C30 6.71573 23.2843 0 15 0C6.71573 0 0 6.71573 0 15Z" fill="#61A8DE"/>
<path d="M20.9732 9.05262L6.33988 14.7551C5.8659 14.9398 5.89462 15.6199 6.38252 15.764L10.101 16.862L11.4887 21.2655C11.6337 21.7254 12.2166 21.8649 12.554 21.5204L14.4765 19.5573L18.2487 22.3262C18.7104 22.6651 19.3678 22.4133 19.485 21.8528L21.9834 9.90814C22.1057 9.32305 21.5301 8.83558 20.9732 9.05262ZM19.1385 11.7034L12.3415 17.7141C12.2737 17.774 12.2306 17.8569 12.2205 17.9468L11.9588 20.2732C11.9503 20.349 11.8441 20.3591 11.8214 20.2862L10.7448 16.8168C10.6954 16.658 10.7597 16.4859 10.9011 16.3982L18.9277 11.42C19.1123 11.3055 19.3013 11.5596 19.1385 11.7034Z" fill="white"/>
</svg>
