<svg width="19" height="19" viewBox="0 0 19 19" fill="none" xmlns="http://www.w3.org/2000/svg">
<path d="M17.9003 1.09948C17.5619 0.761112 17.015 0.761112 16.6766 1.09948L9.50001 8.27611L2.32338 1.09948C1.98501 0.761112 1.43809 0.761112 1.09972 1.09948C0.761356 1.43784 0.761356 1.98477 1.09972 2.32313L8.27636 9.49977L1.09972 16.6764C0.761356 17.0148 0.761356 17.5617 1.09972 17.9001C1.26847 18.0688 1.49001 18.1536 1.71155 18.1536C1.93309 18.1536 2.15463 18.0688 2.32338 17.9001L9.50001 10.7234L16.6766 17.9001C16.8454 18.0688 17.0669 18.1536 17.2885 18.1536C17.51 18.1536 17.7315 18.0688 17.9003 17.9001C18.2387 17.5617 18.2387 17.0148 17.9003 16.6764L10.7237 9.49977L17.9003 2.32313C18.2387 1.98477 18.2387 1.43784 17.9003 1.09948Z" fill="#E51010"/>
</svg>
