<svg width="19" height="19" viewBox="0 0 19 19" fill="none" xmlns="http://www.w3.org/2000/svg">
<path d="M17.9003 1.09997C17.5619 0.7616 17.015 0.7616 16.6766 1.09997L9.50001 8.2766L2.32338 1.09997C1.98501 0.7616 1.43809 0.7616 1.09972 1.09997C0.761356 1.43833 0.761356 1.98526 1.09972 2.32362L8.27636 9.50025L1.09972 16.6769C0.761356 17.0153 0.761356 17.5622 1.09972 17.9005C1.26847 18.0693 1.49001 18.1541 1.71155 18.1541C1.93309 18.1541 2.15463 18.0693 2.32338 17.9005L9.50001 10.7239L16.6766 17.9005C16.8454 18.0693 17.0669 18.1541 17.2885 18.1541C17.51 18.1541 17.7315 18.0693 17.9003 17.9005C18.2387 17.5622 18.2387 17.0153 17.9003 16.6769L10.7237 9.50025L17.9003 2.32362C18.2387 1.98526 18.2387 1.43833 17.9003 1.09997Z" fill="#E5E5E5"/>
</svg>
