<svg width="30" height="30" viewBox="0 0 30 30" fill="none" xmlns="http://www.w3.org/2000/svg">
<path d="M0 15C0 23.2843 6.71573 30 15 30C23.2843 30 30 23.2843 30 15C30 6.71573 23.2843 0 15 0C6.71573 0 0 6.71573 0 15Z" fill="#7D3DAF"/>
<path d="M23.5974 10.4729L23.592 10.4514C23.1577 8.69588 21.2 6.81213 19.4022 6.42023L19.3819 6.41606C16.474 5.86131 13.5255 5.86131 10.6181 6.41606L10.5972 6.42023C8.79997 6.81213 6.84226 8.69588 6.40741 10.4514L6.40264 10.4729C5.86579 12.9245 5.86579 15.4107 6.40264 17.8623L6.40741 17.8838C6.82371 19.5644 8.63564 21.3616 10.3664 21.8558V23.8154C10.3664 24.5247 11.2307 24.873 11.7222 24.3612L13.7077 22.2974C14.1383 22.3215 14.5691 22.3349 15 22.3349C16.4638 22.3349 17.9282 22.1965 19.3819 21.9192L19.4022 21.915C21.2 21.5231 23.1577 19.6393 23.592 17.8838L23.5974 17.8624C24.1342 15.4107 24.1342 12.9245 23.5974 10.4729ZM22.0262 17.5068C21.7363 18.6521 20.2498 20.0759 19.0687 20.339C17.5225 20.633 15.9641 20.7587 14.4073 20.7155C14.3763 20.7147 14.3465 20.7267 14.3249 20.7489C14.104 20.9757 12.8753 22.237 12.8753 22.237L11.3333 23.8195C11.2206 23.9371 11.0225 23.8571 11.0225 23.6949V20.4486C11.0225 20.395 10.9842 20.3494 10.9316 20.3391C10.9313 20.339 10.931 20.339 10.9307 20.3389C9.7496 20.0759 8.26372 18.652 7.97322 17.5067C7.49006 15.2907 7.49006 13.0443 7.97322 10.8283C8.26372 9.68303 9.7496 8.25918 10.9307 7.99613C13.631 7.48254 16.369 7.48254 19.0687 7.99613C20.2504 8.25918 21.7363 9.68303 22.0262 10.8283C22.5099 13.0444 22.5099 15.2908 22.0262 17.5068Z" fill="white"/>
<path d="M17.5704 19.0053C17.3888 18.9502 17.2158 18.9131 17.0551 18.8464C15.3899 18.1556 13.8573 17.2643 12.6434 15.898C11.9531 15.1211 11.4128 14.2439 10.956 13.3156C10.7394 12.8754 10.5569 12.418 10.3709 11.9635C10.2012 11.549 10.4511 11.1209 10.7142 10.8086C10.9611 10.5155 11.2788 10.2913 11.6229 10.126C11.8914 9.99694 12.1563 10.0713 12.3524 10.2989C12.7764 10.7911 13.1659 11.3083 13.4813 11.8788C13.6752 12.2296 13.622 12.6585 13.2705 12.8973C13.1851 12.9553 13.1072 13.0235 13.0277 13.089C12.9579 13.1465 12.8922 13.2045 12.8444 13.2823C12.7569 13.4246 12.7527 13.5925 12.8091 13.7472C13.2425 14.9383 13.973 15.8645 15.1719 16.3633C15.3637 16.4431 15.5564 16.5361 15.7774 16.5103C16.1475 16.4671 16.2673 16.0611 16.5267 15.849C16.7802 15.6417 17.1042 15.6389 17.3772 15.8117C17.6504 15.9846 17.9152 16.1702 18.1783 16.3577C18.4367 16.5418 18.6939 16.7219 18.9322 16.9317C19.1613 17.1335 19.2402 17.3983 19.1112 17.6721C18.875 18.1737 18.5313 18.5909 18.0355 18.8572C17.8955 18.9323 17.7283 18.9567 17.5704 19.0053C17.3888 18.9501 17.7283 18.9567 17.5704 19.0053Z" fill="white"/>
<path d="M15.005 9.55245C17.1831 9.61347 18.9721 11.059 19.3554 13.2123C19.4208 13.5793 19.444 13.9544 19.4731 14.3268C19.4853 14.4834 19.3966 14.6323 19.2275 14.6343C19.053 14.6364 18.9744 14.4903 18.9631 14.3337C18.9406 14.0238 18.9251 13.7125 18.8824 13.4051C18.6569 11.7825 17.3631 10.4402 15.7481 10.1521C15.505 10.1087 15.2563 10.0974 15.0101 10.0715C14.8545 10.0552 14.6507 10.0458 14.6162 9.85231C14.5873 9.69012 14.7242 9.56098 14.8786 9.55269C14.9206 9.55036 14.9628 9.55227 15.005 9.55245C17.1831 9.61347 14.9628 9.55227 15.005 9.55245Z" fill="white"/>
<path d="M18.3144 13.8434C18.3108 13.8706 18.3089 13.9345 18.293 13.9948C18.2352 14.2135 17.9037 14.2408 17.8273 14.0201C17.8047 13.9546 17.8013 13.8801 17.8012 13.8096C17.8004 13.3483 17.7002 12.8874 17.4675 12.486C17.2284 12.0735 16.863 11.7267 16.4345 11.5169C16.1754 11.39 15.8952 11.3111 15.6112 11.2641C15.487 11.2436 15.3616 11.2311 15.2369 11.2138C15.0857 11.1928 15.005 11.0964 15.0122 10.9475C15.0188 10.8079 15.1208 10.7075 15.2729 10.7161C15.7728 10.7445 16.2556 10.8525 16.7 11.0878C17.6037 11.5664 18.1199 12.3218 18.2706 13.3305C18.2774 13.3762 18.2884 13.4215 18.2918 13.4674C18.3003 13.5806 18.3057 13.694 18.3144 13.8434C18.3108 13.8706 18.3057 13.694 18.3144 13.8434Z" fill="white"/>
<path d="M16.9598 13.7907C16.7776 13.794 16.6801 13.6932 16.6613 13.5261C16.6482 13.4096 16.6379 13.2915 16.6101 13.1782C16.5554 12.955 16.4367 12.7481 16.2489 12.6113C16.1603 12.5467 16.0598 12.4997 15.9546 12.4693C15.8209 12.4307 15.6821 12.4413 15.5488 12.4087C15.4039 12.3732 15.3238 12.2559 15.3466 12.12C15.3673 11.9964 15.4876 11.8998 15.6227 11.9096C16.4672 11.9706 17.0707 12.4072 17.1569 13.4013C17.163 13.4714 17.1701 13.5456 17.1545 13.6127C17.1279 13.7276 17.0428 13.7851 16.9598 13.7907C16.7776 13.794 17.0428 13.7851 16.9598 13.7907Z" fill="white"/>
</svg>
