<svg width="30" height="30" viewBox="0 0 30 30" fill="none" xmlns="http://www.w3.org/2000/svg">
<path d="M15 30C23.2843 30 30 23.2843 30 15C30 6.71573 23.2843 0 15 0C6.71573 0 0 6.71573 0 15C0 23.2843 6.71573 30 15 30Z" fill="#D22215"/>
<path d="M20.4362 8.92576H10.5219C8.5768 8.92576 7 10.5026 7 12.4477V17.4038C7 19.349 8.57686 20.9258 10.5219 20.9258H20.4362C22.3813 20.9258 23.9581 19.3489 23.9581 17.4038V12.4477C23.9581 10.5026 22.3812 8.92576 20.4362 8.92576ZM18.0542 15.1669L13.4171 17.3785C13.2935 17.4374 13.1507 17.3475 13.1507 17.2106V12.649C13.1507 12.5101 13.2973 12.4201 13.421 12.4829L18.0581 14.8328C18.1962 14.9027 18.1937 15.1004 18.0542 15.1669Z" fill="white"/>
</svg>
