<svg width="40" height="40" viewBox="0 0 40 40" fill="none" xmlns="http://www.w3.org/2000/svg">
<path d="M36.2987 20.2508C35.8854 18.455 34.4164 17.1303 32.6484 16.9331C28.4625 16.4655 24.2238 16.4633 20.0057 16.4655C15.7859 16.4633 11.548 16.4655 7.36082 16.9331C5.59367 17.1307 4.1256 18.4554 3.71271 20.2508C3.12425 22.808 3.11719 25.5995 3.11719 28.2326C3.11719 30.8656 3.11719 33.6567 3.70565 36.2139C4.11854 38.0092 5.58661 39.3339 7.35465 39.5316C11.5409 39.9996 15.7788 40.0014 19.9982 39.9996C24.218 40.0018 28.455 39.9996 32.6426 39.5316C34.4098 39.3339 35.8787 38.0092 36.2916 36.2139C36.8797 33.6567 36.8828 30.8656 36.8828 28.2326C36.8823 25.599 36.8867 22.808 36.2987 20.2508ZM12.7483 22.2328H10.3045V35.2187H8.03442V22.2328H5.63514V20.1057H12.7483V22.2328ZM18.9139 35.2191H16.8719V33.9906C16.0607 34.9205 15.2905 35.374 14.5402 35.374C13.8824 35.374 13.4298 35.1075 13.2256 34.5371C13.1144 34.1966 13.0456 33.6575 13.0456 32.8626V23.958H15.0858V32.249C15.0858 32.7272 15.0858 32.9755 15.1044 33.0426C15.1533 33.3593 15.3082 33.5199 15.5817 33.5199C15.991 33.5199 16.4189 33.2045 16.8715 32.5644V23.958H18.9135L18.9139 35.2191ZM26.6658 31.8392C26.6658 32.8807 26.5957 33.6311 26.4594 34.1084C26.1868 34.9461 25.6411 35.374 24.8294 35.374C24.1033 35.374 23.4028 34.9708 22.7204 34.1282V35.2196H20.6802V20.1057H22.7204V25.0415C23.3794 24.2302 24.0791 23.82 24.8294 23.82C25.6411 23.82 26.1872 24.2474 26.4594 25.0904C26.5966 25.5435 26.6658 26.2881 26.6658 27.3543V31.8392ZM34.3666 29.9605H30.2857V31.9565C30.2857 32.9989 30.6267 33.5195 31.3281 33.5195C31.8305 33.5195 32.123 33.2464 32.2395 32.7012C32.2584 32.5904 32.2853 32.137 32.2853 31.3187H34.367V31.6164C34.367 32.2742 34.3419 32.7272 34.3233 32.931C34.255 33.3827 34.0944 33.7925 33.8469 34.1534C33.2818 34.9712 32.4446 35.3744 31.3788 35.3744C30.3113 35.3744 29.4987 34.9902 28.909 34.2213C28.4762 33.6575 28.2539 32.77 28.2539 31.5732V27.6291C28.2539 26.4253 28.4511 25.5448 28.8847 24.9757C29.474 24.2051 30.2861 23.8213 31.3285 23.8213C32.3524 23.8213 33.1641 24.2051 33.7358 24.9757C34.1632 25.5448 34.3674 26.4253 34.3674 27.6291V29.9605H34.3666Z" fill="#E51010"/>
<path d="M31.31 25.657C30.628 25.657 30.2861 26.178 30.2861 27.2191V28.261H32.3263V27.2191C32.3259 26.178 31.9849 25.657 31.31 25.657Z" fill="#E51010"/>
<path d="M23.7379 25.657C23.4018 25.657 23.0612 25.8158 22.7202 26.1533V33.0168C23.0608 33.3582 23.4018 33.5197 23.7379 33.5197C24.3264 33.5197 24.6254 33.0168 24.6254 32V27.1935C24.6254 26.178 24.3264 25.657 23.7379 25.657Z" fill="#E51010"/>
<path d="M24.8775 15.4276C25.6296 15.4276 26.4122 14.9706 27.2331 14.0302V15.2715H29.2954V3.89087H27.2331V12.589C26.7761 13.2348 26.3429 13.5542 25.9305 13.5542C25.6543 13.5542 25.492 13.391 25.447 13.0711C25.4219 13.0037 25.4219 12.7527 25.4219 12.2696V3.89087H23.3662V12.8898C23.3662 13.6936 23.435 14.2375 23.5488 14.582C23.7562 15.1586 24.2136 15.4276 24.8775 15.4276Z" fill="#0A0A0A"/>
<path d="M10.5209 9.08632V15.2713H12.8077V9.08632L15.5586 0H13.2462L11.6859 5.99711L10.0626 0H7.65625C8.1384 1.41557 8.63996 2.83821 9.12211 4.2551C9.85571 6.38486 10.3136 7.99056 10.5209 9.08632Z" fill="#0A0A0A"/>
<path d="M18.6236 15.4277C19.6567 15.4277 20.4595 15.0391 21.029 14.2627C21.4618 13.6932 21.6691 12.7959 21.6691 11.5864V7.60124C21.6691 6.38461 21.4622 5.4953 21.029 4.92052C20.4595 4.14193 19.6571 3.7533 18.6236 3.7533C17.5957 3.7533 16.7933 4.14193 16.2225 4.92052C15.7845 5.4953 15.5771 6.38461 15.5771 7.60124V11.5864C15.5771 12.7959 15.7845 13.6932 16.2225 14.2627C16.7929 15.0391 17.5957 15.4277 18.6236 15.4277ZM17.6394 7.1879C17.6394 6.13494 17.9588 5.61 18.6236 5.61C19.2883 5.61 19.6068 6.1345 19.6068 7.1879V11.975C19.6068 13.028 19.2883 13.5547 18.6236 13.5547C17.9588 13.5547 17.6394 13.028 17.6394 11.975V7.1879Z" fill="#0A0A0A"/>
</svg>
